<svg width="24" height="24" viewBox="0 0 24 24" fill="none" xmlns="http://www.w3.org/2000/svg">
<path d="M10.9446 6.00749C10.3399 6.03941 10.1102 6.13063 9.88989 6.43164C9.38832 7.10664 9.74926 8.07353 10.5696 8.25141L10.8274 8.30614L10.8227 8.69837C10.8227 8.91272 10.8086 9.17269 10.7899 9.27303L10.7571 9.45546L10.1946 9.59228C8.4602 10.021 7.23676 10.6823 6.1352 11.786C4.70551 13.2227 3.88989 15.0151 3.8102 16.9215C3.77739 17.6877 3.81957 17.8793 4.1102 18.1894C4.47582 18.5816 3.8477 18.5543 11.9758 18.5543C19.8508 18.5543 19.4336 18.568 19.7899 18.2806C20.1555 17.9887 20.268 17.4642 20.1602 16.5475C19.9305 14.6001 19.0961 12.981 17.6289 11.6127C16.5743 10.6276 15.2805 9.94803 13.8602 9.62877C13.5508 9.56036 13.3118 9.48282 13.2743 9.44178C13.2321 9.38705 13.218 9.21374 13.2274 8.84431L13.2414 8.32438L13.4899 8.25597C13.7993 8.17387 14.1602 7.8683 14.268 7.60377C14.493 7.06103 14.2399 6.35411 13.7336 6.10326C13.5836 6.03029 13.4243 6.01661 12.5102 5.99837C11.9336 5.98468 11.2305 5.98924 10.9446 6.00749ZM14.5774 12.1007C15.768 12.8213 16.7196 13.9387 17.1743 15.1702C17.2914 15.4985 17.4836 16.3104 17.4836 16.5019C17.4836 16.6387 17.2352 16.8668 17.0852 16.8668C16.9024 16.8668 16.7055 16.6524 16.6633 16.4061C16.5368 15.6171 16.1571 14.7095 15.7071 14.1303C15.3789 13.7061 14.7602 13.1406 14.3196 12.8669C13.7289 12.4975 13.6868 12.4565 13.6868 12.2786C13.6868 12.1691 13.7243 12.0825 13.8039 12.0095C13.9774 11.8362 14.1696 11.859 14.5774 12.1007Z" fill="#F7B103"/>
<path d="M4.17163 19.371C3.2857 19.3984 3.19195 19.4257 2.9482 19.6811C2.7607 19.8727 2.66226 20.0916 2.63882 20.3744C2.59195 20.8806 2.82163 21.3048 3.2482 21.5009L3.49195 21.6104H12.0373C20.4045 21.6104 20.5873 21.6104 20.7607 21.5237C21.1732 21.3185 21.3982 20.8989 21.3654 20.3881C21.3466 20.0232 21.2107 19.786 20.906 19.5808C20.517 19.3208 21.0045 19.3345 12.6795 19.3391C8.45132 19.3436 4.62163 19.3573 4.17163 19.371Z" fill="#F7B103"/>
</svg>
