<svg width="23" height="24" viewBox="0 0 23 24" fill="none" xmlns="http://www.w3.org/2000/svg">
<path d="M3.61765 1.04861C3.2614 1.21267 3.26608 1.23142 3.71608 1.44704C4.62077 1.87829 5.31452 2.60954 5.69421 3.5283C6.00359 4.26423 5.98484 3.69236 5.98484 13.4142C5.98484 21.9033 5.98952 22.2502 6.0739 22.4283C6.2989 22.9205 6.87546 23.1455 7.3864 22.9392C7.48952 22.897 8.19265 22.3299 9.0364 21.6127L10.5036 20.3564L11.9755 21.622C12.7864 22.3158 13.5223 22.9111 13.6067 22.9486C13.8083 23.033 14.1927 23.033 14.3942 22.9486C14.4786 22.9158 15.2052 22.3205 16.0114 21.6314C16.8177 20.9424 17.4973 20.3892 17.5302 20.4033C17.563 20.4174 18.2192 20.9705 18.9927 21.6314C19.7661 22.297 20.4833 22.8783 20.5864 22.9252C20.8255 23.0377 21.1911 23.0377 21.4302 22.9252C21.6645 22.822 21.9036 22.5549 21.9692 22.3252C22.0067 22.1986 22.0161 19.5783 22.0067 13.2174C21.988 3.14861 22.0255 4.11423 21.6177 3.25173C21.2192 2.41736 20.5817 1.78454 19.752 1.38611C18.8895 0.973608 19.6677 1.01111 11.2348 0.997046C5.00046 0.987669 3.73483 0.997046 3.61765 1.04861ZM17.4786 5.16892C18.1208 5.54392 18.1208 6.4533 17.4786 6.8283L17.2583 6.95955H14.0005H10.7427L10.5223 6.8283C9.78171 6.39705 9.92234 5.31423 10.7567 5.06111C10.827 5.03767 12.3177 5.02361 14.0708 5.0283L17.2583 5.03767L17.4786 5.16892ZM17.1458 9.04548C17.9005 9.1908 18.2192 10.0345 17.7364 10.6158C17.4364 10.9814 17.6052 10.9674 14.0005 10.9674C10.977 10.9674 10.7802 10.958 10.5973 10.8783C10.2223 10.7095 9.96921 10.2455 10.0395 9.84705C10.1005 9.48142 10.452 9.12048 10.8177 9.05017C11.1177 8.98923 16.8364 8.98923 17.1458 9.04548ZM17.4036 13.1189C17.7786 13.2877 18.0317 13.7517 17.9614 14.1502C17.8958 14.5345 17.5536 14.872 17.1458 14.9517C16.8083 15.0174 11.1927 15.0174 10.8552 14.9517C10.1005 14.8064 9.78171 13.9627 10.2645 13.3814C10.5645 13.0158 10.3958 13.0299 14.0005 13.0299C17.0239 13.0299 17.2208 13.0392 17.4036 13.1189Z" fill="#F7B103"/>
<path d="M1.50781 2.82656C0.926563 2.97187 0.429688 3.375 0.1625 3.91875L0.0078125 4.2375V8.30156V12.3609L0.148438 12.5672C0.228125 12.675 0.3875 12.8203 0.5 12.8859L0.710938 13.0031L2.36563 13.0172L4.01562 13.0312L4.00625 8.63437L3.99219 4.2375L3.8375 3.91875C3.41094 3.05156 2.44063 2.59687 1.50781 2.82656Z" fill="#F7B103"/>
</svg>
