<svg width="24" height="24" viewBox="0 0 24 24" fill="none" xmlns="http://www.w3.org/2000/svg">
<path d="M6.84375 0.103125C6.75938 0.164062 6.64219 0.271874 6.59063 0.342187C6.49219 0.473437 6.49219 0.487499 6.47813 5.42812L6.46875 10.3828L6.57188 10.5937C6.63281 10.7062 6.74063 10.8422 6.81094 10.8937C6.94219 10.9922 6.97031 10.9922 12 10.9922C17.0297 10.9922 17.0578 10.9922 17.1891 10.8937C17.2594 10.8422 17.3672 10.7062 17.4281 10.5937L17.5312 10.3828L17.5219 5.42812C17.5078 0.487499 17.5078 0.473437 17.4094 0.342187C17.3578 0.271874 17.2406 0.164062 17.1562 0.103125C17.0016 0 16.9969 0 14.9953 0H12.9891L12.975 1.62656L12.9609 3.25781L12.8297 3.47812C12.4547 4.12031 11.5453 4.12031 11.1703 3.47812L11.0391 3.25781L11.025 1.62656L11.0109 0H9.00469C7.00313 0 6.99844 0 6.84375 0.103125Z" fill="#F7B103"/>
<path d="M0.360938 13.0922C0.2625 13.1531 0.140625 13.2609 0.09375 13.3406C0.0046875 13.4719 0 13.6078 0 18.4922C0 23.4141 0 23.5125 0.09375 23.6625C0.145313 23.7469 0.253125 23.8547 0.3375 23.9062C0.4875 24 0.585938 24 5.50781 24C10.3922 24 10.5281 23.9953 10.6594 23.9062C10.7391 23.8594 10.8469 23.7375 10.9078 23.6391L11.0156 23.4609V18.4875V13.5141L10.9078 13.3547C10.8516 13.2703 10.7297 13.1484 10.6453 13.0922L10.4859 12.9844H8.47969H6.46875V14.5875C6.46875 16.3875 6.45938 16.425 6.12656 16.7203C5.64375 17.1422 4.94063 17.0062 4.64531 16.4297L4.52344 16.2L4.50938 14.5922L4.49531 12.9844H2.51719H0.539062L0.360938 13.0922Z" fill="#F7B103"/>
<path d="M13.3547 13.0922C13.2703 13.1484 13.1484 13.2703 13.0922 13.3547L12.9844 13.5141V18.4875V23.4609L13.0922 23.6391C13.1531 23.7375 13.2609 23.8594 13.3406 23.9062C13.4719 23.9953 13.6078 24 18.4922 24C23.4141 24 23.5125 24 23.6625 23.9062C23.7469 23.8547 23.8547 23.7469 23.9062 23.6625C24 23.5125 24 23.4141 24 18.4922C24 13.6078 23.9953 13.4719 23.9062 13.3406C23.8594 13.2609 23.7375 13.1531 23.6391 13.0922L23.4609 12.9844H21.4828H19.5047L19.4906 14.5922L19.4766 16.2L19.3547 16.4297C19.0594 17.0062 18.3563 17.1422 17.8734 16.7203C17.5406 16.425 17.5312 16.3875 17.5312 14.5875V12.9844H15.5203H13.5141L13.3547 13.0922Z" fill="#F7B103"/>
</svg>
