<svg width="144" height="220" viewBox="0 0 144 220" fill="none" xmlns="http://www.w3.org/2000/svg">
<mask id="path-1-outside-1_1410_10039" maskUnits="userSpaceOnUse" x="-27.9953" y="130.575" width="62.3316" height="61.6964" fill="black">
<rect fill="white" x="-27.9953" y="130.575" width="62.3316" height="61.6964"/>
<path d="M-3.88088 134.841C-6.00357 138.278 -7.69745 141.026 -9.39577 143.784C-11.2003 146.715 -13.0115 149.654 -15.3483 153.437C-16.6172 155.491 -17.9301 157.615 -18.2623 160.021C-18.9132 164.709 -15.6396 170.541 -9.50572 175.621C-3.34827 180.72 3.21363 183.003 8.04148 181.722C11.3408 180.847 13.7608 178.434 15.9566 176.038C22.6464 168.736 25.3225 165.608 29.925 156.608C22.7973 152.747 3.1672 140.111 -3.88088 134.841ZM-6.62255 180.068C-8.35171 178.986 -9.77123 177.896 -10.7307 177.101C-13.9246 174.455 -21.2353 167.471 -20.1678 159.758C-19.7777 156.95 -18.2927 154.547 -16.9818 152.426C-14.646 148.645 -12.8349 145.707 -11.0323 142.778C-9.18682 139.781 -7.34834 136.795 -4.95804 132.93C-4.81485 132.698 -4.57967 132.539 -4.31097 132.489C-4.04168 132.442 -3.76959 132.508 -3.55146 132.677C2.80545 137.628 25.1759 152.034 31.6481 155.344C32.1181 155.587 32.3062 156.16 32.0691 156.631C27.0831 166.511 24.3994 169.666 17.3733 177.335C15.0904 179.827 12.3351 182.571 8.53239 183.58C3.06733 185.03 -2.61181 182.576 -6.62255 180.068Z"/>
</mask>
<path d="M-3.88088 134.841C-6.00357 138.278 -7.69745 141.026 -9.39577 143.784C-11.2003 146.715 -13.0115 149.654 -15.3483 153.437C-16.6172 155.491 -17.9301 157.615 -18.2623 160.021C-18.9132 164.709 -15.6396 170.541 -9.50572 175.621C-3.34827 180.72 3.21363 183.003 8.04148 181.722C11.3408 180.847 13.7608 178.434 15.9566 176.038C22.6464 168.736 25.3225 165.608 29.925 156.608C22.7973 152.747 3.1672 140.111 -3.88088 134.841ZM-6.62255 180.068C-8.35171 178.986 -9.77123 177.896 -10.7307 177.101C-13.9246 174.455 -21.2353 167.471 -20.1678 159.758C-19.7777 156.95 -18.2927 154.547 -16.9818 152.426C-14.646 148.645 -12.8349 145.707 -11.0323 142.778C-9.18682 139.781 -7.34834 136.795 -4.95804 132.93C-4.81485 132.698 -4.57967 132.539 -4.31097 132.489C-4.04168 132.442 -3.76959 132.508 -3.55146 132.677C2.80545 137.628 25.1759 152.034 31.6481 155.344C32.1181 155.587 32.3062 156.16 32.0691 156.631C27.0831 166.511 24.3994 169.666 17.3733 177.335C15.0904 179.827 12.3351 182.571 8.53239 183.58C3.06733 185.03 -2.61181 182.576 -6.62255 180.068Z" fill="#BCC7BD"/>
<path d="M-9.39577 143.784L-9.82156 143.522L-9.82153 143.522L-9.39577 143.784ZM-15.3483 153.437L-14.9229 153.699L-14.9229 153.699L-15.3483 153.437ZM-18.2623 160.021L-17.767 160.09L-17.7671 160.09L-18.2623 160.021ZM-9.50572 175.621L-9.82463 176.006L-9.82464 176.006L-9.50572 175.621ZM8.04148 181.722L7.91327 181.239L7.91329 181.239L8.04148 181.722ZM15.9566 176.038L16.3253 176.375L16.3252 176.375L15.9566 176.038ZM29.925 156.608L30.1632 156.168L30.5925 156.4L30.3702 156.835L29.925 156.608ZM-10.7307 177.101L-10.4118 176.716L-10.4116 176.716L-10.7307 177.101ZM-20.1678 159.758L-20.663 159.689L-20.663 159.689L-20.1678 159.758ZM-16.9818 152.426L-16.5564 152.689L-16.5565 152.689L-16.9818 152.426ZM-11.0323 142.778L-11.4581 142.516L-11.4581 142.516L-11.0323 142.778ZM-4.95804 132.93L-4.5323 133.193L-4.53281 133.193L-4.95804 132.93ZM-4.31097 132.489L-4.40179 131.997L-4.39699 131.996L-4.31097 132.489ZM-3.55146 132.677L-3.2444 132.283L-3.24424 132.283L-3.55146 132.677ZM31.6481 155.344L31.8758 154.899L31.8776 154.9L31.6481 155.344ZM32.0691 156.631L32.5158 156.856L32.5155 156.857L32.0691 156.631ZM17.3733 177.335L17.0046 176.997L17.0047 176.997L17.3733 177.335ZM8.53239 183.58L8.4041 183.096L8.40417 183.096L8.53239 183.58ZM-3.45548 135.104C-5.57804 138.541 -7.2718 141.288 -8.97 144.046L-9.82153 143.522C-8.1231 140.763 -6.4291 138.016 -4.30628 134.579L-3.45548 135.104ZM-8.96997 144.046C-10.7746 146.978 -12.586 149.917 -14.9229 153.699L-15.7736 153.174C-13.437 149.392 -11.626 146.453 -9.82156 143.522L-8.96997 144.046ZM-14.9229 153.699C-16.203 155.771 -17.4517 157.806 -17.767 160.09L-18.7576 159.953C-18.4084 157.424 -17.0315 155.21 -15.7736 153.174L-14.9229 153.699ZM-17.7671 160.09C-18.073 162.293 -17.4614 164.812 -15.9923 167.43C-14.5249 170.044 -12.2174 172.726 -9.1868 175.236L-9.82464 176.006C-12.9279 173.436 -15.3242 170.663 -16.8643 167.919C-18.4028 165.178 -19.1026 162.437 -18.7576 159.952L-17.7671 160.09ZM-9.18682 175.236C-3.07766 180.295 3.31737 182.458 7.91327 181.239L8.16969 182.206C3.10989 183.548 -3.61888 181.146 -9.82463 176.006L-9.18682 175.236ZM7.91329 181.239C11.0561 180.405 13.3887 178.1 15.588 175.7L16.3252 176.375C14.1329 178.768 11.6254 181.289 8.16968 182.206L7.91329 181.239ZM15.588 175.7C22.2617 168.416 24.9056 165.325 29.4799 156.38L30.3702 156.835C25.7395 165.891 23.0311 169.056 16.3253 176.375L15.588 175.7ZM29.6869 157.047C22.5362 153.175 2.88571 140.525 -4.18028 135.242L-3.58148 134.441C3.4487 139.697 23.0584 152.32 30.1632 156.168L29.6869 157.047ZM-6.88767 180.492C-8.63971 179.396 -10.0773 178.292 -11.0499 177.486L-10.4116 176.716C-9.46511 177.501 -8.0637 178.577 -6.35743 179.644L-6.88767 180.492ZM-11.0497 177.486C-12.664 176.148 -15.3289 173.707 -17.4591 170.613C-19.5853 167.524 -21.2213 163.723 -20.663 159.689L-19.6725 159.826C-20.1817 163.506 -18.6962 167.052 -16.6354 170.046C-14.5787 173.033 -11.9913 175.407 -10.4118 176.716L-11.0497 177.486ZM-20.663 159.689C-20.2562 156.76 -18.7095 154.27 -17.4071 152.163L-16.5565 152.689C-17.8759 154.824 -19.2992 157.14 -19.6725 159.827L-20.663 159.689ZM-17.4072 152.163C-15.0716 148.383 -13.2606 145.444 -11.4581 142.516L-10.6065 143.04C-12.4092 145.969 -14.2205 148.908 -16.5564 152.689L-17.4072 152.163ZM-11.4581 142.516C-9.61258 139.519 -7.77386 136.533 -5.38328 132.667L-4.53281 133.193C-6.92281 137.058 -8.76106 140.043 -10.6066 143.04L-11.4581 142.516ZM-5.38378 132.668C-5.1654 132.314 -4.80761 132.072 -4.40178 131.997L-4.22016 132.981C-4.35172 133.005 -4.4643 133.082 -4.5323 133.193L-5.38378 132.668ZM-4.39699 131.996C-3.99056 131.925 -3.57534 132.025 -3.2444 132.283L-3.85852 133.072C-3.96384 132.99 -4.09279 132.958 -4.22495 132.981L-4.39699 131.996ZM-3.24424 132.283C-0.0859332 134.743 7.07783 139.57 14.2758 144.205C21.4756 148.842 28.6655 153.257 31.8758 154.899L31.4204 155.789C28.1585 154.121 20.9271 149.678 13.7344 145.046C6.53986 140.413 -0.66007 135.563 -3.85867 133.072L-3.24424 132.283ZM31.8776 154.9C32.589 155.267 32.877 156.138 32.5158 156.856L31.6224 156.407C31.7353 156.182 31.6472 155.906 31.4185 155.788L31.8776 154.9ZM32.5155 156.857C27.5019 166.791 24.7865 169.983 17.742 177.672L17.0047 176.997C24.0122 169.348 26.6642 166.231 31.6227 156.406L32.5155 156.857ZM17.742 177.672C15.459 180.165 12.6177 183.013 8.66062 184.063L8.40417 183.096C12.0525 182.128 14.7218 179.489 17.0046 176.997L17.742 177.672ZM8.66069 184.063C2.98492 185.57 -2.85089 183.016 -6.88767 180.492L-6.35743 179.644C-2.37274 182.136 3.14973 184.491 8.4041 183.096L8.66069 184.063Z" fill="#BCC7BD" mask="url(#path-1-outside-1_1410_10039)"/>
<mask id="path-3-outside-2_1410_10039" maskUnits="userSpaceOnUse" x="-29.3039" y="33.0915" width="141.943" height="141.943" fill="black">
<rect fill="white" x="-29.3039" y="33.0915" width="141.943" height="141.943"/>
<path d="M28.4553 155.363L28.3142 155.254C27.9228 154.896 27.8973 154.287 28.2569 153.897C34.9608 146.598 45.5455 144.089 55.7824 141.66C65.2851 139.407 75.1116 137.076 81.5652 130.92C85.0354 127.608 90.9356 117.901 92.5746 107.58C93.7896 99.9264 92.9566 93.0864 90.0992 87.2458C84.7293 76.2669 72.0287 62.8711 58.1463 58.5069C44.9374 54.3552 32.1891 54.0874 22.2514 57.7497C13.1528 61.1038 5.8973 67.8539 1.81862 76.7552C-1.9996 85.0908 -2.95498 95.0035 -0.93966 105.426C-0.661609 106.864 -0.321503 108.334 0.00725561 109.754C0.696668 112.74 1.4084 115.828 1.6253 118.898C2.01816 124.438 0.796195 129.773 -1.90909 134.323C-2.18109 134.779 -2.76983 134.928 -3.22548 134.659C-3.68312 134.41 -3.83106 133.798 -3.56065 133.341C-1.05767 129.129 0.0731825 124.182 -0.291037 119.032C-0.496203 116.114 -1.19218 113.1 -1.86485 110.187C-2.19779 108.748 -2.54055 107.261 -2.82478 105.791C-4.91744 94.9735 -3.9158 84.6565 0.0735933 75.9548C4.3654 66.5849 12.0051 59.4798 21.586 55.9476C31.9202 52.1379 45.1077 52.396 58.7215 56.6744C73.1207 61.1996 86.2741 75.0541 91.8245 86.4014C94.8597 92.6041 95.7505 99.8312 94.4723 107.881C92.7635 118.639 86.5509 128.818 82.89 132.31C76.0613 138.825 65.9769 141.216 56.2257 143.529C46.271 145.89 35.9764 148.33 29.67 155.196C29.3535 155.542 28.8385 155.602 28.4553 155.363Z"/>
</mask>
<path d="M28.4553 155.363L28.3142 155.254C27.9228 154.896 27.8973 154.287 28.2569 153.897C34.9608 146.598 45.5455 144.089 55.7824 141.66C65.2851 139.407 75.1116 137.076 81.5652 130.92C85.0354 127.608 90.9356 117.901 92.5746 107.58C93.7896 99.9264 92.9566 93.0864 90.0992 87.2458C84.7293 76.2669 72.0287 62.8711 58.1463 58.5069C44.9374 54.3552 32.1891 54.0874 22.2514 57.7497C13.1528 61.1038 5.8973 67.8539 1.81862 76.7552C-1.9996 85.0908 -2.95498 95.0035 -0.93966 105.426C-0.661609 106.864 -0.321503 108.334 0.00725561 109.754C0.696668 112.74 1.4084 115.828 1.6253 118.898C2.01816 124.438 0.796195 129.773 -1.90909 134.323C-2.18109 134.779 -2.76983 134.928 -3.22548 134.659C-3.68312 134.41 -3.83106 133.798 -3.56065 133.341C-1.05767 129.129 0.0731825 124.182 -0.291037 119.032C-0.496203 116.114 -1.19218 113.1 -1.86485 110.187C-2.19779 108.748 -2.54055 107.261 -2.82478 105.791C-4.91744 94.9735 -3.9158 84.6565 0.0735933 75.9548C4.3654 66.5849 12.0051 59.4798 21.586 55.9476C31.9202 52.1379 45.1077 52.396 58.7215 56.6744C73.1207 61.1996 86.2741 75.0541 91.8245 86.4014C94.8597 92.6041 95.7505 99.8312 94.4723 107.881C92.7635 118.639 86.5509 128.818 82.89 132.31C76.0613 138.825 65.9769 141.216 56.2257 143.529C46.271 145.89 35.9764 148.33 29.67 155.196C29.3535 155.542 28.8385 155.602 28.4553 155.363Z" fill="#BCC7BD"/>
<path d="M28.3142 155.254L28.0099 155.651L27.9927 155.638L27.9767 155.623L28.3142 155.254ZM28.2569 153.897L28.6251 154.235L28.6246 154.236L28.2569 153.897ZM55.7824 141.66L55.667 141.173L55.6671 141.173L55.7824 141.66ZM81.5652 130.92L81.9103 131.281L81.9103 131.281L81.5652 130.92ZM92.5746 107.58L93.0684 107.658L93.0684 107.659L92.5746 107.58ZM90.0992 87.2458L89.6501 87.4656L89.6501 87.4655L90.0992 87.2458ZM58.1463 58.5069L58.2963 58.0299L58.2963 58.03L58.1463 58.5069ZM22.2514 57.7497L22.0785 57.2805L22.0785 57.2805L22.2514 57.7497ZM1.81862 76.7552L1.36404 76.5469L1.36407 76.5469L1.81862 76.7552ZM-0.93966 105.426L-1.43056 105.521L-1.43057 105.521L-0.93966 105.426ZM0.00725561 109.754L0.494382 109.641L0.494434 109.642L0.00725561 109.754ZM1.6253 118.898L1.12656 118.933L1.12655 118.933L1.6253 118.898ZM-1.90909 134.323L-1.47933 134.578L-1.47962 134.579L-1.90909 134.323ZM-3.22548 134.659L-2.98692 134.219L-2.97888 134.224L-2.971 134.229L-3.22548 134.659ZM-3.56065 133.341L-3.99102 133.086L-3.99047 133.086L-3.56065 133.341ZM-0.291037 119.032L-0.78979 119.067L-0.789805 119.067L-0.291037 119.032ZM-1.86485 110.187L-1.37772 110.074L-1.37767 110.074L-1.86485 110.187ZM-2.82478 105.791L-2.33388 105.696L-2.33387 105.696L-2.82478 105.791ZM0.0735933 75.9548L0.528176 76.163L0.528104 76.1632L0.0735933 75.9548ZM21.586 55.9476L21.4131 55.4784L21.4131 55.4784L21.586 55.9476ZM58.7215 56.6744L58.5716 57.1514L58.7215 56.6744ZM91.8245 86.4014L91.3754 86.6211L91.3754 86.6211L91.8245 86.4014ZM94.4723 107.881L94.9661 107.959L94.9661 107.959L94.4723 107.881ZM82.89 132.31L82.5449 131.948L82.5449 131.948L82.89 132.31ZM56.2257 143.529L56.341 144.016L56.2257 143.529ZM29.67 155.196L29.3009 154.859L29.3017 154.858L29.67 155.196ZM28.151 155.759L28.0099 155.651L28.6184 154.858L28.7595 154.966L28.151 155.759ZM27.9767 155.623C27.3807 155.078 27.3423 154.152 27.8891 153.558L28.6246 154.236C28.4522 154.423 28.465 154.715 28.6517 154.886L27.9767 155.623ZM27.8886 153.559C34.7159 146.125 45.4705 143.592 55.667 141.173L55.8979 142.146C45.6205 144.585 35.2057 147.07 28.6251 154.235L27.8886 153.559ZM55.6671 141.173C65.2072 138.911 74.8837 136.603 81.22 130.558L81.9103 131.281C75.3396 137.55 65.3631 139.902 55.8978 142.146L55.6671 141.173ZM81.22 130.558C82.8995 128.955 85.2118 125.754 87.3115 121.651C89.4074 117.554 91.2714 112.598 92.0808 107.502L93.0684 107.659C92.2388 112.883 90.3332 117.94 88.2017 122.106C86.074 126.264 83.7011 129.573 81.9103 131.281L81.22 130.558ZM92.0808 107.502C93.2829 99.9297 92.4542 93.1971 89.6501 87.4656L90.5484 87.0261C93.4591 92.9757 94.2964 99.9231 93.0684 107.658L92.0808 107.502ZM89.6501 87.4655C86.9948 82.0368 82.5156 75.9906 76.9718 70.7595C71.4272 65.5277 64.8451 61.137 57.9964 58.9839L58.2963 58.03C65.3299 60.2411 72.0393 64.7303 77.6581 70.0322C83.2777 75.3347 87.8337 81.4759 90.5484 87.0261L89.6501 87.4655ZM57.9964 58.9839C44.8605 54.8551 32.2303 54.6051 22.4243 58.2188L22.0785 57.2805C32.148 53.5697 45.0143 53.8552 58.2963 58.0299L57.9964 58.9839ZM22.4244 58.2188C13.452 61.5264 6.29706 68.1818 2.27317 76.9634L1.36407 76.5469C5.49754 67.526 12.8536 60.6812 22.0785 57.2805L22.4244 58.2188ZM2.2732 76.9634C-1.49505 85.1899 -2.44749 94.9944 -0.448753 105.331L-1.43057 105.521C-3.46247 95.0127 -2.50415 84.9916 1.36404 76.5469L2.2732 76.9634ZM-0.448756 105.331C-0.172728 106.758 0.165257 108.219 0.494382 109.641L-0.479869 109.867C-0.808262 108.448 -1.15049 106.969 -1.43056 105.521L-0.448756 105.331ZM0.494434 109.642C1.18228 112.62 1.90393 115.747 2.12406 118.862L1.12655 118.933C0.912876 115.909 0.211056 112.859 -0.479923 109.867L0.494434 109.642ZM2.12405 118.862C2.52373 124.499 1.28077 129.937 -1.47933 134.578L-2.33885 134.067C0.31162 129.61 1.51257 124.377 1.12656 118.933L2.12405 118.862ZM-1.47962 134.579C-1.89272 135.272 -2.7873 135.499 -3.47996 135.089L-2.971 134.229C-2.75237 134.358 -2.46947 134.286 -2.33855 134.067L-1.47962 134.579ZM-3.46404 135.098C-4.19107 134.704 -4.39357 133.767 -3.99102 133.086L-3.13028 133.595C-3.26854 133.829 -3.17518 134.117 -2.98692 134.219L-3.46404 135.098ZM-3.99047 133.086C-1.54243 128.966 -0.432356 124.121 -0.78979 119.067L0.207717 118.996C0.57872 124.242 -0.572908 129.292 -3.13082 133.596L-3.99047 133.086ZM-0.789805 119.067C-0.991729 116.195 -1.67757 113.22 -2.35202 110.299L-1.37767 110.074C-0.706792 112.979 -0.000677737 116.033 0.207732 118.997L-0.789805 119.067ZM-2.35197 110.3C-2.68466 108.862 -3.02947 107.366 -3.31569 105.886L-2.33387 105.696C-2.05163 107.156 -1.71092 108.634 -1.37772 110.074L-2.35197 110.3ZM-3.31568 105.886C-5.42505 94.982 -4.42015 84.5568 -0.380916 75.7464L0.528104 76.1632C-3.41146 84.7561 -4.40983 94.9649 -2.33388 105.696L-3.31568 105.886ZM-0.38099 75.7466C3.96565 66.257 11.706 59.0572 21.4131 55.4784L21.759 56.4167C12.3042 59.9024 4.76514 66.9129 0.528176 76.163L-0.38099 75.7466ZM21.4131 55.4784C31.8782 51.6205 45.1834 51.8957 58.8715 56.1974L58.5716 57.1514C45.0319 52.8963 31.9622 52.6553 21.759 56.4167L21.4131 55.4784ZM58.8715 56.1974C66.1632 58.489 73.1149 63.133 78.9342 68.6157C84.7541 74.0991 89.4686 80.4471 92.2737 86.1817L91.3754 86.6211C88.63 81.0083 83.9926 74.7555 78.2484 69.3435C72.5036 63.9309 65.679 59.385 58.5716 57.1514L58.8715 56.1974ZM92.2736 86.1816C95.3617 92.4925 96.2575 99.8268 94.9661 107.959L93.9784 107.802C95.2435 99.8356 94.3576 92.7157 91.3754 86.6211L92.2736 86.1816ZM94.9661 107.959C94.1014 113.403 92.1001 118.688 89.8579 123.049C87.6194 127.403 85.1207 130.873 83.2351 132.672L82.5449 131.948C84.3202 130.255 86.7583 126.89 88.9685 122.592C91.175 118.301 93.1343 113.117 93.9784 107.802L94.9661 107.959ZM83.2351 132.672C76.29 139.298 66.0578 141.711 56.341 144.016L56.1103 143.043C65.896 140.722 75.8327 138.352 82.5449 131.948L83.2351 132.672ZM56.341 144.016C51.3571 145.198 46.3282 146.391 41.7585 148.14C37.1917 149.888 33.1196 152.179 30.0382 155.534L29.3017 154.858C32.5267 151.347 36.7551 148.985 41.401 147.206C46.0438 145.429 51.1396 144.222 56.1103 143.043L56.341 144.016ZM30.039 155.533C29.5565 156.061 28.7739 156.152 28.1901 155.787L28.7204 154.939C28.9031 155.053 29.1504 155.023 29.3009 154.859L30.039 155.533Z" fill="#BCC7BD" mask="url(#path-3-outside-2_1410_10039)"/>
<mask id="path-5-outside-3_1410_10039" maskUnits="userSpaceOnUse" x="-13.4211" y="66.1515" width="88.9432" height="94.3425" fill="black">
<rect fill="white" x="-13.4211" y="66.1515" width="88.9432" height="94.3425"/>
<path d="M52.5265 86.1725C52.2343 85.9898 51.6716 86.0798 51.2473 86.2254C48.2834 87.2392 45.8865 89.6227 43.7007 93.7286C42.1163 96.7024 41.1836 99.4618 40.89 102.066C43.7799 100.268 46.3921 98.1371 48.6949 95.7014C51.6739 92.547 52.9786 89.7647 52.8004 86.9457C52.7769 86.5712 52.7157 86.353 52.6057 86.2376L52.5265 86.1725ZM46.621 115.181C47.6729 115.921 48.8487 116.498 50.1329 116.835C53.0964 117.616 56.3989 117.087 59.9476 115.266C60.9325 114.76 61.7643 113.792 61.8382 113.063C61.8588 112.856 61.8355 112.577 61.4647 112.279C61.0181 111.924 60.3233 111.856 59.632 111.839C54.9054 111.715 50.2921 112.901 46.621 115.181ZM20.0904 85.6594C19.4406 85.253 18.7129 85.0777 18.186 85.2524C17.11 85.6056 17.0538 87.2652 17.0778 87.9621C17.2406 92.5639 20.0829 97.2422 22.6352 100.875C23.1652 97.2575 23.2004 93.4792 22.341 89.6433C22.0937 88.547 21.7324 87.2993 20.9161 86.3601C20.676 86.0834 20.3906 85.8471 20.0904 85.6594ZM19.2062 148.966L19.1966 148.96C18.7494 148.673 18.6208 148.08 18.9071 147.632L18.9916 147.501C23.9752 139.71 29.5047 131.767 35.4271 123.899C37.8935 120.619 40.3851 117.473 43.5058 115.023C41.1882 112.663 39.6568 109.617 39.1444 106.86C39.0549 106.371 38.9868 105.88 38.9394 105.384C38.2085 105.764 37.4618 106.123 36.7016 106.465C32.4513 108.378 28.9811 108.571 26.0961 107.058C25.2042 106.591 24.4254 105.975 23.7314 105.288C23.0821 107.967 22.2405 110.523 21.3735 112.922C17.9045 122.518 13.2964 131.665 7.67718 140.114C7.38542 140.556 6.77018 140.673 6.34628 140.381C5.90562 140.088 5.78479 139.492 6.07915 139.05C11.6107 130.731 16.1491 121.72 19.567 112.27C20.5569 109.533 21.5129 106.583 22.1669 103.492C21.8666 103.102 21.5825 102.711 21.3133 102.332C18.3738 98.1923 15.3436 93.2566 15.1585 88.03C15.0738 85.6404 15.9581 83.9635 17.5863 83.427C19.3637 82.8438 21.309 83.885 22.3638 85.0999C23.4623 86.3622 23.916 87.892 24.2145 89.2225C25.285 93.9922 25.0623 98.635 24.2279 102.995C25.0221 103.945 25.9163 104.795 26.9871 105.356C29.317 106.578 32.2365 106.367 35.9154 104.714C36.9294 104.258 37.9162 103.766 38.8775 103.241C38.9895 99.9798 40.0242 96.5423 42.0045 92.8254C43.5324 89.9562 46.0902 85.9587 50.6265 84.409C52.0057 83.9367 53.2311 84.1189 53.9892 84.9062C54.5711 85.51 54.6827 86.2905 54.7171 86.8251C54.9993 91.275 52.2122 94.776 50.0909 97.0208C47.3841 99.8857 44.2694 102.345 40.7991 104.363C40.8244 105.09 40.9043 105.804 41.034 106.509C41.5006 109.02 42.9219 111.801 45.0723 113.892L45.4898 113.623C49.4946 111.101 54.534 109.783 59.6827 109.918C60.66 109.943 61.7802 110.066 62.6695 110.782C63.463 111.421 63.8459 112.3 63.7484 113.258C63.5841 114.864 62.1177 116.31 60.825 116.974C56.8429 119.019 53.0804 119.598 49.6425 118.692C47.9012 118.233 46.3287 117.399 44.9608 116.326C41.9083 118.639 39.5098 121.668 36.9614 125.054C31.0697 132.883 25.5663 140.785 20.6082 148.539L20.5227 148.672C20.2394 149.114 19.6516 149.244 19.2062 148.966Z"/>
</mask>
<path d="M52.5265 86.1725C52.2343 85.9898 51.6716 86.0798 51.2473 86.2254C48.2834 87.2392 45.8865 89.6227 43.7007 93.7286C42.1163 96.7024 41.1836 99.4618 40.89 102.066C43.7799 100.268 46.3921 98.1371 48.6949 95.7014C51.6739 92.547 52.9786 89.7647 52.8004 86.9457C52.7769 86.5712 52.7157 86.353 52.6057 86.2376L52.5265 86.1725ZM46.621 115.181C47.6729 115.921 48.8487 116.498 50.1329 116.835C53.0964 117.616 56.3989 117.087 59.9476 115.266C60.9325 114.76 61.7643 113.792 61.8382 113.063C61.8588 112.856 61.8355 112.577 61.4647 112.279C61.0181 111.924 60.3233 111.856 59.632 111.839C54.9054 111.715 50.2921 112.901 46.621 115.181ZM20.0904 85.6594C19.4406 85.253 18.7129 85.0777 18.186 85.2524C17.11 85.6056 17.0538 87.2652 17.0778 87.9621C17.2406 92.5639 20.0829 97.2422 22.6352 100.875C23.1652 97.2575 23.2004 93.4792 22.341 89.6433C22.0937 88.547 21.7324 87.2993 20.9161 86.3601C20.676 86.0834 20.3906 85.8471 20.0904 85.6594ZM19.2062 148.966L19.1966 148.96C18.7494 148.673 18.6208 148.08 18.9071 147.632L18.9916 147.501C23.9752 139.71 29.5047 131.767 35.4271 123.899C37.8935 120.619 40.3851 117.473 43.5058 115.023C41.1882 112.663 39.6568 109.617 39.1444 106.86C39.0549 106.371 38.9868 105.88 38.9394 105.384C38.2085 105.764 37.4618 106.123 36.7016 106.465C32.4513 108.378 28.9811 108.571 26.0961 107.058C25.2042 106.591 24.4254 105.975 23.7314 105.288C23.0821 107.967 22.2405 110.523 21.3735 112.922C17.9045 122.518 13.2964 131.665 7.67718 140.114C7.38542 140.556 6.77018 140.673 6.34628 140.381C5.90562 140.088 5.78479 139.492 6.07915 139.05C11.6107 130.731 16.1491 121.72 19.567 112.27C20.5569 109.533 21.5129 106.583 22.1669 103.492C21.8666 103.102 21.5825 102.711 21.3133 102.332C18.3738 98.1923 15.3436 93.2566 15.1585 88.03C15.0738 85.6404 15.9581 83.9635 17.5863 83.427C19.3637 82.8438 21.309 83.885 22.3638 85.0999C23.4623 86.3622 23.916 87.892 24.2145 89.2225C25.285 93.9922 25.0623 98.635 24.2279 102.995C25.0221 103.945 25.9163 104.795 26.9871 105.356C29.317 106.578 32.2365 106.367 35.9154 104.714C36.9294 104.258 37.9162 103.766 38.8775 103.241C38.9895 99.9798 40.0242 96.5423 42.0045 92.8254C43.5324 89.9562 46.0902 85.9587 50.6265 84.409C52.0057 83.9367 53.2311 84.1189 53.9892 84.9062C54.5711 85.51 54.6827 86.2905 54.7171 86.8251C54.9993 91.275 52.2122 94.776 50.0909 97.0208C47.3841 99.8857 44.2694 102.345 40.7991 104.363C40.8244 105.09 40.9043 105.804 41.034 106.509C41.5006 109.02 42.9219 111.801 45.0723 113.892L45.4898 113.623C49.4946 111.101 54.534 109.783 59.6827 109.918C60.66 109.943 61.7802 110.066 62.6695 110.782C63.463 111.421 63.8459 112.3 63.7484 113.258C63.5841 114.864 62.1177 116.31 60.825 116.974C56.8429 119.019 53.0804 119.598 49.6425 118.692C47.9012 118.233 46.3287 117.399 44.9608 116.326C41.9083 118.639 39.5098 121.668 36.9614 125.054C31.0697 132.883 25.5663 140.785 20.6082 148.539L20.5227 148.672C20.2394 149.114 19.6516 149.244 19.2062 148.966Z" fill="#BCC7BD"/>
<path d="M52.5265 86.1725L52.7916 85.7486L52.819 85.7657L52.8439 85.7862L52.5265 86.1725ZM51.2473 86.2254L51.4097 86.6984L51.4092 86.6985L51.2473 86.2254ZM43.7007 93.7286L44.1421 93.9635L44.142 93.9637L43.7007 93.7286ZM40.89 102.066L41.1541 102.49L40.2775 103.035L40.3931 102.01L40.89 102.066ZM48.6949 95.7014L49.0585 96.0447L49.0582 96.0449L48.6949 95.7014ZM52.8004 86.9457L52.3013 86.9772L52.3013 86.9769L52.8004 86.9457ZM52.6057 86.2376L52.9232 85.8513L52.9467 85.8706L52.9677 85.8927L52.6057 86.2376ZM46.621 115.181L46.3333 115.59L45.715 115.155L46.3572 114.756L46.621 115.181ZM50.1329 116.835L50.2597 116.351L50.2603 116.352L50.1329 116.835ZM59.9476 115.266L60.176 115.711L60.1759 115.711L59.9476 115.266ZM61.8382 113.063L62.3357 113.113L62.3357 113.114L61.8382 113.063ZM61.4647 112.279L61.7758 111.887L61.7783 111.889L61.4647 112.279ZM59.632 111.839L59.6197 112.339L59.6189 112.339L59.632 111.839ZM18.186 85.2524L18.3434 85.727L18.342 85.7275L18.186 85.2524ZM17.0778 87.9621L16.5781 87.9798L16.5781 87.9793L17.0778 87.9621ZM22.6352 100.875L23.1299 100.948L22.9478 102.19L22.226 101.163L22.6352 100.875ZM22.341 89.6433L22.8287 89.5334L22.8289 89.534L22.341 89.6433ZM20.9161 86.3601L20.5387 86.6881L20.5384 86.6877L20.9161 86.3601ZM19.1966 148.96L18.9315 149.384L18.927 149.381L19.1966 148.96ZM18.9071 147.632L18.4861 147.363L18.4865 147.362L18.9071 147.632ZM18.9916 147.501L19.4128 147.77L19.4123 147.771L18.9916 147.501ZM35.4271 123.899L35.8267 124.199L35.8266 124.199L35.4271 123.899ZM43.5058 115.023L43.8626 114.672L44.254 115.071L43.8146 115.416L43.5058 115.023ZM39.1444 106.86L38.6528 106.951L38.6525 106.95L39.1444 106.86ZM38.9394 105.384L38.7087 104.94L39.3666 104.598L39.4372 105.336L38.9394 105.384ZM36.7016 106.465L36.4964 106.009L36.4965 106.009L36.7016 106.465ZM26.0961 107.058L26.3279 106.615L26.3284 106.615L26.0961 107.058ZM23.7314 105.288L23.2455 105.17L23.454 104.309L24.0832 104.932L23.7314 105.288ZM21.3735 112.922L21.8437 113.092L21.8437 113.092L21.3735 112.922ZM7.67718 140.114L7.25999 139.838L7.26086 139.837L7.67718 140.114ZM6.34628 140.381L6.62339 139.965L6.62976 139.969L6.34628 140.381ZM6.07915 139.05L6.49551 139.327L6.49538 139.327L6.07915 139.05ZM19.567 112.27L20.0372 112.44L20.0372 112.44L19.567 112.27ZM22.1669 103.492L22.5631 103.187L22.7039 103.37L22.6561 103.595L22.1669 103.492ZM21.3133 102.332L21.721 102.042L21.7211 102.042L21.3133 102.332ZM15.1585 88.03L15.6582 88.0123L15.6582 88.0123L15.1585 88.03ZM17.5863 83.427L17.4299 82.9521L17.4305 82.9519L17.5863 83.427ZM22.3638 85.0999L21.9867 85.4282L21.9863 85.4277L22.3638 85.0999ZM24.2145 89.2225L23.7266 89.332L23.7266 89.3319L24.2145 89.2225ZM24.2279 102.995L23.8443 103.316L23.6922 103.134L23.7368 102.901L24.2279 102.995ZM26.9871 105.356L27.2191 104.913L27.2193 104.913L26.9871 105.356ZM35.9154 104.714L36.1207 105.17L36.1203 105.17L35.9154 104.714ZM38.8775 103.241L39.3772 103.259L39.3675 103.544L39.1172 103.68L38.8775 103.241ZM42.0045 92.8254L42.4458 93.0605L42.4458 93.0605L42.0045 92.8254ZM50.6265 84.409L50.7885 84.882L50.7881 84.8821L50.6265 84.409ZM53.9892 84.9062L53.6292 85.2531L53.629 85.253L53.9892 84.9062ZM54.7171 86.8251L55.2161 86.793L55.2161 86.7934L54.7171 86.8251ZM50.0909 97.0208L49.7274 96.6775L49.7275 96.6774L50.0909 97.0208ZM40.7991 104.363L40.2994 104.381L40.289 104.082L40.5477 103.931L40.7991 104.363ZM41.034 106.509L40.5424 106.601L40.5423 106.6L41.034 106.509ZM45.0723 113.892L45.3437 114.312L45.0093 114.528L44.7238 114.251L45.0723 113.892ZM45.4898 113.623L45.2184 113.203L45.2234 113.199L45.4898 113.623ZM59.6827 109.918L59.67 110.418L59.6696 110.418L59.6827 109.918ZM62.6695 110.782L62.356 111.172L62.3559 111.172L62.6695 110.782ZM63.7484 113.258L64.2459 113.309L64.2458 113.309L63.7484 113.258ZM60.825 116.974L61.0535 117.419L61.0535 117.419L60.825 116.974ZM49.6425 118.692L49.7698 118.208L49.77 118.208L49.6425 118.692ZM44.9608 116.326L44.6588 115.927L44.9661 115.694L45.2695 115.932L44.9608 116.326ZM36.9614 125.054L36.5619 124.753L36.5619 124.753L36.9614 125.054ZM20.6082 148.539L21.0294 148.808L21.0289 148.809L20.6082 148.539ZM20.5227 148.672L20.1017 148.402L20.102 148.402L20.5227 148.672ZM52.2614 86.5964C52.2633 86.5976 52.2445 86.586 52.1893 86.5777C52.1356 86.5697 52.0638 86.5675 51.9751 86.5743C51.7966 86.5882 51.592 86.6358 51.4097 86.6984L51.085 85.7525C51.3269 85.6695 51.6158 85.5992 51.8977 85.5773C52.1607 85.5569 52.5075 85.5709 52.7916 85.7486L52.2614 86.5964ZM51.4092 86.6985C48.6123 87.6552 46.2967 89.9163 44.1421 93.9635L43.2594 93.4936C45.4763 89.3292 47.9545 86.8233 51.0855 85.7523L51.4092 86.6985ZM44.142 93.9637C42.579 96.8974 41.6716 99.5959 41.3868 102.122L40.3931 102.01C40.6955 99.3277 41.6537 96.5073 43.2595 93.4935L44.142 93.9637ZM40.6259 101.641C43.4799 99.866 46.0586 97.762 48.3316 95.3579L49.0582 96.0449C46.7256 98.5121 44.08 100.67 41.1541 102.49L40.6259 101.641ZM48.3314 95.3581C51.2657 92.251 52.4671 89.5985 52.3013 86.9772L53.2994 86.9141C53.4901 89.9308 52.0821 92.843 49.0585 96.0447L48.3314 95.3581ZM52.3013 86.9769C52.2907 86.8067 52.2726 86.6967 52.2535 86.6276C52.2343 86.5579 52.222 86.5598 52.2437 86.5825L52.9677 85.8927C53.0993 86.0308 53.1727 86.1995 53.2174 86.3613C53.2623 86.5238 53.2866 86.7102 53.2994 86.9144L52.3013 86.9769ZM52.2882 86.6239L52.209 86.5588L52.8439 85.7862L52.9232 85.8513L52.2882 86.6239ZM46.9087 114.772C47.9174 115.481 49.0393 116.031 50.2597 116.351L50.0061 117.319C48.6581 116.965 47.4285 116.36 46.3333 115.59L46.9087 114.772ZM50.2603 116.352C53.072 117.092 56.2463 116.603 59.7193 114.821L60.1759 115.711C56.5515 117.57 53.1207 118.139 50.0056 117.319L50.2603 116.352ZM59.7192 114.821C60.1514 114.599 60.555 114.272 60.8552 113.923C61.1648 113.562 61.3185 113.232 61.3407 113.013L62.3357 113.114C62.284 113.624 61.9848 114.142 61.6139 114.574C61.2334 115.017 60.7286 115.427 60.176 115.711L59.7192 114.821ZM61.3407 113.014C61.3467 112.953 61.3431 112.916 61.3298 112.88C61.3169 112.846 61.2794 112.772 61.1512 112.668L61.7783 111.889C62.0209 112.085 62.1804 112.299 62.2667 112.531C62.3526 112.761 62.3503 112.966 62.3357 113.113L61.3407 113.014ZM61.1537 112.67C61.0155 112.561 60.8152 112.477 60.5416 112.422C60.2691 112.368 59.9573 112.347 59.6197 112.339L59.6443 111.339C59.9979 111.348 60.3792 111.37 60.7386 111.442C61.0969 111.514 61.4673 111.642 61.7757 111.887L61.1537 112.67ZM59.6189 112.339C54.9805 112.217 50.4653 113.382 46.8847 115.605L46.3572 114.756C50.119 112.42 54.8303 111.213 59.6451 111.339L59.6189 112.339ZM19.8253 86.0833C19.234 85.7135 18.6674 85.6195 18.3434 85.727L18.0286 84.7778C18.7583 84.5359 19.6472 84.7925 20.3556 85.2354L19.8253 86.0833ZM18.342 85.7275C18.0474 85.8242 17.8332 86.1168 17.7026 86.6071C17.5758 87.0827 17.5661 87.6143 17.5775 87.9449L16.5781 87.9793C16.5655 87.613 16.5719 86.9663 16.7363 86.3496C16.8967 85.7477 17.2486 85.0339 18.0301 84.7774L18.342 85.7275ZM17.5775 87.9444C17.7345 92.3824 20.4893 96.9509 23.0443 100.588L22.226 101.163C19.6765 97.5336 16.7467 92.7453 16.5781 87.9798L17.5775 87.9444ZM22.1404 100.803C22.6637 97.2312 22.6963 93.5162 21.853 89.7527L22.8289 89.534C23.7045 93.4422 23.6667 97.2838 23.1299 100.948L22.1404 100.803ZM21.8532 89.7533C21.6075 88.6638 21.2666 87.5256 20.5387 86.6881L21.2934 86.0321C22.1982 87.0731 22.58 88.4302 22.8287 89.5334L21.8532 89.7533ZM20.5384 86.6877C20.3338 86.452 20.0874 86.2472 19.8253 86.0833L20.3556 85.2354C20.6937 85.447 21.0182 85.7147 21.2938 86.0324L20.5384 86.6877ZM18.9411 149.389L18.9315 149.383L19.4617 148.536L19.4713 148.542L18.9411 149.389ZM18.927 149.381C18.246 148.945 18.0516 148.041 18.4861 147.363L19.3282 147.902C19.19 148.118 19.2528 148.402 19.4662 148.538L18.927 149.381ZM18.4865 147.362L18.5709 147.231L19.4123 147.771L19.3278 147.903L18.4865 147.362ZM18.5704 147.231C23.5613 139.429 29.098 131.476 35.0276 123.598L35.8266 124.199C29.9113 132.058 24.3892 139.991 19.4128 147.77L18.5704 147.231ZM35.0275 123.598C37.4938 120.319 40.0196 117.125 43.197 114.629L43.8146 115.416C40.7507 117.822 38.2931 120.92 35.8267 124.199L35.0275 123.598ZM43.1491 115.373C40.7637 112.944 39.1839 109.809 38.6528 106.951L39.6359 106.769C40.1297 109.425 41.6127 112.381 43.8626 114.672L43.1491 115.373ZM38.6525 106.95C38.5604 106.447 38.4904 105.941 38.4417 105.431L39.4372 105.336C39.4832 105.818 39.5493 106.295 39.6362 106.77L38.6525 106.95ZM39.1702 105.827C38.43 106.212 37.6747 106.576 36.9067 106.921L36.4965 106.009C37.249 105.671 37.987 105.315 38.7087 104.94L39.1702 105.827ZM36.9068 106.921C32.5795 108.869 28.9362 109.112 25.8639 107.5L26.3284 106.615C29.026 108.03 32.3231 107.887 36.4964 106.009L36.9068 106.921ZM25.8643 107.501C24.9182 107.005 24.1 106.356 23.3796 105.643L24.0832 104.932C24.7509 105.594 25.4902 106.176 26.3279 106.615L25.8643 107.501ZM24.2173 105.406C23.5621 108.109 22.714 110.685 21.8437 113.092L20.9033 112.752C21.7671 110.362 22.6021 107.824 23.2455 105.17L24.2173 105.406ZM21.8437 113.092C18.3611 122.725 13.735 131.909 8.09351 140.391L7.26086 139.837C12.8577 131.422 17.4478 122.31 20.9033 112.752L21.8437 113.092ZM8.09437 140.39C7.64985 141.062 6.71947 141.245 6.0628 140.793L6.62976 139.969C6.82089 140.101 7.12099 140.049 7.25999 139.838L8.09437 140.39ZM6.0692 140.797C5.3992 140.351 5.21522 139.446 5.66291 138.773L6.49538 139.327C6.35436 139.539 6.41203 139.824 6.62336 139.965L6.0692 140.797ZM5.66279 138.773C11.172 130.488 15.6924 121.512 19.0968 112.1L20.0372 112.44C16.6058 121.927 12.0493 130.974 6.49551 139.327L5.66279 138.773ZM19.0968 112.1C20.0831 109.373 21.0305 106.448 21.6778 103.388L22.6561 103.595C21.9953 106.719 21.0307 109.693 20.0372 112.44L19.0968 112.1ZM21.7708 103.797C21.4651 103.4 21.1769 103.004 20.9055 102.621L21.7211 102.042C21.9881 102.419 22.2681 102.804 22.5631 103.187L21.7708 103.797ZM20.9056 102.621C17.9669 98.4829 14.8498 93.4381 14.6588 88.0477L15.6582 88.0123C15.8375 93.0751 18.7807 97.9017 21.721 102.042L20.9056 102.621ZM14.6588 88.0477C14.5701 85.5466 15.5011 83.5876 17.4299 82.9521L17.7428 83.9019C16.4151 84.3393 15.5774 85.7342 15.6582 88.0123L14.6588 88.0477ZM17.4305 82.9519C18.4589 82.6145 19.5138 82.7543 20.4332 83.1255C21.351 83.496 22.1651 84.1084 22.7414 84.7721L21.9863 85.4277C21.5077 84.8765 20.8218 84.3608 20.0588 84.0528C19.2975 83.7454 18.4911 83.6563 17.7422 83.9021L17.4305 82.9519ZM22.741 84.7717C23.9248 86.1319 24.3999 87.7648 24.7024 89.113L23.7266 89.3319C23.4321 88.0191 22.9999 86.5925 21.9867 85.4282L22.741 84.7717ZM24.7023 89.113C25.7917 93.9665 25.5626 98.681 24.719 103.089L23.7368 102.901C24.5621 98.5889 24.7784 94.0179 23.7266 89.332L24.7023 89.113ZM24.6115 102.674C25.3842 103.599 26.2292 104.395 27.2191 104.913L26.7551 105.799C25.6034 105.196 24.66 104.291 23.8443 103.316L24.6115 102.674ZM27.2193 104.913C29.3533 106.032 32.0953 105.882 35.7106 104.258L36.1203 105.17C32.3776 106.851 29.2807 107.123 26.7549 105.799L27.2193 104.913ZM35.7102 104.258C36.7125 103.807 37.6878 103.321 38.6379 102.803L39.1172 103.68C38.1447 104.211 37.1464 104.708 36.1207 105.17L35.7102 104.258ZM38.3778 103.224C38.493 99.8673 39.5574 96.3552 41.5632 92.5903L42.4458 93.0605C40.4911 96.7294 39.4859 100.092 39.3772 103.259L38.3778 103.224ZM41.5632 92.5904C43.0988 89.7067 45.734 85.552 50.4648 83.9358L50.7881 84.8821C46.4464 86.3654 43.966 90.2057 42.4458 93.0605L41.5632 92.5904ZM50.4645 83.936C51.9554 83.4254 53.4106 83.5845 54.3494 84.5594L53.629 85.253C53.0516 84.6533 52.056 84.448 50.7885 84.882L50.4645 83.936ZM54.3492 84.5592C55.0606 85.2973 55.1801 86.2335 55.2161 86.793L54.2181 86.8572C54.1853 86.3475 54.0816 85.7226 53.6292 85.2531L54.3492 84.5592ZM55.2161 86.7934C55.5127 91.471 52.5839 95.1106 50.4543 97.3643L49.7275 96.6774C51.8405 94.4413 54.4858 91.0789 54.2181 86.8567L55.2161 86.7934ZM50.4543 97.3642C47.7138 100.265 44.5612 102.753 41.0505 104.795L40.5477 103.931C43.9776 101.936 47.0543 99.5067 49.7274 96.6775L50.4543 97.3642ZM41.2988 104.346C41.3233 105.047 41.4003 105.737 41.5258 106.419L40.5423 106.6C40.4082 105.871 40.3256 105.133 40.2994 104.381L41.2988 104.346ZM41.5256 106.418C41.9731 108.826 43.3439 111.514 45.4209 113.534L44.7238 114.251C42.4999 112.088 41.0281 109.214 40.5424 106.601L41.5256 106.418ZM44.801 113.472L45.2184 113.203L45.7612 114.042L45.3437 114.312L44.801 113.472ZM45.2234 113.199C49.3189 110.62 54.4573 109.281 59.6957 109.418L59.6696 110.418C54.6108 110.286 49.6702 111.581 45.7562 114.046L45.2234 113.199ZM59.6954 109.418C60.6871 109.444 61.9558 109.566 62.9831 110.393L62.3559 111.172C61.6046 110.567 60.6328 110.443 59.67 110.418L59.6954 109.418ZM62.9829 110.393C63.8993 111.13 64.3616 112.171 64.2459 113.309L63.251 113.208C63.3302 112.429 63.0266 111.711 62.356 111.172L62.9829 110.393ZM64.2458 113.309C64.1501 114.244 63.681 115.099 63.0908 115.793C62.4987 116.489 61.7568 117.057 61.0535 117.419L60.5965 116.529C61.1859 116.226 61.8236 115.74 62.329 115.145C62.8362 114.549 63.1824 113.878 63.251 113.208L64.2458 113.309ZM61.0535 117.419C56.9912 119.505 53.101 120.12 49.5151 119.175L49.77 118.208C53.0598 119.075 56.6947 118.533 60.5966 116.529L61.0535 117.419ZM49.5153 119.175C47.7005 118.698 46.0673 117.829 44.6522 116.719L45.2695 115.932C46.5901 116.968 48.1019 117.769 49.7698 118.208L49.5153 119.175ZM45.2628 116.724C42.2723 118.991 39.9108 121.967 37.3609 125.354L36.5619 124.753C39.1089 121.369 41.5443 118.287 44.6588 115.927L45.2628 116.724ZM37.3609 125.354C31.4763 133.175 25.9802 141.066 21.0294 148.808L20.187 148.269C25.1523 140.504 30.6631 132.592 36.5619 124.753L37.3609 125.354ZM21.0289 148.809L20.9435 148.942L20.102 148.402L20.1875 148.268L21.0289 148.809ZM20.9438 148.941C20.5115 149.616 19.6172 149.812 18.9411 149.389L19.4713 148.542C19.6861 148.676 19.9672 148.612 20.1017 148.402L20.9438 148.941Z" fill="#BCC7BD" mask="url(#path-5-outside-3_1410_10039)"/>
<mask id="path-7-outside-4_1410_10039" maskUnits="userSpaceOnUse" x="107.399" y="92.1558" width="20.246" height="18.3404" fill="black">
<rect fill="white" x="107.399" y="92.1558" width="20.246" height="18.3404"/>
<path d="M109.592 101.674C109.296 101.489 109.113 101.15 109.145 100.779C109.187 100.261 109.634 99.8725 110.154 99.9018L123.82 100.648C125.074 100.717 125.545 101.292 125.721 101.764C125.852 102.121 125.796 102.506 125.569 102.795C125.019 103.497 124.985 103.54 109.99 101.814L109.592 101.674Z"/>
</mask>
<path d="M109.592 101.674C109.296 101.489 109.113 101.15 109.145 100.779C109.187 100.261 109.634 99.8725 110.154 99.9018L123.82 100.648C125.074 100.717 125.545 101.292 125.721 101.764C125.852 102.121 125.796 102.506 125.569 102.795C125.019 103.497 124.985 103.54 109.99 101.814L109.592 101.674Z" fill="#BCC7BD"/>
<path d="M109.145 100.779L109.643 100.82L109.643 100.822L109.145 100.779ZM110.154 99.9018L110.126 100.401L110.125 100.401L110.154 99.9018ZM123.82 100.648L123.847 100.149L123.847 100.149L123.82 100.648ZM125.721 101.764L126.189 101.589L126.19 101.591L125.721 101.764ZM125.569 102.795L125.175 102.486L125.176 102.486L125.569 102.795ZM109.99 101.814L109.933 102.311L109.877 102.305L109.824 102.286L109.99 101.814ZM109.327 102.098C108.878 101.817 108.598 101.301 108.647 100.736L109.643 100.822C109.628 100.999 109.714 101.161 109.857 101.25L109.327 102.098ZM108.647 100.739C108.71 99.9494 109.393 99.3581 110.182 99.4026L110.125 100.401C109.876 100.387 109.663 100.573 109.643 100.82L108.647 100.739ZM110.181 99.4026L123.847 100.149L123.792 101.147L110.126 100.401L110.181 99.4026ZM123.847 100.149C124.547 100.187 125.075 100.37 125.465 100.648C125.856 100.926 126.073 101.276 126.189 101.589L125.252 101.938C125.193 101.78 125.087 101.606 124.884 101.462C124.681 101.317 124.346 101.178 123.792 101.147L123.847 100.149ZM126.19 101.591C126.379 102.104 126.302 102.672 125.962 103.104L125.176 102.486C125.291 102.34 125.326 102.139 125.252 101.936L126.19 101.591ZM125.963 103.103C125.9 103.184 125.803 103.31 125.665 103.419C125.517 103.535 125.343 103.615 125.128 103.667C124.732 103.762 124.137 103.773 123.166 103.714C121.197 103.596 117.422 103.173 109.933 102.311L110.047 101.318C117.554 102.182 121.292 102.6 123.226 102.716C124.207 102.775 124.661 102.751 124.894 102.694C124.994 102.67 125.031 102.645 125.048 102.632C125.076 102.61 125.101 102.582 125.175 102.486L125.963 103.103ZM109.824 102.286L109.426 102.145L109.758 101.202L110.156 101.343L109.824 102.286Z" fill="#BCC7BD" mask="url(#path-7-outside-4_1410_10039)"/>
<mask id="path-9-outside-5_1410_10039" maskUnits="userSpaceOnUse" x="49.4657" y="24.8891" width="17.4926" height="19.7158" fill="black">
<rect fill="white" x="49.4657" y="24.8891" width="17.4926" height="19.7158"/>
<path d="M56.6188 42.5965C56.3106 42.4038 56.125 42.0435 56.1745 41.659L57.9514 27.7867C58.0186 27.2601 58.5 26.8882 59.0256 26.957C59.5505 27.0232 59.9251 27.504 59.8578 28.0306L58.0809 41.9029C58.0137 42.4295 57.5323 42.8014 57.0057 42.7342L56.6188 42.5965Z"/>
</mask>
<path d="M56.6188 42.5965C56.3106 42.4038 56.125 42.0435 56.1745 41.659L57.9514 27.7867C58.0186 27.2601 58.5 26.8882 59.0256 26.957C59.5505 27.0232 59.9251 27.504 59.8578 28.0306L58.0809 41.9029C58.0137 42.4295 57.5323 42.8014 57.0057 42.7342L56.6188 42.5965Z" fill="#BCC7BD"/>
<path d="M56.1745 41.659L56.6704 41.7225L56.6704 41.7228L56.1745 41.659ZM57.9514 27.7867L58.4474 27.85L58.4473 27.8502L57.9514 27.7867ZM59.0256 26.957L58.963 27.4531L58.9606 27.4528L59.0256 26.957ZM59.8578 28.0306L60.3538 28.0939L60.3538 28.0941L59.8578 28.0306ZM58.0809 41.9029L57.5849 41.8396L57.585 41.8394L58.0809 41.9029ZM57.0057 42.7342L56.9424 43.2302L56.889 43.2233L56.8382 43.2053L57.0057 42.7342ZM56.3536 43.0205C55.8865 42.7283 55.6032 42.181 55.6785 41.5953L56.6704 41.7228C56.6468 41.9059 56.7347 42.0793 56.8839 42.1726L56.3536 43.0205ZM55.6785 41.5955L57.4554 27.7232L58.4473 27.8502L56.6704 41.7225L55.6785 41.5955ZM57.4554 27.7234C57.5576 26.9231 58.2896 26.3564 59.0905 26.4612L58.9606 27.4528C58.7104 27.42 58.4797 27.5971 58.4474 27.85L57.4554 27.7234ZM59.0881 26.4609C59.8864 26.5616 60.4562 27.2922 60.3538 28.0939L59.3619 27.9673C59.394 27.7159 59.2147 27.4848 58.963 27.4531L59.0881 26.4609ZM60.3538 28.0941L58.5769 41.9664L57.585 41.8394L59.3619 27.967L60.3538 28.0941ZM58.5769 41.9662C58.4747 42.767 57.7426 43.3323 56.9424 43.2302L57.0691 42.2382C57.322 42.2705 57.5527 42.0919 57.5849 41.8396L58.5769 41.9662ZM56.8382 43.2053L56.4512 43.0676L56.7863 42.1254L57.1733 42.2631L56.8382 43.2053Z" fill="#BCC7BD" mask="url(#path-9-outside-5_1410_10039)"/>
<mask id="path-11-outside-6_1410_10039" maskUnits="userSpaceOnUse" x="-5.90543" y="32.1722" width="18.9729" height="15.4793" fill="black">
<rect fill="white" x="-5.90543" y="32.1722" width="18.9729" height="15.4793"/>
<path d="M8.2247 45.7647L8.07503 45.6488L-1.68867 36.4464C-1.94491 36.2062 -2.71862 35.4758 -2.44987 34.5489C-2.34018 34.171 -2.05207 33.8914 -1.67737 33.8037C-0.895821 33.6195 -0.460811 33.5206 9.44079 44.2996C9.791 44.6808 9.77627 45.2691 9.40907 45.6325C9.08601 45.9502 8.59511 45.9963 8.2247 45.7647Z"/>
</mask>
<path d="M8.2247 45.7647L8.07503 45.6488L-1.68867 36.4464C-1.94491 36.2062 -2.71862 35.4758 -2.44987 34.5489C-2.34018 34.171 -2.05207 33.8914 -1.67737 33.8037C-0.895821 33.6195 -0.460811 33.5206 9.44079 44.2996C9.791 44.6808 9.77627 45.2691 9.40907 45.6325C9.08601 45.9502 8.59511 45.9963 8.2247 45.7647Z" fill="#BCC7BD"/>
<path d="M8.07503 45.6488L7.769 46.0442L7.74978 46.0294L7.73209 46.0127L8.07503 45.6488ZM-1.68867 36.4464L-1.34671 36.0816L-1.34573 36.0825L-1.68867 36.4464ZM-2.44987 34.5489L-2.9301 34.4096L-2.93005 34.4095L-2.44987 34.5489ZM-1.67737 33.8037L-1.56265 34.2904L-1.56339 34.2905L-1.67737 33.8037ZM9.44079 44.2996L9.0726 44.6379L9.07256 44.6379L9.44079 44.2996ZM9.40907 45.6325L9.76078 45.9879L9.75965 45.989L9.40907 45.6325ZM7.91867 46.1601L7.769 46.0442L8.38105 45.2534L8.53072 45.3692L7.91867 46.1601ZM7.73209 46.0127L-2.03161 36.8103L-1.34573 36.0825L8.41797 45.285L7.73209 46.0127ZM-2.03063 36.8112C-2.1609 36.6891 -2.46625 36.4039 -2.69789 36.0073C-2.93297 35.6048 -3.11488 35.047 -2.9301 34.4096L-1.96965 34.6881C-2.05361 34.9777 -1.98304 35.2485 -1.83439 35.503C-1.6823 35.7634 -1.47268 35.9635 -1.34671 36.0816L-2.03063 36.8112ZM-2.93005 34.4095C-2.77197 33.865 -2.34869 33.4473 -1.79134 33.3169L-1.56339 34.2905C-1.75545 34.3355 -1.90839 34.4771 -1.9697 34.6883L-2.93005 34.4095ZM-1.79208 33.317C-1.70011 33.2954 -1.55228 33.2585 -1.37798 33.2597C-1.1944 33.261 -1.00788 33.3025 -0.802904 33.3919C-0.417414 33.5601 0.0710166 33.9162 0.796159 34.5688C2.26119 35.8872 4.86165 38.5756 9.80901 43.9614L9.07256 44.6379C4.11832 39.2446 1.55049 36.5929 0.127222 35.3121C-0.591781 34.6651 -0.977492 34.4068 -1.2028 34.3085C-1.30322 34.2646 -1.35626 34.2599 -1.38475 34.2597C-1.42251 34.2594 -1.45923 34.266 -1.56265 34.2904L-1.79208 33.317ZM9.80897 43.9613C10.3414 44.5408 10.3188 45.4356 9.76078 45.9879L9.05736 45.2771C9.23369 45.1026 9.2406 44.8208 9.0726 44.6379L9.80897 43.9613ZM9.75965 45.989C9.26982 46.4707 8.52393 46.5415 7.95957 46.1886L8.48982 45.3407C8.6663 45.4511 8.90219 45.4297 9.0585 45.276L9.75965 45.989Z" fill="#BCC7BD" mask="url(#path-11-outside-6_1410_10039)"/>
<path d="M90.6861 63.9095L90.6657 63.8967L90.6481 63.8803L90.3816 63.6315L90.3645 63.6155L90.3507 63.5966C89.9558 63.0581 90.0745 62.3007 90.612 61.9066L90.6123 61.9064L101.074 54.2562L101.074 54.2559C101.614 53.8629 102.369 53.98 102.765 54.5184L102.765 54.5191C103.16 55.0596 103.043 55.8173 102.502 56.2108L92.0428 63.8585C92.0427 63.8586 92.0425 63.8587 92.0424 63.8588C91.6306 64.1624 91.0918 64.1632 90.6861 63.9095Z" fill="#BCC7BD" stroke="#BCC7BD" stroke-width="0.5"/>
<path d="M99.3838 150.301L99.3642 150.288L99.3473 150.273L99.0891 150.036L99.0722 150.02L99.0585 150.002L90.5104 138.662C90.5103 138.662 90.5103 138.662 90.5102 138.662C90.1067 138.129 90.2126 137.369 90.7469 136.967C91.2813 136.565 92.0394 136.673 92.4423 137.204L92.4427 137.205L100.991 148.546L100.991 148.546C101.393 149.08 101.288 149.839 100.753 150.242L100.753 150.242C100.34 150.552 99.7957 150.558 99.3838 150.301Z" fill="#BCC7BD" stroke="#BCC7BD" stroke-width="0.5"/>
<mask id="path-15-outside-7_1410_10039" maskUnits="userSpaceOnUse" x="-2.55244" y="143.809" width="11.2825" height="11.2825" fill="black">
<rect fill="white" x="-2.55244" y="143.809" width="11.2825" height="11.2825"/>
<path d="M6.73371 146.926L6.53744 146.938C3.83366 148.094 1.22721 149.616 -1.21218 151.466L-1.33091 151.973L-0.895553 152.06C1.49804 150.246 4.05604 148.749 6.71004 147.616L6.92884 147.146L6.73371 146.926Z"/>
</mask>
<path d="M6.73371 146.926L6.53744 146.938C3.83366 148.094 1.22721 149.616 -1.21218 151.466L-1.33091 151.973L-0.895553 152.06C1.49804 150.246 4.05604 148.749 6.71004 147.616L6.92884 147.146L6.73371 146.926Z" fill="#BCC7BD"/>
<path d="M6.53744 146.938L6.50938 146.438L6.42163 146.443L6.34082 146.478L6.53744 146.938ZM-1.21218 151.466L-1.51428 151.067L-1.65792 151.176L-1.69902 151.352L-1.21218 151.466ZM-1.33091 151.973L-1.81775 151.859L-1.93547 152.362L-1.42909 152.463L-1.33091 151.973ZM-0.895553 152.06L-0.993729 152.55L-0.772954 152.594L-0.593519 152.458L-0.895553 152.06ZM6.71004 147.616L6.90635 148.076L7.08242 148.001L7.16327 147.827L6.71004 147.616ZM6.92884 147.146L7.38206 147.358L7.52065 147.06L7.30287 146.815L6.92884 147.146ZM6.70566 146.427L6.50938 146.438L6.5655 147.437L6.76177 147.426L6.70566 146.427ZM6.34082 146.478C3.59812 147.651 0.956411 149.194 -1.51428 151.067L-0.910081 151.864C1.49802 150.038 4.0692 148.537 6.73406 147.397L6.34082 146.478ZM-1.69902 151.352L-1.81775 151.859L-0.844078 152.087L-0.725343 151.58L-1.69902 151.352ZM-1.42909 152.463L-0.993729 152.55L-0.797376 151.57L-1.23274 151.483L-1.42909 152.463ZM-0.593519 152.458C1.76905 150.668 4.29174 149.192 6.90635 148.076L6.51374 147.156C3.82034 148.306 1.22703 149.824 -1.19759 151.661L-0.593519 152.458ZM7.16327 147.827L7.38206 147.358L6.47561 146.935L6.25682 147.405L7.16327 147.827ZM7.30287 146.815L7.10775 146.595L6.35968 147.258L6.5548 147.478L7.30287 146.815Z" fill="#BCC7BD" mask="url(#path-15-outside-7_1410_10039)"/>
<mask id="path-17-outside-8_1410_10039" maskUnits="userSpaceOnUse" x="-5.20869" y="140.747" width="11.2825" height="11.2825" fill="black">
<rect fill="white" x="-5.20869" y="140.747" width="11.2825" height="11.2825"/>
<path d="M4.07746 143.864L3.88119 143.875C1.17741 145.031 -1.42904 146.553 -3.86843 148.403L-3.98716 148.91L-3.5518 148.997C-1.15821 147.183 1.39979 145.687 4.05379 144.554L4.27259 144.084L4.07746 143.864Z"/>
</mask>
<path d="M4.07746 143.864L3.88119 143.875C1.17741 145.031 -1.42904 146.553 -3.86843 148.403L-3.98716 148.91L-3.5518 148.997C-1.15821 147.183 1.39979 145.687 4.05379 144.554L4.27259 144.084L4.07746 143.864Z" fill="#BCC7BD"/>
<path d="M3.88119 143.875L3.85313 143.376L3.76538 143.381L3.68457 143.415L3.88119 143.875ZM-3.86843 148.403L-4.17053 148.005L-4.31417 148.114L-4.35527 148.289L-3.86843 148.403ZM-3.98716 148.91L-4.474 148.796L-4.59172 149.299L-4.08534 149.401L-3.98716 148.91ZM-3.5518 148.997L-3.64998 149.488L-3.4292 149.532L-3.24977 149.396L-3.5518 148.997ZM4.05379 144.554L4.2501 145.013L4.42617 144.938L4.50702 144.765L4.05379 144.554ZM4.27259 144.084L4.72581 144.295L4.8644 143.998L4.64662 143.752L4.27259 144.084ZM4.04941 143.365L3.85313 143.376L3.90925 144.374L4.10552 144.363L4.04941 143.365ZM3.68457 143.415C0.941869 144.588 -1.69984 146.131 -4.17053 148.005L-3.56633 148.802C-1.15823 146.976 1.41295 145.474 4.07781 144.335L3.68457 143.415ZM-4.35527 148.289L-4.474 148.796L-3.50033 149.024L-3.38159 148.517L-4.35527 148.289ZM-4.08534 149.401L-3.64998 149.488L-3.45363 148.507L-3.88899 148.42L-4.08534 149.401ZM-3.24977 149.396C-0.887202 147.605 1.63549 146.13 4.2501 145.013L3.85749 144.094C1.16409 145.243 -1.42922 146.761 -3.85384 148.599L-3.24977 149.396ZM4.50702 144.765L4.72581 144.295L3.81936 143.873L3.60057 144.342L4.50702 144.765ZM4.64662 143.752L4.4515 143.532L3.70343 144.196L3.89855 144.416L4.64662 143.752Z" fill="#BCC7BD" mask="url(#path-17-outside-8_1410_10039)"/>
<mask id="path-19-outside-9_1410_10039" maskUnits="userSpaceOnUse" x="-4.97724" y="144.137" width="18.1496" height="19.4588" fill="black">
<rect fill="white" x="-4.97724" y="144.137" width="18.1496" height="19.4588"/>
<path d="M11.7864 148.944L11.6087 148.965C6.44772 151.746 1.33363 154.897 -3.59243 158.33L-3.71171 158.75L-3.36489 158.846C1.54317 155.425 6.63971 152.284 11.7801 149.514L11.939 149.108L11.7864 148.944Z"/>
</mask>
<path d="M11.7864 148.944L11.6087 148.965C6.44772 151.746 1.33363 154.897 -3.59243 158.33L-3.71171 158.75L-3.36489 158.846C1.54317 155.425 6.63971 152.284 11.7801 149.514L11.939 149.108L11.7864 148.944Z" fill="#BCC7BD"/>
<path d="M11.6087 148.965L11.5498 148.468L11.4553 148.48L11.3715 148.525L11.6087 148.965ZM-3.59243 158.33L-3.87831 157.92L-4.02467 158.022L-4.07341 158.194L-3.59243 158.33ZM-3.71171 158.75L-4.19269 158.614L-4.33038 159.099L-3.84449 159.233L-3.71171 158.75ZM-3.36489 158.846L-3.49767 159.328L-3.27148 159.39L-3.079 159.256L-3.36489 158.846ZM11.7801 149.514L12.0173 149.954L12.1788 149.867L12.2457 149.696L11.7801 149.514ZM11.939 149.108L12.4046 149.29L12.519 148.998L12.3054 148.768L11.939 149.108ZM11.7276 148.447L11.5498 148.468L11.6675 149.461L11.8453 149.44L11.7276 148.447ZM11.3715 148.525C6.1933 151.315 1.06297 154.477 -3.87831 157.92L-3.30655 158.741C1.60428 155.318 6.70214 152.177 11.8458 149.405L11.3715 148.525ZM-4.07341 158.194L-4.19269 158.614L-3.23074 158.887L-3.11145 158.467L-4.07341 158.194ZM-3.84449 159.233L-3.49767 159.328L-3.23212 158.364L-3.57894 158.268L-3.84449 159.233ZM-3.079 159.256C1.81383 155.846 6.89414 152.715 12.0173 149.954L11.5429 149.074C6.38528 151.854 1.27251 155.004 -3.65079 158.436L-3.079 159.256ZM12.2457 149.696L12.4046 149.29L11.4733 148.926L11.3145 149.332L12.2457 149.696ZM12.3054 148.768L12.1528 148.604L11.42 149.284L11.5726 149.448L12.3054 148.768Z" fill="#BCC7BD" mask="url(#path-19-outside-9_1410_10039)"/>
<mask id="path-21-outside-10_1410_10039" maskUnits="userSpaceOnUse" x="-4.85112" y="145.911" width="24.1182" height="24.7727" fill="black">
<rect fill="white" x="-4.85112" y="145.911" width="24.1182" height="24.7727"/>
<path d="M17.6589 152.145L17.4651 152.166C10.4696 155.93 3.42824 159.881 -3.46391 163.913L-3.57907 164.29L-3.2269 164.397C3.66117 160.368 10.6968 156.42 17.6861 152.66L17.812 152.285L17.6589 152.145Z"/>
</mask>
<path d="M17.6589 152.145L17.4651 152.166C10.4696 155.93 3.42824 159.881 -3.46391 163.913L-3.57907 164.29L-3.2269 164.397C3.66117 160.368 10.6968 156.42 17.6861 152.66L17.812 152.285L17.6589 152.145Z" fill="#BCC7BD"/>
<path d="M17.4651 152.166L17.4122 151.669L17.3146 151.679L17.2282 151.725L17.4651 152.166ZM-3.46391 163.913L-3.71637 163.481L-3.88503 163.58L-3.94211 163.767L-3.46391 163.913ZM-3.57907 164.29L-4.05726 164.144L-4.20349 164.622L-3.72457 164.768L-3.57907 164.29ZM-3.2269 164.397L-3.3724 164.875L-3.16321 164.939L-2.97446 164.828L-3.2269 164.397ZM17.6861 152.66L17.9229 153.101L18.0972 153.007L18.1601 152.819L17.6861 152.66ZM17.812 152.285L18.286 152.444L18.3896 152.135L18.1487 151.915L17.812 152.285ZM17.6059 151.648L17.4122 151.669L17.5181 152.663L17.7118 152.642L17.6059 151.648ZM17.2282 151.725C10.2275 155.493 3.18094 159.446 -3.71637 163.481L-3.21146 164.344C3.67555 160.316 10.7117 156.368 17.702 152.606L17.2282 151.725ZM-3.94211 163.767L-4.05726 164.144L-3.10087 164.436L-2.98572 164.059L-3.94211 163.767ZM-3.72457 164.768L-3.3724 164.875L-3.0814 163.918L-3.43357 163.811L-3.72457 164.768ZM-2.97446 164.828C3.90848 160.803 10.9389 156.857 17.9229 153.101L17.4492 152.22C10.4547 155.982 3.41385 159.933 -3.47933 163.965L-2.97446 164.828ZM18.1601 152.819L18.286 152.444L17.3379 152.126L17.212 152.501L18.1601 152.819ZM18.1487 151.915L17.9957 151.776L17.3221 152.515L17.4752 152.654L18.1487 151.915Z" fill="#BCC7BD" mask="url(#path-21-outside-10_1410_10039)"/>
<mask id="path-23-outside-11_1410_10039" maskUnits="userSpaceOnUse" x="-1.05689" y="147.669" width="26.3259" height="26.3259" fill="black">
<rect fill="white" x="-1.05689" y="147.669" width="26.3259" height="26.3259"/>
<path d="M23.5186 154.457L23.3245 154.479L0.208408 167.038L0.0827001 167.413L0.431768 167.53L23.5464 154.971L23.6717 154.597L23.5186 154.457Z"/>
</mask>
<path d="M23.5186 154.457L23.3245 154.479L0.208408 167.038L0.0827001 167.413L0.431768 167.53L23.5464 154.971L23.6717 154.597L23.5186 154.457Z" fill="#BCC7BD"/>
<path d="M23.3245 154.479L23.2684 153.982L23.1715 153.993L23.0858 154.04L23.3245 154.479ZM0.208408 167.038L-0.0302903 166.599L-0.203122 166.693L-0.265653 166.879L0.208408 167.038ZM0.0827001 167.413L-0.39136 167.254L-0.550338 167.728L-0.0761896 167.887L0.0827001 167.413ZM0.431768 167.53L0.272878 168.004L0.479243 168.073L0.670484 167.97L0.431768 167.53ZM23.5464 154.971L23.7851 155.41L23.9579 155.316L24.0204 155.13L23.5464 154.971ZM23.6717 154.597L24.1458 154.756L24.2493 154.447L24.0085 154.227L23.6717 154.597ZM23.4626 153.961L23.2684 153.982L23.3805 154.976L23.5746 154.954L23.4626 153.961ZM23.0858 154.04L-0.0302903 166.599L0.447105 167.478L23.5632 154.919L23.0858 154.04ZM-0.265653 166.879L-0.39136 167.254L0.55676 167.572L0.682467 167.197L-0.265653 166.879ZM-0.0761896 167.887L0.272878 168.004L0.590658 167.056L0.24159 166.939L-0.0761896 167.887ZM0.670484 167.97L23.7851 155.41L23.3076 154.531L0.193052 167.091L0.670484 167.97ZM24.0204 155.13L24.1458 154.756L23.1976 154.438L23.0723 154.812L24.0204 155.13ZM24.0085 154.227L23.8554 154.088L23.1818 154.827L23.3349 154.966L24.0085 154.227Z" fill="#BCC7BD" mask="url(#path-23-outside-11_1410_10039)"/>
<mask id="path-25-outside-12_1410_10039" maskUnits="userSpaceOnUse" x="-1.25737" y="153.505" width="26.0264" height="25.3718" fill="black">
<rect fill="white" x="-1.25737" y="153.505" width="26.0264" height="25.3718"/>
<path d="M22.8833 160.251L22.604 160.279C15.3012 164.299 7.75293 168.069 0.168306 171.49L-0.0147354 171.967L0.459806 172.15C8.0625 168.721 15.6294 164.941 22.9481 160.913L23.0913 160.422L22.8833 160.251Z"/>
</mask>
<path d="M22.8833 160.251L22.604 160.279C15.3012 164.299 7.75293 168.069 0.168306 171.49L-0.0147354 171.967L0.459806 172.15C8.0625 168.721 15.6294 164.941 22.9481 160.913L23.0913 160.422L22.8833 160.251Z" fill="#BCC7BD"/>
<path d="M22.604 160.279L22.5537 159.782L22.4522 159.792L22.3629 159.841L22.604 160.279ZM0.168306 171.49L-0.0372385 171.034L-0.224831 171.118L-0.298529 171.311L0.168306 171.49ZM-0.0147354 171.967L-0.48157 171.788L-0.660288 172.254L-0.194713 172.433L-0.0147354 171.967ZM0.459806 172.15L0.279828 172.616L0.474823 172.692L0.66535 172.606L0.459806 172.15ZM22.9481 160.913L23.1892 161.351L23.3703 161.251L23.4281 161.053L22.9481 160.913ZM23.0913 160.422L23.5713 160.561L23.6637 160.245L23.4086 160.035L23.0913 160.422ZM22.833 159.753L22.5537 159.782L22.6543 160.777L22.9336 160.748L22.833 159.753ZM22.3629 159.841C15.0717 163.854 7.53533 167.619 -0.0372385 171.034L0.373851 171.945C7.97052 168.52 15.5306 164.743 22.8451 160.717L22.3629 159.841ZM-0.298529 171.311L-0.48157 171.788L0.4521 172.146L0.635141 171.669L-0.298529 171.311ZM-0.194713 172.433L0.279828 172.616L0.639784 171.683L0.165243 171.5L-0.194713 172.433ZM0.66535 172.606C8.28012 169.172 15.8588 165.386 23.1892 161.351L22.707 160.475C15.3999 164.497 7.84489 168.271 0.254261 171.694L0.66535 172.606ZM23.4281 161.053L23.5713 160.561L22.6113 160.282L22.4681 160.773L23.4281 161.053ZM23.4086 160.035L23.2006 159.864L22.5661 160.637L22.774 160.808L23.4086 160.035Z" fill="#BCC7BD" mask="url(#path-25-outside-12_1410_10039)"/>
<mask id="path-27-outside-13_1410_10039" maskUnits="userSpaceOnUse" x="1.83526" y="162.028" width="20.0578" height="20.0578" fill="black">
<rect fill="white" x="1.83526" y="162.028" width="20.0578" height="20.0578"/>
<path d="M20.0797 167.299L19.6114 167.357C14.3088 170.521 8.81269 173.487 3.27813 176.162L2.98692 176.964L3.76253 177.248C9.32747 174.556 14.8532 171.576 20.1908 168.392L20.4126 167.571L20.0797 167.299Z"/>
</mask>
<path d="M20.0797 167.299L19.6114 167.357C14.3088 170.521 8.81269 173.487 3.27813 176.162L2.98692 176.964L3.76253 177.248C9.32747 174.556 14.8532 171.576 20.1908 168.392L20.4126 167.571L20.0797 167.299Z" fill="#BCC7BD"/>
<path d="M19.6114 167.357L19.5507 166.86L19.4458 166.873L19.3552 166.927L19.6114 167.357ZM3.27813 176.162L3.06053 175.712L2.87761 175.801L2.80821 175.992L3.27813 176.162ZM2.98692 176.964L2.517 176.793L2.34661 177.262L2.81501 177.433L2.98692 176.964ZM3.76253 177.248L3.59062 177.717L3.78955 177.79L3.98025 177.698L3.76253 177.248ZM20.1908 168.392L20.4469 168.821L20.6207 168.718L20.6735 168.522L20.1908 168.392ZM20.4126 167.571L20.8953 167.701L20.9798 167.388L20.7285 167.183L20.4126 167.571ZM20.019 166.803L19.5507 166.86L19.6721 167.853L20.1404 167.796L20.019 166.803ZM19.3552 166.927C14.0649 170.084 8.58167 173.044 3.06053 175.712L3.49573 176.613C9.04371 173.931 14.5527 170.958 19.8676 167.786L19.3552 166.927ZM2.80821 175.992L2.517 176.793L3.45685 177.135L3.74806 176.333L2.80821 175.992ZM2.81501 177.433L3.59062 177.717L3.93445 176.778L3.15883 176.494L2.81501 177.433ZM3.98025 177.698C9.55846 175 15.097 172.013 20.4469 168.821L19.9346 167.962C14.6094 171.139 9.09649 174.112 3.54481 176.798L3.98025 177.698ZM20.6735 168.522L20.8953 167.701L19.9299 167.44L19.7081 168.261L20.6735 168.522ZM20.7285 167.183L20.3956 166.912L19.7638 167.687L20.0967 167.958L20.7285 167.183Z" fill="#BCC7BD" mask="url(#path-27-outside-13_1410_10039)"/>
</svg>
