<svg width="82" height="84" viewBox="0 0 82 84" fill="none" xmlns="http://www.w3.org/2000/svg">
<mask id="path-1-outside-1_1410_12451" maskUnits="userSpaceOnUse" x="15.9305" y="49.1391" width="25.6534" height="25.3358" fill="black">
<rect fill="white" x="15.9305" y="49.1391" width="25.6534" height="25.3358"/>
<path d="M25.909 51.7052C25.106 53.0052 24.4653 54.0446 23.8229 55.0879C23.1403 56.1968 22.4552 57.3084 21.5713 58.7392C21.0913 59.5162 20.5946 60.3197 20.469 61.2299C20.2228 63.0033 21.461 65.2094 23.7813 67.131C26.1105 69.0598 28.5926 69.9232 30.4188 69.4387C31.6668 69.1077 32.5822 68.1948 33.4129 67.2885C35.9434 64.5265 36.9557 63.3431 38.6967 59.9387C36.0005 58.4785 28.575 53.6986 25.909 51.7052ZM24.8719 68.8128C24.2178 68.4038 23.6809 67.9915 23.3179 67.6906C22.1098 66.6897 19.3444 64.0478 19.7482 61.1304C19.8957 60.0682 20.4575 59.1593 20.9533 58.357C21.8369 56.9268 22.522 55.8152 23.2038 54.7075C23.9019 53.5738 24.5974 52.4443 25.5015 50.9824C25.5557 50.8945 25.6447 50.8342 25.7463 50.8154C25.8482 50.7976 25.9511 50.8225 26.0336 50.8867C28.4382 52.7594 36.9002 58.2086 39.3484 59.4608C39.5262 59.5526 39.5973 59.7694 39.5077 59.9477C37.6216 63.6848 36.6065 64.8782 33.9487 67.779C33.0852 68.7219 32.043 69.7597 30.6045 70.1413C28.5373 70.6901 26.389 69.7617 24.8719 68.8128Z"/>
</mask>
<path d="M25.909 51.7052C25.106 53.0052 24.4653 54.0446 23.8229 55.0879C23.1403 56.1968 22.4552 57.3084 21.5713 58.7392C21.0913 59.5162 20.5946 60.3197 20.469 61.2299C20.2228 63.0033 21.461 65.2094 23.7813 67.131C26.1105 69.0598 28.5926 69.9232 30.4188 69.4387C31.6668 69.1077 32.5822 68.1948 33.4129 67.2885C35.9434 64.5265 36.9557 63.3431 38.6967 59.9387C36.0005 58.4785 28.575 53.6986 25.909 51.7052ZM24.8719 68.8128C24.2178 68.4038 23.6809 67.9915 23.3179 67.6906C22.1098 66.6897 19.3444 64.0478 19.7482 61.1304C19.8957 60.0682 20.4575 59.1593 20.9533 58.357C21.8369 56.9268 22.522 55.8152 23.2038 54.7075C23.9019 53.5738 24.5974 52.4443 25.5015 50.9824C25.5557 50.8945 25.6447 50.8342 25.7463 50.8154C25.8482 50.7976 25.9511 50.8225 26.0336 50.8867C28.4382 52.7594 36.9002 58.2086 39.3484 59.4608C39.5262 59.5526 39.5973 59.7694 39.5077 59.9477C37.6216 63.6848 36.6065 64.8782 33.9487 67.779C33.0852 68.7219 32.043 69.7597 30.6045 70.1413C28.5373 70.6901 26.389 69.7617 24.8719 68.8128Z" fill="#BCC7BD"/>
<path d="M23.8229 55.0879L23.6526 54.9831L23.6526 54.983L23.8229 55.0879ZM21.5713 58.7392L21.7414 58.8444L21.7414 58.8444L21.5713 58.7392ZM20.469 61.2299L20.6671 61.2573L20.6671 61.2574L20.469 61.2299ZM23.7813 67.131L23.6537 67.285L23.6537 67.285L23.7813 67.131ZM30.4188 69.4387L30.3675 69.2454L30.3675 69.2454L30.4188 69.4387ZM33.4129 67.2885L33.5603 67.4236L33.5603 67.4236L33.4129 67.2885ZM38.6967 59.9387L38.7919 59.7628L38.9637 59.8558L38.8747 60.0297L38.6967 59.9387ZM23.3179 67.6906L23.4455 67.5366L23.4456 67.5366L23.3179 67.6906ZM19.7482 61.1304L19.5501 61.1029L19.5501 61.1028L19.7482 61.1304ZM20.9533 58.357L21.1235 58.4621L21.1235 58.4622L20.9533 58.357ZM23.2038 54.7075L23.0335 54.6026L23.0335 54.6026L23.2038 54.7075ZM25.5015 50.9824L25.6718 51.0873L25.6716 51.0876L25.5015 50.9824ZM25.7463 50.8154L25.71 50.6187L25.7119 50.6184L25.7463 50.8154ZM26.0336 50.8867L26.1564 50.7288L26.1565 50.7289L26.0336 50.8867ZM39.3484 59.4608L39.4395 59.2827L39.4402 59.2831L39.3484 59.4608ZM39.5077 59.9477L39.6863 60.0375L39.6862 60.0378L39.5077 59.9477ZM33.9487 67.779L33.8013 67.644L33.8013 67.6439L33.9487 67.779ZM30.6045 70.1413L30.5532 69.948L30.5532 69.948L30.6045 70.1413ZM26.0791 51.8103C25.2763 53.1103 24.6356 54.1495 23.9932 55.1928L23.6526 54.983C24.295 53.9396 24.9358 52.9002 25.7388 51.6001L26.0791 51.8103ZM23.9932 55.1927C23.3106 56.3018 22.6254 57.4134 21.7414 58.8444L21.4011 58.6341C22.285 57.2034 22.97 56.0919 23.6526 54.9831L23.9932 55.1927ZM21.7414 58.8444C21.257 59.6285 20.786 60.3961 20.6671 61.2573L20.2708 61.2026C20.4033 60.2433 20.9256 59.4038 21.4011 58.6341L21.7414 58.8444ZM20.6671 61.2574C20.5518 62.0878 20.7821 63.0383 21.3371 64.027C21.8914 65.0145 22.7633 66.0282 23.9089 66.9769L23.6537 67.285C22.4791 66.3122 21.5717 65.2621 20.9883 64.2228C20.4056 63.1847 20.1399 62.1455 20.2709 61.2024L20.6671 61.2574ZM23.9089 66.9769C26.2187 68.8898 28.6341 69.7053 30.3675 69.2454L30.4701 69.6321C28.5511 70.1411 26.0022 69.2299 23.6537 67.285L23.9089 66.9769ZM30.3675 69.2454C31.553 68.931 32.4334 68.0611 33.2654 67.1533L33.5603 67.4236C32.7311 68.3284 31.7807 69.2844 30.4701 69.6321L30.3675 69.2454ZM33.2654 67.1533C35.7895 64.3984 36.7889 63.23 38.5186 59.8476L38.8747 60.0297C37.1224 63.4563 36.0973 64.6546 33.5603 67.4236L33.2654 67.1533ZM38.6014 60.1146C35.896 58.6494 28.4624 53.8641 25.7892 51.8654L26.0287 51.5451C28.6876 53.533 36.1049 58.3076 38.7919 59.7628L38.6014 60.1146ZM24.7659 68.9824C24.1026 68.5676 23.5584 68.1498 23.1903 67.8446L23.4456 67.5366C23.8033 67.8332 24.333 68.2399 24.978 68.6433L24.7659 68.9824ZM23.1903 67.8446C22.5793 67.3384 21.5704 66.4142 20.7638 65.2426C19.9589 64.0733 19.3384 62.6325 19.5501 61.1029L19.9463 61.1578C19.7542 62.5457 20.3145 63.8845 21.0933 65.0158C21.8705 66.1447 22.8484 67.0419 23.4455 67.5366L23.1903 67.8446ZM19.5501 61.1028C19.7044 59.9924 20.2908 59.0486 20.7832 58.2519L21.1235 58.4622C20.6242 59.27 20.0871 60.1441 19.9463 61.1579L19.5501 61.1028ZM20.7832 58.2519C21.6667 56.8218 22.3517 55.7103 23.0335 54.6026L23.3742 54.8123C22.6923 55.9201 22.0071 57.0318 21.1235 58.4621L20.7832 58.2519ZM23.0335 54.6026C23.7316 53.4689 24.4272 52.3393 25.3314 50.8772L25.6716 51.0876C24.7676 52.5493 24.0722 53.6786 23.3741 54.8123L23.0335 54.6026ZM25.3312 50.8776C25.4155 50.7408 25.5535 50.6476 25.71 50.6187L25.7826 51.0121C25.7358 51.0207 25.6959 51.0482 25.6718 51.0873L25.3312 50.8776ZM25.7119 50.6184C25.8686 50.591 26.0288 50.6295 26.1564 50.7288L25.9108 51.0445C25.8734 51.0154 25.8277 51.0042 25.7807 51.0124L25.7119 50.6184ZM26.1565 50.7289C27.3507 51.659 30.0602 53.4849 32.7829 55.2383C35.5065 56.9921 38.2257 58.6619 39.4395 59.2827L39.2573 59.6388C38.0229 59.0074 35.2871 57.3266 32.5664 55.5746C29.845 53.8221 27.1211 51.9871 25.9107 51.0445L26.1565 50.7289ZM39.4402 59.2831C39.7146 59.4248 39.8257 59.7605 39.6863 60.0375L39.329 59.8578C39.369 59.7782 39.3379 59.6804 39.2566 59.6384L39.4402 59.2831ZM39.6862 60.0378C37.7892 63.7968 36.7613 65.0052 34.0962 67.9141L33.8013 67.6439C36.4516 64.7512 37.4541 63.5729 39.3291 59.8576L39.6862 60.0378ZM34.0962 67.9141C33.2326 68.857 32.156 69.9366 30.6558 70.3346L30.5532 69.948C31.9299 69.5827 32.9378 68.5867 33.8013 67.644L34.0962 67.9141ZM30.6558 70.3346C28.5043 70.9058 26.2934 69.9377 24.7659 68.9824L24.978 68.6433C26.4847 69.5856 28.5702 70.4744 30.5532 69.948L30.6558 70.3346Z" fill="#BCC7BD" mask="url(#path-1-outside-1_1410_12451)"/>
<mask id="path-3-outside-2_1410_12451" maskUnits="userSpaceOnUse" x="15.4364" y="12.5295" width="55.1235" height="55.1235" fill="black">
<rect fill="white" x="15.4364" y="12.5295" width="55.1235" height="55.1235"/>
<path d="M38.1415 59.4637L38.0882 59.4227C37.9401 59.2873 37.9305 59.0569 38.0665 58.9093C40.6024 56.1481 44.6062 55.199 48.4785 54.2802C52.0731 53.428 55.7901 52.5466 58.2313 50.2177C59.5439 48.9651 61.7758 45.293 62.3958 41.3891C62.8554 38.494 62.5403 35.9066 61.4594 33.6973C59.4282 29.5443 54.6239 24.4772 49.3727 22.8263C44.3762 21.2559 39.5539 21.1546 35.7948 22.5399C32.3531 23.8086 29.6086 26.362 28.0658 29.729C26.6215 32.8821 26.2601 36.6318 27.0224 40.5743C27.1276 41.1181 27.2562 41.6741 27.3806 42.2115C27.6414 43.3407 27.9106 44.5089 27.9927 45.6701C28.1413 47.766 27.679 49.7841 26.6557 51.505C26.5528 51.6775 26.3301 51.734 26.1578 51.6321C25.9846 51.5381 25.9287 51.3065 26.031 51.1336C26.9778 49.5404 27.4055 47.6689 27.2678 45.7209C27.1902 44.6171 26.9269 43.477 26.6724 42.3752C26.5465 41.831 26.4168 41.2685 26.3093 40.7123C25.5177 36.6204 25.8966 32.7178 27.4057 29.4263C29.0291 25.882 31.919 23.1943 35.5431 21.8582C39.4522 20.4171 44.4406 20.5148 49.5903 22.1332C55.037 23.8449 60.0125 29.0856 62.112 33.3779C63.2601 35.7242 63.5971 38.4579 63.1136 41.5028C62.4672 45.5725 60.1172 49.4227 58.7324 50.7437C56.1493 53.2081 52.3347 54.1126 48.6462 54.9875C44.8806 55.8806 40.9865 56.8034 38.601 59.4007C38.4813 59.5316 38.2865 59.5543 38.1415 59.4637Z"/>
</mask>
<path d="M38.1415 59.4637L38.0882 59.4227C37.9401 59.2873 37.9305 59.0569 38.0665 58.9093C40.6024 56.1481 44.6062 55.199 48.4785 54.2802C52.0731 53.428 55.7901 52.5466 58.2313 50.2177C59.5439 48.9651 61.7758 45.293 62.3958 41.3891C62.8554 38.494 62.5403 35.9066 61.4594 33.6973C59.4282 29.5443 54.6239 24.4772 49.3727 22.8263C44.3762 21.2559 39.5539 21.1546 35.7948 22.5399C32.3531 23.8086 29.6086 26.362 28.0658 29.729C26.6215 32.8821 26.2601 36.6318 27.0224 40.5743C27.1276 41.1181 27.2562 41.6741 27.3806 42.2115C27.6414 43.3407 27.9106 44.5089 27.9927 45.6701C28.1413 47.766 27.679 49.7841 26.6557 51.505C26.5528 51.6775 26.3301 51.734 26.1578 51.6321C25.9846 51.5381 25.9287 51.3065 26.031 51.1336C26.9778 49.5404 27.4055 47.6689 27.2678 45.7209C27.1902 44.6171 26.9269 43.477 26.6724 42.3752C26.5465 41.831 26.4168 41.2685 26.3093 40.7123C25.5177 36.6204 25.8966 32.7178 27.4057 29.4263C29.0291 25.882 31.919 23.1943 35.5431 21.8582C39.4522 20.4171 44.4406 20.5148 49.5903 22.1332C55.037 23.8449 60.0125 29.0856 62.112 33.3779C63.2601 35.7242 63.5971 38.4579 63.1136 41.5028C62.4672 45.5725 60.1172 49.4227 58.7324 50.7437C56.1493 53.2081 52.3347 54.1126 48.6462 54.9875C44.8806 55.8806 40.9865 56.8034 38.601 59.4007C38.4813 59.5316 38.2865 59.5543 38.1415 59.4637Z" fill="#BCC7BD"/>
<path d="M38.0882 59.4227L37.9665 59.5814L37.9596 59.5762L37.9532 59.5703L38.0882 59.4227ZM38.0665 58.9093L38.2138 59.0445L38.2136 59.0448L38.0665 58.9093ZM48.4785 54.2802L48.4323 54.0856L48.4324 54.0856L48.4785 54.2802ZM58.2313 50.2177L58.3693 50.3624L58.3693 50.3624L58.2313 50.2177ZM62.3958 41.3891L62.5933 41.4205L62.5933 41.4205L62.3958 41.3891ZM61.4594 33.6973L61.2798 33.7852L61.2798 33.7852L61.4594 33.6973ZM49.3727 22.8263L49.4327 22.6355L49.4327 22.6355L49.3727 22.8263ZM35.7948 22.5399L35.7257 22.3522L35.7257 22.3522L35.7948 22.5399ZM28.0658 29.729L27.8839 29.6457L27.884 29.6457L28.0658 29.729ZM27.0224 40.5743L26.826 40.6122L26.826 40.6122L27.0224 40.5743ZM27.3806 42.2115L27.5754 42.1664L27.5755 42.1665L27.3806 42.2115ZM27.9927 45.6701L27.7932 45.6843L27.7931 45.6842L27.9927 45.6701ZM26.6557 51.505L26.8276 51.6072L26.8275 51.6074L26.6557 51.505ZM26.1578 51.6321L26.2532 51.4562L26.2596 51.46L26.1578 51.6321ZM26.031 51.1336L25.8588 51.0318L25.859 51.0314L26.031 51.1336ZM27.2678 45.7209L27.0683 45.735L27.0683 45.7349L27.2678 45.7209ZM26.6724 42.3752L26.8673 42.3301L26.8673 42.3302L26.6724 42.3752ZM26.3093 40.7123L26.5057 40.6743L26.5057 40.6743L26.3093 40.7123ZM27.4057 29.4263L27.5875 29.5096L27.5875 29.5096L27.4057 29.4263ZM35.5431 21.8582L35.474 21.6706L35.474 21.6706L35.5431 21.8582ZM49.5903 22.1332L49.5303 22.324L49.5303 22.324L49.5903 22.1332ZM62.112 33.3779L61.9324 33.4658L61.9324 33.4658L62.112 33.3779ZM63.1136 41.5028L63.3111 41.5342L63.3111 41.5342L63.1136 41.5028ZM58.7324 50.7437L58.5943 50.599L58.5944 50.5989L58.7324 50.7437ZM48.6462 54.9875L48.6923 55.1821L48.6462 54.9875ZM38.601 59.4007L38.4534 59.2657L38.4537 59.2654L38.601 59.4007ZM38.0198 59.6224L37.9665 59.5814L38.2099 59.264L38.2632 59.3049L38.0198 59.6224ZM37.9532 59.5703C37.7233 59.36 37.7085 59.0027 37.9194 58.7737L38.2136 59.0448C38.1524 59.1111 38.157 59.2146 38.2232 59.2752L37.9532 59.5703ZM37.9192 58.774C40.5044 55.9591 44.5762 55.0006 48.4323 54.0856L48.5247 54.4748C44.6362 55.3975 40.7003 56.3371 38.2138 59.0445L37.9192 58.774ZM48.4324 54.0856C52.0419 53.2299 55.6989 52.3571 58.0932 50.073L58.3693 50.3624C55.8813 52.736 52.1042 53.6262 48.5246 54.4748L48.4324 54.0856ZM58.0932 50.073C58.7273 49.4679 59.6013 48.2582 60.3952 46.7065C61.1876 45.1579 61.8923 43.2841 62.1982 41.3577L62.5933 41.4205C62.2792 43.398 61.558 45.3122 60.7513 46.8887C59.9462 48.4622 59.0479 49.7149 58.3693 50.3624L58.0932 50.073ZM62.1982 41.3577C62.6527 38.4953 62.3393 35.9509 61.2798 33.7852L61.6391 33.6094C62.7413 35.8623 63.0581 38.4926 62.5933 41.4205L62.1982 41.3577ZM61.2798 33.7852C60.276 31.733 58.5825 29.447 56.4863 27.469C54.3898 25.4907 51.9014 23.8309 49.3127 23.0171L49.4327 22.6355C52.0953 23.4726 54.6346 25.1718 56.7608 27.1781C58.8873 29.1846 60.6116 31.5087 61.6391 33.6094L61.2798 33.7852ZM49.3127 23.0171C44.3454 21.4558 39.5704 21.3617 35.864 22.7276L35.7257 22.3522C39.5375 20.9475 44.407 21.0559 49.4327 22.6355L49.3127 23.0171ZM35.864 22.7276C32.4728 23.9777 29.7685 26.4931 28.2476 29.8123L27.884 29.6457C29.4487 26.2308 32.2335 23.6396 35.7257 22.3522L35.864 22.7276ZM28.2476 29.8123C26.8233 32.9218 26.4631 36.6281 27.2188 40.5363L26.826 40.6122C26.0571 36.6355 26.4196 32.8425 27.8839 29.6457L28.2476 29.8123ZM27.2188 40.5363C27.3231 41.0759 27.4509 41.6284 27.5754 42.1664L27.1857 42.2566C27.0615 41.7198 26.932 41.1603 26.826 40.6122L27.2188 40.5363ZM27.5755 42.1665C27.8356 43.293 28.1088 44.4766 28.1922 45.656L27.7931 45.6842C27.7124 44.5413 27.4471 43.3885 27.1857 42.2565L27.5755 42.1665ZM28.1922 45.656C28.3435 47.7904 27.8729 49.8494 26.8276 51.6072L26.4838 51.4027C27.4852 49.7187 27.939 47.7416 27.7932 45.6843L28.1922 45.656ZM26.8275 51.6074C26.6682 51.8746 26.3231 51.9622 26.056 51.8043L26.2596 51.46C26.3371 51.5058 26.4375 51.4805 26.4839 51.4025L26.8275 51.6074ZM26.0623 51.8079C25.7815 51.6554 25.7037 51.2941 25.8588 51.0318L26.2031 51.2354C26.1537 51.319 26.1878 51.4209 26.2532 51.4563L26.0623 51.8079ZM25.859 51.0314C26.7839 49.4752 27.2033 47.6446 27.0683 45.735L27.4673 45.7068C27.6078 47.6931 27.1717 49.6056 26.2029 51.2358L25.859 51.0314ZM27.0683 45.7349C26.9919 44.6496 26.7327 43.5251 26.4776 42.4202L26.8673 42.3302C27.121 43.4289 27.3884 44.5846 27.4673 45.7068L27.0683 45.7349ZM26.4776 42.4203C26.3518 41.8765 26.2213 41.3106 26.113 40.7502L26.5057 40.6743C26.6124 41.2264 26.7412 41.7854 26.8673 42.3301L26.4776 42.4203ZM26.113 40.7502C25.3147 36.6238 25.6949 32.678 27.2239 29.3429L27.5875 29.5096C26.0984 32.7577 25.7208 36.617 26.5057 40.6743L26.113 40.7502ZM27.2239 29.343C28.8692 25.7508 31.7993 23.0253 35.474 21.6706L35.6123 22.0459C32.0386 23.3634 29.189 26.0131 27.5875 29.5096L27.2239 29.343ZM35.474 21.6706C39.4354 20.2102 44.4709 20.3146 49.6502 21.9424L49.5303 22.324C44.4103 20.7149 39.469 20.6241 35.6123 22.0459L35.474 21.6706ZM49.6502 21.9424C52.4105 22.8098 55.0414 24.5675 57.2435 26.6422C59.4458 28.7172 61.23 31.1195 62.2917 33.29L61.9324 33.4658C60.8945 31.344 59.1412 28.9798 56.9692 26.9334C54.7969 24.8867 52.2168 23.1682 49.5303 22.324L49.6502 21.9424ZM62.2917 33.29C63.461 35.6795 63.7999 38.4562 63.3111 41.5342L62.9161 41.4714C63.3943 38.4597 63.0593 35.7688 61.9324 33.4658L62.2917 33.29ZM63.3111 41.5342C62.9838 43.5948 62.2263 45.5952 61.3778 47.2455C60.5307 48.8929 59.5849 50.2069 58.8704 50.8884L58.5944 50.5989C59.2647 49.9595 60.1863 48.688 61.022 47.0626C61.8563 45.4401 62.597 43.4804 62.9161 41.4714L63.3111 41.5342ZM58.8705 50.8884C56.2408 53.3973 52.3671 54.3104 48.6923 55.1821L48.6 54.7929C52.3024 53.9147 56.0579 53.0189 58.5943 50.599L58.8705 50.8884ZM48.6923 55.1821C46.8069 55.6293 44.9054 56.0804 43.1776 56.7418C41.451 57.4028 39.9123 58.2686 38.7483 59.536L38.4537 59.2654C39.6752 57.9355 41.2764 57.0413 43.0346 56.3683C44.7916 55.6957 46.7199 55.2388 48.6 54.7929L48.6923 55.1821ZM38.7486 59.5356C38.5625 59.7392 38.2606 59.774 38.0355 59.6332L38.2476 59.2941C38.3123 59.3346 38.4001 59.3241 38.4534 59.2657L38.7486 59.5356Z" fill="#BCC7BD" mask="url(#path-3-outside-2_1410_12451)"/>
<mask id="path-5-outside-3_1410_12451" maskUnits="userSpaceOnUse" x="21.4461" y="25.3828" width="34.8775" height="36.7831" fill="black">
<rect fill="white" x="21.4461" y="25.3828" width="34.8775" height="36.7831"/>
<path d="M47.2487 33.2927C47.1382 33.2236 46.9253 33.2577 46.7649 33.3127C45.6437 33.6962 44.737 34.5978 43.9102 36.1509C43.3109 37.2758 42.9581 38.3196 42.847 39.3046C43.9402 38.6246 44.9283 37.8185 45.7994 36.8972C46.9262 35.704 47.4197 34.6515 47.3523 33.5852C47.3434 33.4435 47.3203 33.361 47.2787 33.3173L47.2487 33.2927ZM45.0148 44.2655C45.4128 44.5455 45.8575 44.764 46.3433 44.8913C47.4643 45.1866 48.7135 44.9866 50.0559 44.2978C50.4284 44.1065 50.7431 43.7404 50.771 43.4646C50.7788 43.3863 50.77 43.2808 50.6297 43.1679C50.4608 43.0337 50.198 43.0079 49.9365 43.0015C48.1486 42.9546 46.4035 43.4032 45.0148 44.2655ZM34.9792 33.0986C34.7334 32.9449 34.4581 32.8786 34.2588 32.9447C33.8518 33.0783 33.8306 33.7061 33.8396 33.9697C33.9012 35.7104 34.9764 37.48 35.9418 38.8542C36.1423 37.4858 36.1556 36.0566 35.8305 34.6056C35.737 34.1909 35.6003 33.7189 35.2915 33.3637C35.2007 33.259 35.0928 33.1696 34.9792 33.0986ZM34.6447 57.0452L34.6411 57.043C34.4719 56.9347 34.4233 56.7102 34.5316 56.541L34.5636 56.4912C36.4487 53.5441 38.5403 50.5396 40.7806 47.5633C41.7135 46.3228 42.656 45.1327 43.8365 44.2058C42.9598 43.313 42.3805 42.161 42.1867 41.1181C42.1528 40.9331 42.1271 40.7473 42.1092 40.5596C41.8327 40.7034 41.5502 40.8394 41.2627 40.9687C39.6549 41.6923 38.3423 41.7653 37.251 41.1929C36.9136 41.0163 36.619 40.7834 36.3565 40.5234C36.1109 41.5368 35.7925 42.5039 35.4646 43.4111C34.1523 47.0409 32.4093 50.5011 30.2837 53.697C30.1733 53.864 29.9406 53.9084 29.7803 53.798C29.6136 53.687 29.5679 53.4619 29.6792 53.2946C31.7716 50.1477 33.4883 46.739 34.7812 43.1644C35.1557 42.1291 35.5173 41.0135 35.7647 39.8441C35.6511 39.6966 35.5436 39.5487 35.4418 39.4052C34.3299 37.8394 33.1837 35.9724 33.1136 33.9953C33.0816 33.0914 33.4161 32.4571 34.032 32.2542C34.7043 32.0336 35.4402 32.4274 35.8392 32.887C36.2547 33.3645 36.4263 33.9431 36.5392 34.4464C36.9442 36.2506 36.8599 38.0069 36.5443 39.6562C36.8447 40.0154 37.183 40.337 37.588 40.5492C38.4693 41.0113 39.5737 40.9315 40.9653 40.3063C41.3489 40.1337 41.7221 39.9479 42.0858 39.7493C42.1281 38.5155 42.5195 37.2153 43.2686 35.8093C43.8465 34.724 44.8141 33.2118 46.53 32.6256C47.0517 32.447 47.5152 32.5159 47.802 32.8137C48.0221 33.0421 48.0643 33.3373 48.0773 33.5396C48.1841 35.2228 47.1298 36.5471 46.3274 37.3963C45.3035 38.48 44.1253 39.4101 42.8126 40.1737C42.8222 40.4485 42.8524 40.7186 42.9015 40.9854C43.078 41.9351 43.6156 42.9872 44.4291 43.7782L44.587 43.6761C46.1018 42.7222 48.0081 42.224 49.9557 42.275C50.3253 42.2844 50.7491 42.3309 51.0855 42.6018C51.3856 42.8433 51.5305 43.1759 51.4936 43.5384C51.4314 44.1456 50.8768 44.6927 50.3878 44.9439C48.8815 45.7175 47.4582 45.9365 46.1578 45.5937C45.4991 45.4203 44.9043 45.1046 44.3869 44.6987C43.2322 45.5737 42.3249 46.7194 41.3609 48.0002C39.1323 50.9619 37.0505 53.9507 35.1751 56.8837L35.1427 56.9341C35.0356 57.1015 34.8132 57.1506 34.6447 57.0452Z"/>
</mask>
<path d="M47.2487 33.2927C47.1382 33.2236 46.9253 33.2577 46.7649 33.3127C45.6437 33.6962 44.737 34.5978 43.9102 36.1509C43.3109 37.2758 42.9581 38.3196 42.847 39.3046C43.9402 38.6246 44.9283 37.8185 45.7994 36.8972C46.9262 35.704 47.4197 34.6515 47.3523 33.5852C47.3434 33.4435 47.3203 33.361 47.2787 33.3173L47.2487 33.2927ZM45.0148 44.2655C45.4128 44.5455 45.8575 44.764 46.3433 44.8913C47.4643 45.1866 48.7135 44.9866 50.0559 44.2978C50.4284 44.1065 50.7431 43.7404 50.771 43.4646C50.7788 43.3863 50.77 43.2808 50.6297 43.1679C50.4608 43.0337 50.198 43.0079 49.9365 43.0015C48.1486 42.9546 46.4035 43.4032 45.0148 44.2655ZM34.9792 33.0986C34.7334 32.9449 34.4581 32.8786 34.2588 32.9447C33.8518 33.0783 33.8306 33.7061 33.8396 33.9697C33.9012 35.7104 34.9764 37.48 35.9418 38.8542C36.1423 37.4858 36.1556 36.0566 35.8305 34.6056C35.737 34.1909 35.6003 33.7189 35.2915 33.3637C35.2007 33.259 35.0928 33.1696 34.9792 33.0986ZM34.6447 57.0452L34.6411 57.043C34.4719 56.9347 34.4233 56.7102 34.5316 56.541L34.5636 56.4912C36.4487 53.5441 38.5403 50.5396 40.7806 47.5633C41.7135 46.3228 42.656 45.1327 43.8365 44.2058C42.9598 43.313 42.3805 42.161 42.1867 41.1181C42.1528 40.9331 42.1271 40.7473 42.1092 40.5596C41.8327 40.7034 41.5502 40.8394 41.2627 40.9687C39.6549 41.6923 38.3423 41.7653 37.251 41.1929C36.9136 41.0163 36.619 40.7834 36.3565 40.5234C36.1109 41.5368 35.7925 42.5039 35.4646 43.4111C34.1523 47.0409 32.4093 50.5011 30.2837 53.697C30.1733 53.864 29.9406 53.9084 29.7803 53.798C29.6136 53.687 29.5679 53.4619 29.6792 53.2946C31.7716 50.1477 33.4883 46.739 34.7812 43.1644C35.1557 42.1291 35.5173 41.0135 35.7647 39.8441C35.6511 39.6966 35.5436 39.5487 35.4418 39.4052C34.3299 37.8394 33.1837 35.9724 33.1136 33.9953C33.0816 33.0914 33.4161 32.4571 34.032 32.2542C34.7043 32.0336 35.4402 32.4274 35.8392 32.887C36.2547 33.3645 36.4263 33.9431 36.5392 34.4464C36.9442 36.2506 36.8599 38.0069 36.5443 39.6562C36.8447 40.0154 37.183 40.337 37.588 40.5492C38.4693 41.0113 39.5737 40.9315 40.9653 40.3063C41.3489 40.1337 41.7221 39.9479 42.0858 39.7493C42.1281 38.5155 42.5195 37.2153 43.2686 35.8093C43.8465 34.724 44.8141 33.2118 46.53 32.6256C47.0517 32.447 47.5152 32.5159 47.802 32.8137C48.0221 33.0421 48.0643 33.3373 48.0773 33.5396C48.1841 35.2228 47.1298 36.5471 46.3274 37.3963C45.3035 38.48 44.1253 39.4101 42.8126 40.1737C42.8222 40.4485 42.8524 40.7186 42.9015 40.9854C43.078 41.9351 43.6156 42.9872 44.4291 43.7782L44.587 43.6761C46.1018 42.7222 48.0081 42.224 49.9557 42.275C50.3253 42.2844 50.7491 42.3309 51.0855 42.6018C51.3856 42.8433 51.5305 43.1759 51.4936 43.5384C51.4314 44.1456 50.8768 44.6927 50.3878 44.9439C48.8815 45.7175 47.4582 45.9365 46.1578 45.5937C45.4991 45.4203 44.9043 45.1046 44.3869 44.6987C43.2322 45.5737 42.3249 46.7194 41.3609 48.0002C39.1323 50.9619 37.0505 53.9507 35.1751 56.8837L35.1427 56.9341C35.0356 57.1015 34.8132 57.1506 34.6447 57.0452Z" fill="#BCC7BD"/>
<path d="M47.2487 33.2927L47.3548 33.1231L47.3657 33.13L47.3757 33.1382L47.2487 33.2927ZM46.7649 33.3127L46.8298 33.5019L46.8296 33.502L46.7649 33.3127ZM43.9102 36.1509L44.0868 36.2449L44.0867 36.245L43.9102 36.1509ZM42.847 39.3046L42.9526 39.4744L42.602 39.6925L42.6483 39.2822L42.847 39.3046ZM45.7994 36.8972L45.9448 37.0345L45.9447 37.0346L45.7994 36.8972ZM47.3523 33.5852L47.1527 33.5978L47.1527 33.5977L47.3523 33.5852ZM47.2787 33.3173L47.4057 33.1628L47.4151 33.1706L47.4235 33.1794L47.2787 33.3173ZM45.0148 44.2655L44.8998 44.4291L44.6525 44.2551L44.9093 44.0956L45.0148 44.2655ZM46.3433 44.8913L46.394 44.6979L46.3942 44.6979L46.3433 44.8913ZM50.0559 44.2978L50.1472 44.4757L50.1472 44.4757L50.0559 44.2978ZM50.771 43.4646L50.97 43.4844L50.97 43.4848L50.771 43.4646ZM50.6297 43.1679L50.7542 43.0113L50.7552 43.0121L50.6297 43.1679ZM49.9365 43.0015L49.9316 43.2014L49.9312 43.2014L49.9365 43.0015ZM34.2588 32.9447L34.3218 33.1345L34.3212 33.1347L34.2588 32.9447ZM33.8396 33.9697L33.6398 33.9767L33.6398 33.9765L33.8396 33.9697ZM35.9418 38.8542L36.1397 38.8832L36.0669 39.3802L35.7782 38.9692L35.9418 38.8542ZM35.8305 34.6056L36.0256 34.5616L36.0257 34.5619L35.8305 34.6056ZM35.2915 33.3637L35.1406 33.4949L35.1405 33.4947L35.2915 33.3637ZM34.6411 57.043L34.5351 57.2126L34.5333 57.2114L34.6411 57.043ZM34.5316 56.541L34.3632 56.4331L34.3633 56.4329L34.5316 56.541ZM34.5636 56.4912L34.7321 56.599L34.7319 56.5993L34.5636 56.4912ZM40.7806 47.5633L40.9404 47.6835L40.9404 47.6836L40.7806 47.5633ZM43.8365 44.2058L43.9792 44.0656L44.1358 44.2251L43.96 44.3631L43.8365 44.2058ZM42.1867 41.1181L41.9901 41.1546L41.99 41.1541L42.1867 41.1181ZM42.1092 40.5596L42.0169 40.3822L42.2801 40.2453L42.3083 40.5406L42.1092 40.5596ZM41.2627 40.9687L41.1806 40.7863L41.1806 40.7863L41.2627 40.9687ZM37.251 41.1929L37.3437 41.0156L37.3439 41.0157L37.251 41.1929ZM36.3565 40.5234L36.1621 40.4763L36.2455 40.1321L36.4972 40.3813L36.3565 40.5234ZM35.4646 43.4111L35.6527 43.4791L35.6527 43.4791L35.4646 43.4111ZM30.2837 53.697L30.1168 53.5867L30.1172 53.5862L30.2837 53.697ZM29.7803 53.798L29.8911 53.6315L29.8937 53.6333L29.7803 53.798ZM29.6792 53.2946L29.8458 53.4053L29.8457 53.4054L29.6792 53.2946ZM34.7812 43.1644L34.9693 43.2324L34.9693 43.2324L34.7812 43.1644ZM35.7647 39.8441L35.9231 39.7221L35.9795 39.7952L35.9604 39.8855L35.7647 39.8441ZM35.4418 39.4052L35.6049 39.2894L35.6049 39.2895L35.4418 39.4052ZM33.1136 33.9953L33.3135 33.9883L33.3135 33.9883L33.1136 33.9953ZM34.032 32.2542L33.9694 32.0642L33.9697 32.0641L34.032 32.2542ZM35.8392 32.887L35.6883 33.0183L35.6881 33.0181L35.8392 32.887ZM36.5392 34.4464L36.3441 34.4902L36.3441 34.4902L36.5392 34.4464ZM36.5443 39.6562L36.3909 39.7845L36.33 39.7117L36.3479 39.6186L36.5443 39.6562ZM37.588 40.5492L37.6808 40.372L37.6809 40.372L37.588 40.5492ZM40.9653 40.3063L41.0474 40.4887L41.0473 40.4888L40.9653 40.3063ZM42.0858 39.7493L42.2856 39.7562L42.2817 39.8702L42.1816 39.9249L42.0858 39.7493ZM43.2686 35.8093L43.4451 35.9033L43.4451 35.9033L43.2686 35.8093ZM46.53 32.6256L46.5948 32.8149L46.5947 32.8149L46.53 32.6256ZM47.802 32.8137L47.658 32.9525L47.6579 32.9524L47.802 32.8137ZM48.0773 33.5396L48.2769 33.5267L48.2769 33.5269L48.0773 33.5396ZM46.3274 37.3963L46.182 37.2589L46.182 37.2589L46.3274 37.3963ZM42.8126 40.1737L42.6128 40.1806L42.6086 40.061L42.7121 40.0008L42.8126 40.1737ZM42.9015 40.9854L42.7049 41.0219L42.7048 41.0216L42.9015 40.9854ZM44.4291 43.7782L44.5376 43.9462L44.4038 44.0326L44.2896 43.9216L44.4291 43.7782ZM44.587 43.6761L44.4784 43.5082L44.4804 43.5069L44.587 43.6761ZM49.9557 42.275L49.9506 42.4749L49.9504 42.4749L49.9557 42.275ZM51.0855 42.6018L50.9601 42.7576L50.96 42.7576L51.0855 42.6018ZM51.4936 43.5384L51.6926 43.5587L51.6926 43.5588L51.4936 43.5384ZM50.3878 44.9439L50.4792 45.1218L50.4791 45.1218L50.3878 44.9439ZM46.1578 45.5937L46.2087 45.4002L46.2088 45.4003L46.1578 45.5937ZM44.3869 44.6987L44.2661 44.5393L44.389 44.4461L44.5103 44.5413L44.3869 44.6987ZM41.3609 48.0002L41.2011 47.88L41.2011 47.88L41.3609 48.0002ZM35.1751 56.8837L35.3436 56.9915L35.3434 56.9918L35.1751 56.8837ZM35.1427 56.9341L34.9743 56.8262L34.9745 56.826L35.1427 56.9341ZM47.1427 33.4623C47.145 33.4638 47.1395 33.4597 47.1196 33.4567C47.1002 33.4539 47.0739 33.453 47.041 33.4556C46.9746 33.4607 46.8981 33.4785 46.8298 33.5019L46.6999 33.1236C46.7921 33.092 46.9023 33.0651 47.01 33.0568C47.1102 33.049 47.2443 33.054 47.3548 33.1231L47.1427 33.4623ZM46.8296 33.502C45.7752 33.8626 44.9011 34.7152 44.0868 36.2449L43.7337 36.057C44.573 34.4804 45.5121 33.5298 46.7001 33.1235L46.8296 33.502ZM44.0867 36.245C43.4959 37.3538 43.1533 38.3733 43.0457 39.327L42.6483 39.2822C42.7628 38.266 43.1258 37.1978 43.7337 36.0569L44.0867 36.245ZM42.7414 39.1348C43.8202 38.4638 44.7949 37.6685 45.654 36.7598L45.9447 37.0346C45.0617 37.9685 44.0602 38.7855 42.9526 39.4744L42.7414 39.1348ZM45.654 36.7599C46.7629 35.5856 47.2151 34.5851 47.1527 33.5978L47.5519 33.5726C47.6243 34.718 47.0895 35.8224 45.9448 37.0345L45.654 36.7599ZM47.1527 33.5977C47.1487 33.5337 47.1419 33.4929 47.135 33.4678C47.128 33.4424 47.124 33.445 47.1339 33.4553L47.4235 33.1794C47.4749 33.2334 47.5033 33.299 47.5205 33.3613C47.5378 33.4237 47.5471 33.495 47.5519 33.5727L47.1527 33.5977ZM47.1517 33.4719L47.1217 33.4472L47.3757 33.1382L47.4057 33.1628L47.1517 33.4719ZM45.1299 44.1019C45.5105 44.3697 45.9338 44.5772 46.394 44.6979L46.2926 45.0848C45.7813 44.9507 45.315 44.7212 44.8998 44.4291L45.1299 44.1019ZM46.3942 44.6979C47.4545 44.9772 48.6525 44.7931 49.9646 44.1198L50.1472 44.4757C48.7746 45.18 47.474 45.396 46.2924 45.0847L46.3942 44.6979ZM49.9645 44.1199C50.1267 44.0366 50.2783 43.9138 50.3909 43.7826C50.5074 43.6469 50.564 43.5241 50.572 43.4444L50.97 43.4848C50.9501 43.6808 50.8354 43.879 50.6944 44.0432C50.5496 44.2118 50.3576 44.3677 50.1472 44.4757L49.9645 44.1199ZM50.572 43.4448C50.5742 43.4228 50.5728 43.4105 50.5685 43.3992C50.5644 43.3882 50.5516 43.3617 50.5043 43.3237L50.7552 43.0121C50.8482 43.087 50.9099 43.1697 50.9433 43.2593C50.9766 43.3485 50.9756 43.4281 50.97 43.4844L50.572 43.4448ZM50.5053 43.3245C50.4549 43.2844 50.381 43.2535 50.2784 43.2328C50.1763 43.2123 50.0591 43.2046 49.9316 43.2014L49.9414 42.8016C50.0753 42.8048 50.2203 42.8132 50.3572 42.8407C50.4937 42.8681 50.6356 42.9171 50.7542 43.0113L50.5053 43.3245ZM49.9312 43.2014C48.1786 43.1554 46.4728 43.5957 45.1204 44.4354L44.9093 44.0956C46.3343 43.2108 48.1185 42.7537 49.9417 42.8016L49.9312 43.2014ZM34.8732 33.2682C34.6508 33.1291 34.44 33.0953 34.3218 33.1345L34.1959 32.7548C34.4763 32.6619 34.8161 32.7607 35.0853 32.929L34.8732 33.2682ZM34.3212 33.1347C34.2151 33.1695 34.1356 33.2757 34.0865 33.4599C34.0389 33.6383 34.0352 33.8381 34.0395 33.9628L33.6398 33.9765C33.635 33.8376 33.6374 33.5917 33.7 33.3569C33.761 33.128 33.8956 32.8534 34.1965 32.7547L34.3212 33.1347ZM34.0395 33.9626C34.0988 35.6378 35.1389 37.3635 36.1055 38.7393L35.7782 38.9692C34.8138 37.5966 33.7037 35.7829 33.6398 33.9767L34.0395 33.9626ZM35.7439 38.8252C35.9417 37.4753 35.954 36.0714 35.6354 34.6494L36.0257 34.5619C36.3573 36.0418 36.3429 37.4963 36.1397 38.8832L35.7439 38.8252ZM35.6354 34.6496C35.5425 34.2376 35.414 33.8094 35.1406 33.4949L35.4425 33.2325C35.7867 33.6284 35.9315 34.1442 36.0256 34.5616L35.6354 34.6496ZM35.1405 33.4947C35.0639 33.4064 34.9715 33.3297 34.8732 33.2682L35.0853 32.929C35.214 33.0096 35.3376 33.1116 35.4426 33.2326L35.1405 33.4947ZM34.5387 57.2148L34.5351 57.2126L34.7472 56.8734L34.7508 56.8757L34.5387 57.2148ZM34.5333 57.2114C34.2706 57.0432 34.1956 56.6948 34.3632 56.4331L34.7001 56.6488C34.651 56.7255 34.6733 56.8261 34.749 56.8746L34.5333 57.2114ZM34.3633 56.4329L34.3953 56.3831L34.7319 56.5993L34.6999 56.6491L34.3633 56.4329ZM34.3951 56.3835C36.2831 53.4318 38.3776 50.4231 40.6208 47.443L40.9404 47.6836C38.703 50.656 36.6143 53.6564 34.7321 56.599L34.3951 56.3835ZM40.6207 47.4431C41.5537 46.2026 42.5098 44.9933 43.713 44.0485L43.96 44.3631C42.8023 45.2722 41.8734 46.443 40.9404 47.6835L40.6207 47.4431ZM43.6938 44.3459C42.79 43.4256 42.1914 42.2377 41.9901 41.1546L42.3833 41.0815C42.5697 42.0842 43.1296 43.2005 43.9792 44.0656L43.6938 44.3459ZM41.99 41.1541C41.9551 40.9634 41.9285 40.7719 41.9101 40.5786L42.3083 40.5406C42.3256 40.7226 42.3506 40.9028 42.3834 41.0821L41.99 41.1541ZM42.2015 40.737C41.9213 40.8828 41.6354 41.0204 41.3447 41.1511L41.1806 40.7863C41.4651 40.6584 41.7441 40.5241 42.0169 40.3822L42.2015 40.737ZM41.3448 41.1511C39.7062 41.8885 38.3243 41.9817 37.1581 41.37L37.3439 41.0157C38.3602 41.5489 39.6036 41.496 41.1806 40.7863L41.3448 41.1511ZM37.1582 41.3701C36.7992 41.1822 36.4888 40.9359 36.2158 40.6655L36.4972 40.3813C36.7492 40.6308 37.028 40.8504 37.3437 41.0156L37.1582 41.3701ZM36.5508 40.5705C36.3029 41.5937 35.9819 42.5683 35.6527 43.4791L35.2765 43.3432C35.6032 42.4394 35.9189 41.4799 36.1621 40.4763L36.5508 40.5705ZM35.6527 43.4791C34.335 47.1239 32.5847 50.5985 30.4502 53.8077L30.1172 53.5862C32.2338 50.4038 33.9697 46.9579 35.2765 43.3431L35.6527 43.4791ZM30.4506 53.8072C30.2791 54.0668 29.9203 54.1372 29.6669 53.9628L29.8937 53.6333C29.9609 53.6795 30.0676 53.6613 30.1168 53.5867L30.4506 53.8072ZM29.6694 53.9645C29.411 53.7925 29.34 53.4432 29.5127 53.1838L29.8457 53.4054C29.7957 53.4805 29.8161 53.5816 29.8911 53.6315L29.6694 53.9645ZM29.5127 53.1838C31.5961 50.0504 33.3057 46.656 34.5932 43.0964L34.9693 43.2324C33.671 46.822 31.9471 50.245 29.8458 53.4053L29.5127 53.1838ZM34.5932 43.0964C34.9661 42.0651 35.3243 40.9592 35.569 39.8027L35.9604 39.8855C35.7102 41.0677 35.3452 42.1931 34.9693 43.2324L34.5932 43.0964ZM35.6062 39.9661C35.4905 39.8158 35.3814 39.6657 35.2787 39.521L35.6049 39.2895C35.7059 39.4318 35.8117 39.5774 35.9231 39.7221L35.6062 39.9661ZM35.2787 39.521C34.1671 37.9557 32.9861 36.045 32.9138 34.0024L33.3135 33.9883C33.3812 35.8998 34.4926 37.7232 35.6049 39.2894L35.2787 39.521ZM32.9138 34.0024C32.8801 33.0539 33.2333 32.3068 33.9694 32.0642L34.0946 32.4441C33.5989 32.6075 33.283 33.1289 33.3135 33.9883L32.9138 34.0024ZM33.9697 32.0641C34.3617 31.9355 34.7635 31.989 35.1129 32.1301C35.4618 32.2709 35.7712 32.5036 35.9902 32.7559L35.6881 33.0181C35.5082 32.8108 35.2501 32.6168 34.9632 32.501C34.6769 32.3854 34.3746 32.3523 34.0944 32.4442L33.9697 32.0641ZM35.99 32.7557C36.4397 33.2724 36.6199 33.8923 36.7344 34.4026L36.3441 34.4902C36.2328 33.994 36.0697 33.4566 35.6883 33.0183L35.99 32.7557ZM36.7344 34.4026C37.1468 36.2404 37.06 38.0253 36.7407 39.6938L36.3479 39.6186C36.6598 37.9884 36.7415 36.2609 36.3441 34.4902L36.7344 34.4026ZM36.6977 39.5279C36.9895 39.8769 37.3081 40.1768 37.6808 40.372L37.4952 40.7263C37.0578 40.4972 36.6999 40.154 36.3909 39.7845L36.6977 39.5279ZM37.6809 40.372C38.4839 40.7931 39.5172 40.7376 40.8833 40.1239L41.0473 40.4888C39.6301 41.1254 38.4548 41.2295 37.4951 40.7263L37.6809 40.372ZM40.8832 40.124C41.2621 39.9534 41.6308 39.7699 41.9899 39.5738L42.1816 39.9249C41.8135 40.1259 41.4356 40.3139 41.0474 40.4887L40.8832 40.124ZM41.8859 39.7425C41.9295 38.4706 42.3328 37.1404 43.0921 35.7153L43.4451 35.9033C42.7063 37.2901 42.3267 38.5605 42.2856 39.7562L41.8859 39.7425ZM43.0921 35.7153C43.6731 34.6242 44.6716 33.0492 46.4653 32.4364L46.5947 32.8149C44.9565 33.3745 44.02 34.8238 43.4451 35.9033L43.0921 35.7153ZM46.4652 32.4364C47.0316 32.2425 47.5871 32.3021 47.9461 32.675L47.6579 32.9524C47.4434 32.7297 47.0719 32.6515 46.5948 32.8149L46.4652 32.4364ZM47.946 32.6749C48.2179 32.9571 48.2633 33.3146 48.2769 33.5267L47.8778 33.5524C47.8654 33.3601 47.8263 33.1272 47.658 32.9525L47.946 32.6749ZM48.2769 33.5269C48.3895 35.3012 47.2785 36.681 46.4728 37.5337L46.182 37.2589C46.9812 36.4133 47.9787 35.1444 47.8777 33.5522L48.2769 33.5269ZM46.4728 37.5336C45.4354 38.6316 44.2421 39.5735 42.9132 40.3466L42.7121 40.0008C44.0086 39.2466 45.1716 38.3284 46.182 37.2589L46.4728 37.5336ZM43.0125 40.1667C43.0217 40.4314 43.0508 40.6918 43.0982 40.9492L42.7048 41.0216C42.654 40.7455 42.6227 40.4656 42.6128 40.1806L43.0125 40.1667ZM43.0981 40.9489C43.267 41.8575 43.7844 42.8724 44.5685 43.6348L44.2896 43.9216C43.4468 43.102 42.889 42.0127 42.7049 41.0219L43.0981 40.9489ZM44.3205 43.6102L44.4784 43.5082L44.6955 43.8441L44.5376 43.9462L44.3205 43.6102ZM44.4804 43.5069C46.0316 42.5301 47.9774 42.0231 49.9609 42.075L49.9504 42.4749C48.0388 42.4248 46.1721 42.9143 44.6935 43.8454L44.4804 43.5069ZM49.9607 42.075C50.3362 42.0846 50.8193 42.1307 51.2109 42.446L50.96 42.7576C50.6788 42.5311 50.3145 42.4842 49.9506 42.4749L49.9607 42.075ZM51.2108 42.446C51.5602 42.727 51.7368 43.1243 51.6926 43.5587L51.2946 43.5182C51.3242 43.2274 51.2111 42.9595 50.9601 42.7576L51.2108 42.446ZM51.6926 43.5588C51.6561 43.9153 51.4773 44.2406 51.2531 44.5042C51.0282 44.7687 50.7464 44.9845 50.4792 45.1218L50.2964 44.766C50.5181 44.6521 50.7581 44.4688 50.9484 44.2451C51.1393 44.0206 51.269 43.7688 51.2946 43.5181L51.6926 43.5588ZM50.4791 45.1218C48.9408 45.9119 47.4665 46.1455 46.1068 45.787L46.2088 45.4003C47.45 45.7275 48.8222 45.5231 50.2964 44.766L50.4791 45.1218ZM46.1069 45.7871C45.4188 45.606 44.7997 45.2768 44.2634 44.856L44.5103 44.5413C45.0089 44.9324 45.5794 45.2346 46.2087 45.4002L46.1069 45.7871ZM44.5077 44.8581C43.3778 45.7143 42.4853 46.8389 41.5207 48.1205L41.2011 47.88C42.1646 46.5999 43.0866 45.4331 44.2661 44.5393L44.5077 44.8581ZM41.5208 48.1205C39.295 51.0784 37.2161 54.063 35.3436 56.9915L35.0066 56.776C36.885 53.8384 38.9697 50.8454 41.2011 47.88L41.5208 48.1205ZM35.3434 56.9918L35.311 57.0422L34.9745 56.826L35.0068 56.7757L35.3434 56.9918ZM35.3112 57.042C35.1444 57.3023 34.7994 57.3779 34.5387 57.2148L34.7508 56.8757C34.827 56.9234 34.9267 56.9006 34.9743 56.8262L35.3112 57.042Z" fill="#BCC7BD" mask="url(#path-5-outside-3_1410_12451)"/>
<mask id="path-7-outside-4_1410_12451" maskUnits="userSpaceOnUse" x="67.1434" y="35.0427" width="8.58613" height="7.95092" fill="black">
<rect fill="white" x="67.1434" y="35.0427" width="8.58613" height="7.95092"/>
<path d="M68.8295 39.157C68.7178 39.0871 68.6484 38.9589 68.6606 38.8186C68.6764 38.6227 68.8457 38.4756 69.0421 38.4867L74.2115 38.769C74.6859 38.7951 74.8641 39.0125 74.9306 39.191C74.9804 39.3263 74.9592 39.4718 74.8732 39.5811C74.6651 39.8466 74.6523 39.863 68.9803 39.2101L68.8295 39.157Z"/>
</mask>
<path d="M68.8295 39.157C68.7178 39.0871 68.6484 38.9589 68.6606 38.8186C68.6764 38.6227 68.8457 38.4756 69.0421 38.4867L74.2115 38.769C74.6859 38.7951 74.8641 39.0125 74.9306 39.191C74.9804 39.3263 74.9592 39.4718 74.8732 39.5811C74.6651 39.8466 74.6523 39.863 68.9803 39.2101L68.8295 39.157Z" fill="#BCC7BD"/>
<path d="M68.6606 38.8186L68.8599 38.8347L68.8598 38.8358L68.6606 38.8186ZM69.0421 38.4867L69.0311 38.6864L69.0308 38.6864L69.0421 38.4867ZM74.2115 38.769L74.2224 38.5693L74.2225 38.5693L74.2115 38.769ZM74.9306 39.191L75.1181 39.1212L75.1183 39.1219L74.9306 39.191ZM74.8732 39.5811L74.7158 39.4577L74.716 39.4574L74.8732 39.5811ZM68.9803 39.2101L68.9574 39.4088L68.9351 39.4062L68.9138 39.3988L68.9803 39.2101ZM68.7235 39.3266C68.5506 39.2184 68.4425 39.0194 68.4613 38.8014L68.8598 38.8358C68.8544 38.8984 68.885 38.9558 68.9356 38.9874L68.7235 39.3266ZM68.4612 38.8025C68.4858 38.4979 68.749 38.2699 69.0533 38.287L69.0308 38.6864C68.9424 38.6814 68.867 38.7474 68.8599 38.8347L68.4612 38.8025ZM69.053 38.287L74.2224 38.5693L74.2006 38.9687L69.0311 38.6864L69.053 38.287ZM74.2225 38.5693C74.4889 38.584 74.6908 38.6536 74.8401 38.76C74.99 38.8668 75.0733 39.001 75.118 39.1212L74.7432 39.2608C74.7215 39.2025 74.6824 39.1387 74.608 39.0857C74.5329 39.0323 74.4084 38.9802 74.2005 38.9687L74.2225 38.5693ZM75.1183 39.1219C75.1909 39.3192 75.1614 39.5383 75.0304 39.7047L74.716 39.4574C74.7569 39.4054 74.7699 39.3334 74.7429 39.2601L75.1183 39.1219ZM75.0306 39.7044C75.0069 39.7347 74.9698 39.7836 74.9163 39.8255C74.8587 39.8707 74.7915 39.9015 74.7091 39.9214C74.5573 39.9579 74.3309 39.9617 73.9637 39.9397C73.2185 39.8949 71.79 39.7349 68.9574 39.4088L69.0032 39.0114C71.8427 39.3383 73.2565 39.4965 73.9877 39.5404C74.3587 39.5626 74.5291 39.5533 74.6154 39.5325C74.6521 39.5237 74.6644 39.5147 74.6694 39.5108C74.6787 39.5036 74.6874 39.4939 74.7158 39.4577L75.0306 39.7044ZM68.9138 39.3988L68.7631 39.3456L68.896 38.9684L69.0468 39.0215L68.9138 39.3988Z" fill="#BCC7BD" mask="url(#path-7-outside-4_1410_12451)"/>
<mask id="path-9-outside-5_1410_12451" maskUnits="userSpaceOnUse" x="45.2332" y="9.82433" width="7.95092" height="8.58613" fill="black">
<rect fill="white" x="45.2332" y="9.82433" width="7.95092" height="8.58613"/>
<path d="M48.7958 16.8078C48.6793 16.7349 48.6091 16.5986 48.6278 16.4532L49.2999 11.2058C49.3253 11.0066 49.5074 10.8659 49.7062 10.8919C49.9048 10.917 50.0465 11.0988 50.0211 11.298L49.3489 16.5454C49.3235 16.7446 49.1414 16.8853 48.9422 16.8599L48.7958 16.8078Z"/>
</mask>
<path d="M48.7958 16.8078C48.6793 16.7349 48.6091 16.5986 48.6278 16.4532L49.2999 11.2058C49.3253 11.0066 49.5074 10.8659 49.7062 10.8919C49.9048 10.917 50.0465 11.0988 50.0211 11.298L49.3489 16.5454C49.3235 16.7446 49.1414 16.8853 48.9422 16.8599L48.7958 16.8078Z" fill="#BCC7BD"/>
<path d="M48.6278 16.4532L48.8261 16.4786L48.8261 16.4787L48.6278 16.4532ZM49.2999 11.2058L49.4983 11.2311L49.4983 11.2312L49.2999 11.2058ZM49.7062 10.8919L49.6812 11.0903L49.6803 11.0902L49.7062 10.8919ZM50.0211 11.298L50.2195 11.3233L50.2194 11.3234L50.0211 11.298ZM49.3489 16.5454L49.1505 16.5201L49.1505 16.52L49.3489 16.5454ZM48.9422 16.8599L48.9169 17.0583L48.8955 17.0556L48.8752 17.0483L48.9422 16.8599ZM48.6898 16.9774C48.5096 16.8647 48.4003 16.6536 48.4294 16.4277L48.8261 16.4787C48.8178 16.5436 48.8489 16.6051 48.9019 16.6383L48.6898 16.9774ZM48.4294 16.4278L49.1015 11.1803L49.4983 11.2312L48.8261 16.4786L48.4294 16.4278ZM49.1015 11.1804C49.1409 10.8718 49.4233 10.6532 49.7322 10.6936L49.6803 11.0902C49.5916 11.0786 49.5098 11.1414 49.4983 11.2311L49.1015 11.1804ZM49.7313 10.6935C50.0392 10.7323 50.2589 11.0141 50.2195 11.3233L49.8227 11.2727C49.834 11.1836 49.7705 11.1016 49.6812 11.0903L49.7313 10.6935ZM50.2194 11.3234L49.5473 16.5709L49.1505 16.52L49.8227 11.2726L50.2194 11.3234ZM49.5473 16.5708C49.5079 16.8797 49.2255 17.0977 48.9169 17.0583L48.9675 16.6615C49.0573 16.673 49.1391 16.6096 49.1505 16.5201L49.5473 16.5708ZM48.8752 17.0483L48.7288 16.9963L48.8628 16.6194L49.0092 16.6715L48.8752 17.0483Z" fill="#BCC7BD" mask="url(#path-9-outside-5_1410_12451)"/>
<mask id="path-11-outside-6_1410_12451" maskUnits="userSpaceOnUse" x="24.286" y="11.9154" width="8.90374" height="7.63332" fill="black">
<rect fill="white" x="24.286" y="11.9154" width="8.90374" height="7.63332"/>
<path d="M30.4877 18.0059L30.4311 17.962L26.7378 14.4811C26.6409 14.3902 26.3482 14.1139 26.4499 13.7633C26.4914 13.6204 26.6004 13.5146 26.7421 13.4814C27.0377 13.4117 27.2023 13.3743 30.9477 17.4517C31.0802 17.5959 31.0746 17.8184 30.9357 17.9559C30.8135 18.076 30.6279 18.0935 30.4877 18.0059Z"/>
</mask>
<path d="M30.4877 18.0059L30.4311 17.962L26.7378 14.4811C26.6409 14.3902 26.3482 14.1139 26.4499 13.7633C26.4914 13.6204 26.6004 13.5146 26.7421 13.4814C27.0377 13.4117 27.2023 13.3743 30.9477 17.4517C31.0802 17.5959 31.0746 17.8184 30.9357 17.9559C30.8135 18.076 30.6279 18.0935 30.4877 18.0059Z" fill="#BCC7BD"/>
<path d="M30.4311 17.962L30.3087 18.1202L30.301 18.1142L30.2939 18.1076L30.4311 17.962ZM26.7378 14.4811L26.8746 14.3352L26.875 14.3355L26.7378 14.4811ZM26.4499 13.7633L26.2578 13.7076L26.2578 13.7075L26.4499 13.7633ZM26.7421 13.4814L26.788 13.6761L26.7877 13.6762L26.7421 13.4814ZM30.9477 17.4517L30.8005 17.587L30.8005 17.587L30.9477 17.4517ZM30.9357 17.9559L31.0764 18.098L31.076 18.0985L30.9357 17.9559ZM30.3653 18.164L30.3087 18.1202L30.5535 17.8039L30.6101 17.8477L30.3653 18.164ZM30.2939 18.1076L26.6007 14.6266L26.875 14.3355L30.5683 17.8165L30.2939 18.1076ZM26.6011 14.627C26.5517 14.5807 26.4352 14.472 26.3467 14.3205C26.2568 14.1666 26.1868 13.9525 26.2578 13.7076L26.642 13.819C26.6113 13.9247 26.6368 14.0241 26.6921 14.1187C26.7488 14.2157 26.827 14.2905 26.8746 14.3352L26.6011 14.627ZM26.2578 13.7075C26.3187 13.4979 26.4817 13.337 26.6965 13.2867L26.7877 13.6762C26.719 13.6922 26.6641 13.7428 26.642 13.8191L26.2578 13.7075ZM26.6962 13.2868C26.7309 13.2786 26.788 13.2643 26.8554 13.2648C26.9266 13.2653 26.9986 13.2814 27.0772 13.3157C27.2248 13.3801 27.4107 13.5158 27.685 13.7628C28.2397 14.2619 29.2237 15.2792 31.095 17.3164L30.8005 17.587C28.9264 15.5468 27.9554 14.5442 27.4175 14.0601C27.1456 13.8154 27.0008 13.7187 26.9173 13.6823C26.8804 13.6662 26.8618 13.6648 26.8527 13.6648C26.8399 13.6647 26.8272 13.6668 26.788 13.6761L26.6962 13.2868ZM31.095 17.3164C31.3004 17.5399 31.2917 17.885 31.0764 18.098L30.7951 17.8137C30.8576 17.7518 30.8601 17.6519 30.8005 17.587L31.095 17.3164ZM31.076 18.0985C30.8871 18.2842 30.5994 18.3116 30.3817 18.1754L30.5938 17.8363C30.6563 17.8754 30.74 17.8678 30.7955 17.8133L31.076 18.0985Z" fill="#BCC7BD" mask="url(#path-11-outside-6_1410_12451)"/>
<mask id="path-13-outside-7_1410_12451" maskUnits="userSpaceOnUse" x="13.286" y="26.2019" width="9.43398" height="8.48117" fill="black">
<rect fill="white" x="13.286" y="26.2019" width="9.43398" height="8.48117"/>
<path d="M14.9724 30.3164C14.8522 30.2412 14.7822 30.0991 14.8064 29.9504C14.8377 29.7524 15.0244 29.6179 15.2229 29.6497L20.7556 30.5389C20.9542 30.5706 21.0887 30.7573 21.0563 30.9555C21.0249 31.1534 20.8383 31.2879 20.6403 31.2565L15.1071 30.367L14.9724 30.3164Z"/>
</mask>
<path d="M14.9724 30.3164C14.8522 30.2412 14.7822 30.0991 14.8064 29.9504C14.8377 29.7524 15.0244 29.6179 15.2229 29.6497L20.7556 30.5389C20.9542 30.5706 21.0887 30.7573 21.0563 30.9555C21.0249 31.1534 20.8383 31.2879 20.6403 31.2565L15.1071 30.367L14.9724 30.3164Z" fill="#BCC7BD"/>
<path d="M14.8064 29.9504L15.0039 29.9817L15.0038 29.9824L14.8064 29.9504ZM15.2229 29.6497L15.2545 29.4522L15.2547 29.4522L15.2229 29.6497ZM20.7556 30.5389L20.724 30.7364L20.7238 30.7363L20.7556 30.5389ZM21.0563 30.9555L20.8588 30.9241L20.8589 30.9232L21.0563 30.9555ZM20.6403 31.2565L20.609 31.4541L20.6086 31.454L20.6403 31.2565ZM15.1071 30.367L15.0753 30.5644L15.0555 30.5613L15.0367 30.5542L15.1071 30.367ZM14.8663 30.4859C14.6804 30.3697 14.5714 30.1495 14.6089 29.9184L15.0038 29.9824C14.993 30.0488 15.0239 30.1127 15.0784 30.1468L14.8663 30.4859ZM14.6088 29.9191C14.6577 29.611 14.9477 29.4031 15.2545 29.4522L15.1914 29.8472C15.101 29.8327 15.0178 29.8939 15.0039 29.9817L14.6088 29.9191ZM15.2547 29.4522L20.7873 30.3414L20.7238 30.7363L15.1912 29.8472L15.2547 29.4522ZM20.7872 30.3414C21.0951 30.3907 21.3039 30.6803 21.2537 30.9877L20.8589 30.9232C20.8734 30.8342 20.8132 30.7506 20.724 30.7364L20.7872 30.3414ZM21.2538 30.9868C21.205 31.2947 20.9152 31.5026 20.609 31.4541L20.6716 31.059C20.7613 31.0732 20.8448 31.0122 20.8588 30.9241L21.2538 30.9868ZM20.6086 31.454L15.0753 30.5644L15.1388 30.1695L20.6721 31.0591L20.6086 31.454ZM15.0367 30.5542L14.902 30.5036L15.0428 30.1291L15.1774 30.1798L15.0367 30.5542Z" fill="#BCC7BD" mask="url(#path-13-outside-7_1410_12451)"/>
<path d="M61.679 24.8773L61.6708 24.8722L66.0958 21.8841L66.1549 21.9648L66.1548 21.9648C66.1548 21.9648 66.1547 21.9649 66.1547 21.9649L62.1983 24.8577C62.1983 24.8578 62.1982 24.8578 62.1981 24.8579C62.0405 24.9741 61.8343 24.9744 61.679 24.8773Z" fill="#BCC7BD" stroke="#BCC7BD" stroke-width="0.2"/>
<path d="M64.9676 57.5543L64.9598 57.5494L61.6096 53.1504L61.6893 53.09L61.6095 53.1502L61.6096 53.1503C61.4551 52.9464 61.4956 52.6556 61.7002 52.5016C61.9047 52.3477 62.1949 52.389 62.3491 52.5925L62.3492 52.5927L65.5828 56.8826L65.5828 56.8827C65.7366 57.0869 65.6964 57.3777 65.4917 57.5317L65.4917 57.5318C65.3337 57.6506 65.1253 57.6529 64.9676 57.5543Z" fill="#BCC7BD" stroke="#BCC7BD" stroke-width="0.2"/>
<mask id="path-17-outside-8_1410_12451" maskUnits="userSpaceOnUse" x="25.827" y="54.3138" width="5.01445" height="5.01445" fill="black">
<rect fill="white" x="25.827" y="54.3138" width="5.01445" height="5.01445"/>
<path d="M29.925 56.2723L29.8508 56.2765C28.828 56.7139 27.8421 57.2896 26.9194 57.9893L26.8744 58.1811L27.0391 58.2141C27.9445 57.5278 28.9122 56.9617 29.9161 56.5331L29.9988 56.3555L29.925 56.2723Z"/>
</mask>
<path d="M29.925 56.2723L29.8508 56.2765C28.828 56.7139 27.8421 57.2896 26.9194 57.9893L26.8744 58.1811L27.0391 58.2141C27.9445 57.5278 28.9122 56.9617 29.9161 56.5331L29.9988 56.3555L29.925 56.2723Z" fill="#BCC7BD"/>
<path d="M29.8508 56.2765L29.8396 56.0768L29.8045 56.0787L29.7721 56.0926L29.8508 56.2765ZM26.9194 57.9893L26.7985 57.8299L26.7411 57.8735L26.7246 57.9437L26.9194 57.9893ZM26.8744 58.1811L26.6797 58.1355L26.6326 58.3367L26.8352 58.3772L26.8744 58.1811ZM27.0391 58.2141L26.9999 58.4102L27.0882 58.4279L27.1599 58.3735L27.0391 58.2141ZM29.9161 56.5331L29.9946 56.7171L30.065 56.687L30.0974 56.6176L29.9161 56.5331ZM29.9988 56.3555L30.1801 56.4399L30.2356 56.321L30.1485 56.2228L29.9988 56.3555ZM29.9138 56.0726L29.8396 56.0768L29.862 56.4761L29.9363 56.472L29.9138 56.0726ZM29.7721 56.0926C28.7338 56.5366 27.7338 57.1208 26.7985 57.8299L27.0402 58.1487C27.9504 57.4585 28.9223 56.8911 29.9294 56.4603L29.7721 56.0926ZM26.7246 57.9437L26.6797 58.1355L27.0692 58.2267L27.1141 58.0349L26.7246 57.9437ZM26.8352 58.3772L26.9999 58.4102L27.0784 58.018L26.9137 57.985L26.8352 58.3772ZM27.1599 58.3735C28.0529 57.6966 29.0064 57.1389 29.9946 56.7171L29.8376 56.3492C28.8179 56.7845 27.8361 57.359 26.9183 58.0547L27.1599 58.3735ZM30.0974 56.6176L30.1801 56.4399L29.8175 56.271L29.7348 56.4487L30.0974 56.6176ZM30.1485 56.2228L30.0746 56.1396L29.7754 56.405L29.8492 56.4882L30.1485 56.2228Z" fill="#BCC7BD" mask="url(#path-17-outside-8_1410_12451)"/>
<mask id="path-19-outside-9_1410_12451" maskUnits="userSpaceOnUse" x="24.8192" y="53.1568" width="5.01445" height="5.01445" fill="black">
<rect fill="white" x="24.8192" y="53.1568" width="5.01445" height="5.01445"/>
<path d="M28.9172 55.1153L28.843 55.1195C27.8202 55.5569 26.8343 56.1326 25.9115 56.8323L25.8666 57.0241L26.0313 57.0571C26.9367 56.3708 27.9043 55.8047 28.9083 55.3761L28.991 55.1985L28.9172 55.1153Z"/>
</mask>
<path d="M28.9172 55.1153L28.843 55.1195C27.8202 55.5569 26.8343 56.1326 25.9115 56.8323L25.8666 57.0241L26.0313 57.0571C26.9367 56.3708 27.9043 55.8047 28.9083 55.3761L28.991 55.1985L28.9172 55.1153Z" fill="#BCC7BD"/>
<path d="M28.843 55.1195L28.8317 54.9198L28.7966 54.9218L28.7643 54.9356L28.843 55.1195ZM25.9115 56.8323L25.7907 56.6729L25.7332 56.7165L25.7168 56.7867L25.9115 56.8323ZM25.8666 57.0241L25.6719 56.9786L25.6248 57.1797L25.8274 57.2203L25.8666 57.0241ZM26.0313 57.0571L25.992 57.2532L26.0804 57.2709L26.1521 57.2165L26.0313 57.0571ZM28.9083 55.3761L28.9868 55.5601L29.0572 55.53L29.0896 55.4606L28.9083 55.3761ZM28.991 55.1985L29.1723 55.283L29.2278 55.164L29.1406 55.0658L28.991 55.1985ZM28.906 54.9156L28.8317 54.9198L28.8542 55.3192L28.9284 55.315L28.906 54.9156ZM28.7643 54.9356C27.726 55.3797 26.726 55.9638 25.7907 56.6729L26.0324 56.9917C26.9426 56.3015 27.9144 55.7341 28.9216 55.3034L28.7643 54.9356ZM25.7168 56.7867L25.6719 56.9786L26.0614 57.0697L26.1063 56.8779L25.7168 56.7867ZM25.8274 57.2203L25.992 57.2532L26.0706 56.861L25.9059 56.828L25.8274 57.2203ZM26.1521 57.2165C27.0451 56.5396 27.9986 55.9819 28.9868 55.5601L28.8297 55.1922C27.8101 55.6275 26.8283 56.202 25.9105 56.8977L26.1521 57.2165ZM29.0896 55.4606L29.1723 55.283L28.8097 55.114L28.727 55.2917L29.0896 55.4606ZM29.1406 55.0658L29.0668 54.9826L28.7676 55.248L28.8414 55.3312L29.1406 55.0658Z" fill="#BCC7BD" mask="url(#path-19-outside-9_1410_12451)"/>
<mask id="path-21-outside-10_1410_12451" maskUnits="userSpaceOnUse" x="24.8015" y="54.4397" width="7.82121" height="8.47577" fill="black">
<rect fill="white" x="24.8015" y="54.4397" width="7.82121" height="8.47577"/>
<path d="M31.8335 57.0372L31.7662 57.0452C29.814 58.0971 27.8795 59.2893 26.0162 60.5879L25.971 60.7468L26.1022 60.7829C27.9588 59.489 29.8866 58.3009 31.8311 57.253L31.8912 57.0994L31.8335 57.0372Z"/>
</mask>
<path d="M31.8335 57.0372L31.7662 57.0452C29.814 58.0971 27.8795 59.2893 26.0162 60.5879L25.971 60.7468L26.1022 60.7829C27.9588 59.489 29.8866 58.3009 31.8311 57.253L31.8912 57.0994L31.8335 57.0372Z" fill="#BCC7BD"/>
<path d="M31.7662 57.0452L31.7427 56.8466L31.7049 56.8511L31.6714 56.8692L31.7662 57.0452ZM26.0162 60.5879L25.9018 60.4238L25.8433 60.4646L25.8238 60.5332L26.0162 60.5879ZM25.971 60.7468L25.7786 60.6921L25.7236 60.886L25.9179 60.9396L25.971 60.7468ZM26.1022 60.7829L26.0491 60.9757L26.1396 61.0006L26.2166 60.947L26.1022 60.7829ZM31.8311 57.253L31.926 57.429L31.9906 57.3942L32.0173 57.3258L31.8311 57.253ZM31.8912 57.0994L32.0774 57.1722L32.1232 57.0553L32.0377 56.9633L31.8912 57.0994ZM31.8099 56.8386L31.7427 56.8466L31.7898 57.2438L31.857 57.2359L31.8099 56.8386ZM31.6714 56.8692C29.7122 57.9248 27.7713 59.121 25.9018 60.4238L26.1305 60.752C27.9878 59.4576 29.9158 58.2695 31.8611 57.2213L31.6714 56.8692ZM25.8238 60.5332L25.7786 60.6921L26.1634 60.8014L26.2085 60.6425L25.8238 60.5332ZM25.9179 60.9396L26.0491 60.9757L26.1553 60.5901L26.0241 60.5539L25.9179 60.9396ZM26.2166 60.947C28.067 59.6573 29.9884 58.4732 31.926 57.429L31.7362 57.0769C29.7849 58.1285 27.8505 59.3206 25.9879 60.6188L26.2166 60.947ZM32.0173 57.3258L32.0774 57.1722L31.7049 57.0265L31.6448 57.1801L32.0173 57.3258ZM32.0377 56.9633L31.98 56.9012L31.6869 57.1733L31.7446 57.2355L32.0377 56.9633Z" fill="#BCC7BD" mask="url(#path-21-outside-10_1410_12451)"/>
<mask id="path-23-outside-11_1410_12451" maskUnits="userSpaceOnUse" x="25.002" y="55.1116" width="10.0289" height="10.0289" fill="black">
<rect fill="white" x="25.002" y="55.1116" width="10.0289" height="10.0289"/>
<path d="M34.0539 58.2492L33.9806 58.257C31.3345 59.6809 28.6709 61.1755 26.0639 62.7005L26.0203 62.8431L26.1535 62.8836C28.759 61.3597 31.4204 59.8662 34.0642 58.4441L34.1118 58.302L34.0539 58.2492Z"/>
</mask>
<path d="M34.0539 58.2492L33.9806 58.257C31.3345 59.6809 28.6709 61.1755 26.0639 62.7005L26.0203 62.8431L26.1535 62.8836C28.759 61.3597 31.4204 59.8662 34.0642 58.4441L34.1118 58.302L34.0539 58.2492Z" fill="#BCC7BD"/>
<path d="M33.9806 58.257L33.9594 58.0582L33.9204 58.0623L33.8859 58.0809L33.9806 58.257ZM26.0639 62.7005L25.9629 62.5278L25.8954 62.5673L25.8726 62.642L26.0639 62.7005ZM26.0203 62.8431L25.829 62.7847L25.7705 62.9762L25.9621 63.0344L26.0203 62.8431ZM26.1535 62.8836L26.0953 63.0749L26.179 63.1004L26.2545 63.0562L26.1535 62.8836ZM34.0642 58.4441L34.1589 58.6202L34.2287 58.5827L34.2538 58.5076L34.0642 58.4441ZM34.1118 58.302L34.3014 58.3656L34.3429 58.242L34.2465 58.1542L34.1118 58.302ZM34.0327 58.0504L33.9594 58.0582L34.0018 58.4559L34.0751 58.4481L34.0327 58.0504ZM33.8859 58.0809C31.2376 59.5059 28.572 61.0016 25.9629 62.5278L26.1648 62.8731C28.7699 61.3493 31.4313 59.8559 34.0754 58.4332L33.8859 58.0809ZM25.8726 62.642L25.829 62.7847L26.2116 62.9015L26.2551 62.7589L25.8726 62.642ZM25.9621 63.0344L26.0953 63.0749L26.2117 62.6923L26.0785 62.6517L25.9621 63.0344ZM26.2545 63.0562C28.858 61.5335 31.5172 60.0412 34.1589 58.6202L33.9694 58.2679C31.3235 59.6912 28.6601 61.1858 26.0525 62.711L26.2545 63.0562ZM34.2538 58.5076L34.3014 58.3656L33.9222 58.2384L33.8746 58.3805L34.2538 58.5076ZM34.2465 58.1542L34.1886 58.1014L33.9192 58.3971L33.9771 58.4498L34.2465 58.1542Z" fill="#BCC7BD" mask="url(#path-23-outside-11_1410_12451)"/>
<mask id="path-25-outside-12_1410_12451" maskUnits="userSpaceOnUse" x="26.2513" y="55.7787" width="11.2825" height="11.2825" fill="black">
<rect fill="white" x="26.2513" y="55.7787" width="11.2825" height="11.2825"/>
<path d="M36.2708 59.1261L36.1973 59.1343L27.4533 63.885L27.4057 64.0268L27.5378 64.0711L36.2813 59.3202L36.3287 59.1788L36.2708 59.1261Z"/>
</mask>
<path d="M36.2708 59.1261L36.1973 59.1343L27.4533 63.885L27.4057 64.0268L27.5378 64.0711L36.2813 59.3202L36.3287 59.1788L36.2708 59.1261Z" fill="#BCC7BD"/>
<path d="M36.1973 59.1343L36.1749 58.9356L36.1361 58.94L36.1018 58.9586L36.1973 59.1343ZM27.4533 63.885L27.3578 63.7093L27.2887 63.7468L27.2637 63.8214L27.4533 63.885ZM27.4057 64.0268L27.2161 63.9633L27.1525 64.1529L27.3422 64.2165L27.4057 64.0268ZM27.5378 64.0711L27.4742 64.2607L27.5568 64.2884L27.6333 64.2468L27.5378 64.0711ZM36.2813 59.3202L36.3767 59.496L36.4459 59.4584L36.4709 59.3838L36.2813 59.3202ZM36.3287 59.1788L36.5183 59.2424L36.5597 59.1188L36.4634 59.031L36.3287 59.1788ZM36.2483 58.9273L36.1749 58.9356L36.2197 59.3331L36.2932 59.3248L36.2483 58.9273ZM36.1018 58.9586L27.3578 63.7093L27.5488 64.0608L36.2928 59.3101L36.1018 58.9586ZM27.2637 63.8214L27.2161 63.9633L27.5953 64.0904L27.6429 63.9486L27.2637 63.8214ZM27.3422 64.2165L27.4742 64.2607L27.6013 63.8815L27.4693 63.8372L27.3422 64.2165ZM27.6333 64.2468L36.3767 59.496L36.1858 59.1445L27.4423 63.8954L27.6333 64.2468ZM36.4709 59.3838L36.5183 59.2424L36.139 59.1153L36.0916 59.2567L36.4709 59.3838ZM36.4634 59.031L36.4055 58.9782L36.136 59.2739L36.1939 59.3267L36.4634 59.031Z" fill="#BCC7BD" mask="url(#path-25-outside-12_1410_12451)"/>
<mask id="path-27-outside-13_1410_12451" maskUnits="userSpaceOnUse" x="26.0638" y="57.9854" width="11.2825" height="11.2825" fill="black">
<rect fill="white" x="26.0638" y="57.9854" width="11.2825" height="11.2825"/>
<path d="M36.0321 61.3167L35.9264 61.3274C33.164 62.8479 30.3088 64.2741 27.4397 65.5679L27.3705 65.7484L27.55 65.8177C30.4259 64.5208 33.2882 63.0908 36.0566 61.5672L36.1107 61.3813L36.0321 61.3167Z"/>
</mask>
<path d="M36.0321 61.3167L35.9264 61.3274C33.164 62.8479 30.3088 64.2741 27.4397 65.5679L27.3705 65.7484L27.55 65.8177C30.4259 64.5208 33.2882 63.0908 36.0566 61.5672L36.1107 61.3813L36.0321 61.3167Z" fill="#BCC7BD"/>
<path d="M35.9264 61.3274L35.9063 61.1284L35.8657 61.1325L35.83 61.1521L35.9264 61.3274ZM27.4397 65.5679L27.3575 65.3856L27.2825 65.4195L27.253 65.4963L27.4397 65.5679ZM27.3705 65.7484L27.1838 65.6768L27.1123 65.8632L27.2985 65.935L27.3705 65.7484ZM27.55 65.8177L27.478 66.0043L27.556 66.0344L27.6322 66L27.55 65.8177ZM36.0566 61.5672L36.153 61.7424L36.2255 61.7025L36.2486 61.6231L36.0566 61.5672ZM36.1107 61.3813L36.3028 61.4372L36.3397 61.3105L36.2377 61.2267L36.1107 61.3813ZM36.012 61.1177L35.9063 61.1284L35.9466 61.5263L36.0522 61.5156L36.012 61.1177ZM35.83 61.1521C33.0722 62.6701 30.2217 64.094 27.3575 65.3856L27.522 65.7503C30.3958 64.4543 33.2558 63.0257 36.0229 61.5026L35.83 61.1521ZM27.253 65.4963L27.1838 65.6768L27.5572 65.8201L27.6265 65.6396L27.253 65.4963ZM27.2985 65.935L27.478 66.0043L27.622 65.6311L27.4425 65.5619L27.2985 65.935ZM27.6322 66C30.5129 64.701 33.3799 63.2686 36.153 61.7424L35.9601 61.392C33.1964 62.913 30.3388 64.3407 27.4678 65.6354L27.6322 66ZM36.2486 61.6231L36.3028 61.4372L35.9187 61.3253L35.8646 61.5112L36.2486 61.6231ZM36.2377 61.2267L36.159 61.1621L35.9052 61.4712L35.9838 61.5358L36.2377 61.2267Z" fill="#BCC7BD" mask="url(#path-27-outside-13_1410_12451)"/>
<mask id="path-29-outside-14_1410_12451" maskUnits="userSpaceOnUse" x="27.3777" y="61.2045" width="8.77529" height="8.77529" fill="black">
<rect fill="white" x="27.3777" y="61.2045" width="8.77529" height="8.77529"/>
<path d="M34.9698 63.9779L34.7926 63.9995C32.7868 65.1966 30.7078 66.3185 28.6143 67.3305L28.5041 67.6336L28.7975 67.741C30.9026 66.7228 32.9927 65.5955 35.0118 64.3911L35.0957 64.0805L34.9698 63.9779Z"/>
</mask>
<path d="M34.9698 63.9779L34.7926 63.9995C32.7868 65.1966 30.7078 66.3185 28.6143 67.3305L28.5041 67.6336L28.7975 67.741C30.9026 66.7228 32.9927 65.5955 35.0118 64.3911L35.0957 64.0805L34.9698 63.9779Z" fill="#BCC7BD"/>
<path d="M34.7926 63.9995L34.7683 63.801L34.7264 63.8061L34.6901 63.8278L34.7926 63.9995ZM28.6143 67.3305L28.5272 67.1504L28.4541 67.1858L28.4263 67.2622L28.6143 67.3305ZM28.5041 67.6336L28.3162 67.5653L28.248 67.7528L28.4354 67.8214L28.5041 67.6336ZM28.7975 67.741L28.7288 67.9288L28.8083 67.9579L28.8846 67.921L28.7975 67.741ZM35.0118 64.3911L35.1142 64.5629L35.1837 64.5214L35.2049 64.4433L35.0118 64.3911ZM35.0957 64.0805L35.2888 64.1326L35.3226 64.0074L35.222 63.9255L35.0957 64.0805ZM34.9455 63.7793L34.7683 63.801L34.8169 64.1981L34.9941 64.1764L34.9455 63.7793ZM34.6901 63.8278C32.6893 65.0219 30.6154 66.141 28.5272 67.1504L28.7013 67.5106C30.8002 66.496 32.8844 65.3713 34.8951 64.1713L34.6901 63.8278ZM28.4263 67.2622L28.3162 67.5653L28.6921 67.7019L28.8023 67.3988L28.4263 67.2622ZM28.4354 67.8214L28.7288 67.9288L28.8663 67.5532L28.5729 67.4458L28.4354 67.8214ZM28.8846 67.921C30.9949 66.9003 33.0903 65.7702 35.1142 64.5629L34.9093 64.2193C32.8952 65.4208 30.8102 66.5453 28.7104 67.561L28.8846 67.921ZM35.2049 64.4433L35.2888 64.1326L34.9026 64.0283L34.8187 64.339L35.2049 64.4433ZM35.222 63.9255L35.0961 63.8228L34.8434 64.1329L34.9693 64.2355L35.222 63.9255Z" fill="#BCC7BD" mask="url(#path-29-outside-14_1410_12451)"/>
</svg>
