<svg width="153" height="185" viewBox="0 0 153 185" fill="none" xmlns="http://www.w3.org/2000/svg">
<path d="M43.6765 26.275C56.1079 22.1497 69.1313 20.1824 81.9451 17.6542C86.9206 16.8228 91.9368 16.6431 96.957 16.2025C99.1083 16.0133 101.718 15.115 103.88 15.7335C108.662 17.0994 109.423 23.155 110.645 27.306C112.347 33.0892 118.212 47.8059 111.134 52.038C103.648 56.5138 94.3951 58.5798 86.0551 60.8166C74.5326 63.9067 62.803 66.4264 50.9921 68.1239C47.1773 68.6724 36.1732 71.3615 32.9667 67.7321C27.5088 61.559 25.1302 48.5857 24.6846 40.6708C24.2014 32.0853 37.4724 28.3326 43.6778 26.2745L43.6765 26.275ZM33.7905 63.6776C36.0029 68.5281 45.0614 66.005 49.2588 65.4685C66.6342 63.2485 84.2594 59.1317 100.807 53.4072C103.526 52.4654 106.22 51.412 108.783 50.098C112.519 48.185 111.277 44.1635 110.745 40.579C109.86 34.6163 108.214 28.699 106.321 22.9884C103.911 15.7065 88.1147 19.5292 82.4104 20.4814C73.1976 22.3013 63.9531 23.898 54.8199 26.1041C49.3146 27.4332 43.8843 29.0526 38.6205 31.1459C35.4579 32.4049 28.4497 35.0294 27.5953 38.8709C25.9896 46.0933 30.8734 57.2896 33.7895 63.6778L33.7905 63.6776Z" fill="#BCC7BD"/>
<path d="M36.9795 80.2637C36.9793 80.2624 36.9801 80.2583 36.9798 80.2557C37.0052 80.1572 37.0343 80.0662 37.0759 79.9801C37.2274 79.5623 37.5451 79.2021 38.0935 79.0787C63.6233 73.2962 89.1552 67.5134 114.684 61.7309C115.29 61.5934 115.99 61.9896 116.222 62.5527C120.912 73.899 124.422 85.7409 127.549 97.5971C129.588 105.32 131.538 113.247 132.748 121.237C132.922 121.568 132.983 121.938 132.888 122.277C133.497 126.52 133.907 130.781 133.982 135.04C133.991 135.511 133.568 136.029 133.148 136.195C120.452 141.253 107.242 145.219 94.1409 149.072C86.4101 151.347 78.623 153.464 70.7321 155.1C66.6392 155.949 61.3063 157.383 57.1706 155.977C54.1101 154.937 52.5197 149.536 51.5166 146.976C48.7182 139.821 46.8306 132.262 44.9902 124.821C41.4502 110.509 37.7931 95.4954 36.9114 80.7277C36.9036 80.5569 36.9414 80.4118 36.9778 80.2656L36.9795 80.2637ZM67.6927 75.3068C63.5623 76.2417 59.4303 77.1768 55.3003 78.1143C55.358 78.2217 55.4273 78.3171 55.4589 78.4478C56.4171 82.2211 57.4086 85.9857 58.413 89.7489C62.3153 88.6667 66.2424 87.6527 70.1984 86.7274C69.3024 82.9341 68.4525 79.1297 67.6927 75.3067L67.6927 75.3068ZM59.1537 92.4982C60.4304 97.2397 61.7225 101.978 63.017 106.714C66.8401 105.702 70.678 104.735 74.5285 103.821C73.2577 99.0539 72.0333 94.2778 70.8638 89.4867C66.931 90.4076 63.0317 91.422 59.1537 92.4983L59.1537 92.4982ZM63.7644 109.454C64.707 112.906 65.6409 116.363 66.5684 119.821C70.4177 118.95 74.2671 118.099 78.12 117.255C77.172 113.691 76.2214 110.127 75.2658 106.565C71.4162 107.476 67.5837 108.445 63.7643 109.454L63.7644 109.454ZM83.5187 71.7231C79.2303 72.6945 74.9431 73.6645 70.6547 74.6359C70.5982 74.6486 70.5405 74.6628 70.4853 74.6753C71.2433 78.505 72.0938 82.3134 72.9916 86.1105C77.7324 85.0402 82.493 84.0413 87.2653 83.1003C86.0695 79.2894 84.8308 75.4936 83.5187 71.7233L83.5187 71.7231ZM73.6564 88.8735C74.8211 93.6588 76.0435 98.4298 77.3107 103.19C82.2623 102.044 87.2306 100.964 92.211 99.9481C90.9139 95.2225 89.5469 90.5179 88.1126 85.8342C83.2784 86.7859 78.4549 87.7904 73.6562 88.8736L73.6564 88.8735ZM78.0471 105.936C79.0039 109.507 79.9565 113.076 80.9066 116.646C81.5867 116.499 82.2664 116.349 82.9449 116.2C87.1898 115.271 91.46 114.311 95.7439 113.377C94.8435 109.813 93.9106 106.254 92.9554 102.705C87.9702 103.715 82.9989 104.793 78.047 105.936L78.0471 105.936ZM100.601 67.852C95.838 68.9306 91.0746 70.0091 86.3122 71.0876C87.6263 74.883 88.8703 78.6991 90.0679 82.5335C94.7013 81.6332 99.331 80.7638 103.953 79.8888C102.879 75.8663 101.77 71.8511 100.601 67.8519L100.601 67.852ZM90.9198 85.2735C92.3496 89.9527 93.7098 94.6555 95.005 99.3773C99.4253 98.4957 103.854 97.6645 108.283 96.861C107.124 92.1174 105.933 87.3819 104.693 82.6606C100.11 83.5239 95.518 84.3857 90.9198 85.2734L90.9198 85.2735ZM95.7498 102.137C96.7023 105.675 97.6307 109.221 98.5297 112.774C102.833 111.854 107.15 110.975 111.481 110.208C110.652 106.684 109.81 103.163 108.958 99.6428C104.553 100.442 100.148 101.265 95.75 102.137L95.7498 102.137ZM116.35 70.7852C115.812 69.2811 113.341 64.9683 115.021 64.5871C114.398 64.7268 113.777 64.869 113.155 65.01C109.897 65.7473 106.637 66.4849 103.378 67.2223C104.557 71.2522 105.676 75.3004 106.76 79.3558C110.701 78.6071 114.626 77.8405 118.529 77.0465C117.821 74.9499 117.097 72.8621 116.35 70.7851L116.35 70.7852ZM119.43 79.7867C115.478 80.5937 111.497 81.3676 107.501 82.1263C108.745 86.8576 109.938 91.5995 111.1 96.3507C115.329 95.5958 119.559 94.858 123.788 94.1482C122.457 89.3215 120.99 84.5334 119.43 79.7867L119.43 79.7867ZM124.532 96.9275C120.283 97.6399 116.03 98.378 111.778 99.1358C112.633 102.669 113.477 106.204 114.309 109.744C118.612 109.035 122.92 108.45 127.236 108.05C126.419 104.324 125.511 100.619 124.532 96.9275L124.532 96.9275ZM120.883 137.541C123.415 136.672 125.957 135.836 128.473 134.919C131.358 133.865 131.174 134.095 130.973 130.98C130.815 128.546 130.494 126.126 130.133 123.712C126.264 125.02 122.36 126.197 118.432 127.285C119.238 130.706 120.055 134.126 120.883 137.541L120.883 137.541ZM117.783 124.529C121.78 123.412 125.753 122.214 129.687 120.867C129.605 120.37 129.535 119.869 129.451 119.372C128.971 116.529 128.418 113.691 127.829 110.859C123.535 111.257 119.249 111.84 114.971 112.549C115.908 116.543 116.842 120.537 117.783 124.529L117.783 124.529ZM105.702 142.597C108.697 141.642 111.687 140.671 114.666 139.689C115.84 139.302 117 138.871 118.171 138.477C117.326 135 116.494 131.52 115.672 128.036C111.474 129.153 107.259 130.212 103.025 131.191C103.925 134.994 104.817 138.797 105.702 142.597L105.702 142.597ZM115.023 125.282C114.061 121.195 113.105 117.107 112.145 113.019C107.831 113.785 103.532 114.662 99.2457 115.577C100.317 119.864 101.353 124.157 102.375 128.455C106.612 127.471 110.827 126.408 115.023 125.282L115.023 125.282ZM88.1794 147.844C93.1338 146.467 98.0613 144.995 102.968 143.452C102.067 139.58 101.157 135.704 100.242 131.829C95.3407 132.942 90.4293 134.022 85.5233 135.113C86.4944 139.338 87.3987 143.578 88.1795 147.844L88.1794 147.844ZM84.8957 132.38C89.7979 131.292 94.7014 130.213 99.5951 129.099C98.5704 124.787 97.5301 120.478 96.4561 116.174C92.6575 116.998 88.873 117.84 85.1074 118.653C83.9517 118.903 82.7951 119.156 81.6394 119.407C82.7754 123.72 83.8626 128.045 84.8958 132.381L84.8957 132.38ZM74.3299 151.397C74.7285 151.302 75.14 151.203 75.5339 151.111C78.8416 150.345 82.1354 149.512 85.4187 148.628C84.6332 144.307 83.7166 140.012 82.733 135.732C78.9241 136.589 75.1236 137.48 71.3359 138.418C72.3836 142.734 73.395 147.055 74.3299 151.397L74.3299 151.397ZM82.1028 133C81.0715 128.659 79.9851 124.33 78.8498 120.011C74.9987 120.849 71.1492 121.698 67.3012 122.569C68.4578 126.929 69.5797 131.297 70.6645 135.673C74.4672 134.738 78.2837 133.858 82.1029 133L82.1028 133ZM54.9275 147.782C56.1543 150.769 57.1149 153.531 60.6234 153.601C64.2208 153.672 67.9447 152.905 71.5459 152.056C70.6205 147.736 69.6119 143.436 68.5713 139.145C63.4387 140.464 58.3365 141.893 53.292 143.542C53.8104 144.966 54.3539 146.381 54.9273 147.781L54.9275 147.782ZM52.3677 140.854C57.4982 139.185 62.6842 137.731 67.904 136.401C66.8128 131.995 65.6859 127.6 64.5242 123.211C59.1341 124.451 53.7536 125.745 48.4051 127.132C49.5524 131.763 50.8467 136.357 52.3676 140.854L52.3677 140.854ZM47.7264 124.361C53.0564 122.976 58.414 121.69 63.7853 120.456C62.8708 117.037 61.9487 113.62 61.0151 110.206C55.8795 111.603 50.7676 113.069 45.7043 114.686C45.6574 114.701 45.6162 114.689 45.5677 114.702C46.2556 117.916 46.9662 121.141 47.7263 124.361L47.7264 124.361ZM44.9052 111.571C44.9305 111.693 44.9585 111.817 44.9836 111.938C50.0414 110.331 55.1452 108.862 60.2703 107.467C58.9791 102.746 57.6917 98.0236 56.418 93.2948C51.5936 94.6961 46.813 96.2092 42.1302 97.9621C42.9917 102.532 43.9587 107.079 44.9052 111.571L44.9052 111.571ZM41.6093 95.1258C46.2294 93.4182 50.9317 91.9219 55.6791 90.548C54.6431 86.6752 53.6198 82.7983 52.6338 78.9136C52.6151 78.842 52.6316 78.7857 52.6253 78.7177C48.3727 79.6805 44.1232 80.6442 39.8719 81.6068C40.2036 86.1178 40.8171 90.6314 41.6093 95.1257L41.6093 95.1258Z" fill="#BCC7BD"/>
<path d="M5.00482 53.5287C4.96018 53.097 4.93384 52.6536 4.89484 52.2145C4.76635 51.9299 4.72855 51.611 4.81699 51.2768C4.24803 43.5304 4.99745 35.221 10.7377 29.5592C11.0035 29.297 11.3297 29.0824 11.6131 28.8338C11.7202 28.6929 11.8474 28.5837 12.0043 28.5102C18.3455 23.2655 28.8025 21.0845 36.2784 18.7622C49.5855 14.6306 63.0614 10.9605 76.6952 8.06735C86.1416 6.06084 97.9224 2.96594 107.532 5.71982C107.776 5.7896 107.956 5.90757 108.099 6.04347C111.485 7.90301 113.309 13.2868 114.673 16.4543C118.364 25.0136 121.131 33.9966 123.865 42.894C130.63 64.9136 136.382 87.2519 141.941 109.602C143.964 117.728 145.937 125.867 147.868 134.017C148.688 137.484 149.984 140.699 149.099 144.225C147.073 152.298 136.471 157.34 129.783 160.609C117.353 166.686 103.761 170.54 90.3835 173.881C77.1057 177.197 63.5497 179.742 49.9232 181.065C48.8057 181.173 47.6849 181.165 46.5701 181.102C46.0074 181.489 45.2649 181.523 44.8372 180.963C39.8351 180.25 35.2496 177.65 32.8652 172.687C30.0393 166.806 28.584 159.994 26.8364 153.745C23.6952 142.499 20.8631 131.161 18.1352 119.809C17.8552 118.64 17.5706 117.466 17.2891 116.296C17.2033 116.136 17.166 115.962 17.1646 115.78C12.2284 95.2989 7.19523 74.4726 5.00513 53.5292L5.00482 53.5287ZM8.65243 38.2654C7.77466 40.9107 7.43966 43.7532 7.38676 46.6606C8.83057 43.9967 10.2158 41.2981 11.7951 38.7104C11.6541 36.8965 11.5514 35.0831 11.4805 33.2692C10.2599 34.7101 9.28554 36.3554 8.65259 38.2653L8.65243 38.2654ZM46.8873 178.326C47.3159 178.328 47.7008 178.39 48.155 178.356C75.6198 176.163 105.125 169.474 129.929 157.349C134.802 154.967 148.261 148.304 146.555 140.95C145.353 135.766 144.116 130.594 142.871 125.421C137.68 103.884 132.224 82.4055 126.228 61.0806C123.182 50.2465 119.98 39.4456 116.302 28.8078C114.107 22.4521 111.952 15.245 107.94 9.74488C107.555 9.21889 107.101 8.63458 106.482 8.38377C96.5652 5.54341 83.7139 9.45257 73.9996 11.5709C60.8123 14.4467 47.7795 18.1299 34.9033 22.1669C28.3803 24.2136 19.9448 26.1657 14.2308 30.6354C14.3985 40.2643 15.6891 49.8768 17.5143 59.4525C17.9922 59.8712 18.2326 60.5562 17.8662 61.2414C20.8062 76.1497 24.9166 90.9704 27.9522 105.64C28.0909 105.872 28.1482 106.138 28.1092 106.415C28.3141 107.414 28.5227 108.412 28.7154 109.408C31.3515 123.037 34.7117 136.581 38.4557 150.008C38.7268 150.332 38.8795 150.751 38.7864 151.201C41.3427 160.302 44.07 169.347 46.8851 178.324L46.8873 178.326ZM33.2327 165.369C35.0592 171.079 38.0282 176.497 43.7983 177.956C41.3377 170.07 38.9551 162.143 36.7032 154.175C35.7827 155.262 34.7956 156.296 33.7112 157.202C32.292 158.388 30.493 156.16 31.9086 154.976C33.3816 153.747 34.6418 152.285 35.7481 150.719C35.307 149.128 34.8608 147.538 34.4312 145.943C32.785 148.081 31.2681 150.318 29.5617 152.411C29.5205 152.46 29.4713 152.478 29.4278 152.52C30.6264 156.826 31.8731 161.117 33.2324 165.369L33.2327 165.369ZM28.4922 149.078C29.9694 147.113 31.3716 145.091 32.9294 143.185C33.1241 142.946 33.3548 142.82 33.5931 142.741C33.2622 141.486 32.9324 140.23 32.6089 138.971C31.3886 139.94 30.1619 140.971 29.3518 142.305C29.2212 142.519 29.3922 142.22 29.2205 142.544C29.0875 142.791 28.9556 143.035 28.8038 143.269C28.5307 143.698 28.1392 144.06 27.7531 144.382C27.6077 144.503 27.4577 144.569 27.3074 144.623C27.6927 146.112 28.0918 147.594 28.4923 149.078L28.4922 149.078ZM26.5023 141.545C26.5265 141.508 26.5459 141.484 26.5753 141.437C26.6146 141.363 26.7062 141.204 26.7243 141.171C26.8756 140.892 27.031 140.616 27.2036 140.348C28.2568 138.71 29.9446 137.425 31.447 136.238C31.5775 136.133 31.7126 136.085 31.8485 136.033C31.365 134.117 30.8995 132.198 30.4356 130.281C28.5699 132.631 26.9829 135.161 25.5585 137.831C25.5577 137.835 25.5514 137.837 25.5506 137.842C25.8656 139.076 26.1844 140.309 26.5024 141.545L26.5023 141.545ZM24.5376 133.861C26.0123 131.373 27.653 129.011 29.6022 126.834C29.0929 124.671 28.6019 122.507 28.1186 120.341C26.4699 122.47 24.7745 124.535 22.935 126.52C22.8701 126.589 22.7945 126.617 22.726 126.67C23.3248 129.072 23.9305 131.466 24.5377 133.861L24.5376 133.861ZM21.9065 123.361C23.6048 121.439 25.2298 119.473 26.7804 117.413C26.955 117.181 27.1625 117.049 27.3812 116.962C26.8726 114.603 26.3665 112.243 25.8944 109.879C25.8712 109.763 25.8454 109.646 25.8222 109.531C23.9773 111.796 22.1265 114.059 20.1628 116.223C20.7379 118.606 21.3177 120.984 21.9067 123.362L21.9065 123.361ZM19.3402 112.8C21.2851 110.54 23.169 108.228 25.0724 105.934C24.4362 102.943 23.763 99.9433 23.0668 96.9384C21.2743 99.8172 19.6237 102.791 17.6416 105.541C18.2006 107.963 18.766 110.382 19.3404 112.8L19.3402 112.8ZM16.7697 101.753C18.5355 99.0135 20.0941 96.1361 21.9113 93.4262C21.9921 93.3059 22.0915 93.2373 22.1851 93.155C21.6373 90.8392 21.0849 88.5186 20.5308 86.1957C18.6073 88.8207 17.03 91.6976 15.1438 94.3536C15.675 96.825 16.2146 99.29 16.7698 101.753L16.7697 101.753ZM14.313 90.4737C16.0172 87.7995 17.592 85.0351 19.6822 82.6424C18.9189 79.428 18.1652 76.207 17.4389 72.9827C15.6613 76.0658 14.1622 79.2658 12.6862 82.5209C13.2097 85.1757 13.7564 87.8262 14.3134 90.474L14.313 90.4737ZM11.7681 77.7135C13.1146 74.8825 14.5391 72.1021 16.2262 69.4275C16.3271 69.2689 16.4481 69.1631 16.5718 69.0676C16.2495 67.5763 15.9312 66.0844 15.6274 64.5919C13.9681 67.0038 12.2945 69.4071 10.6906 71.8566C11.0389 73.8098 11.399 75.7614 11.7683 77.7136L11.7681 77.7135ZM9.53123 65.1959C9.67551 66.0654 9.83652 66.9314 9.98486 67.8017C11.6139 65.4216 13.2572 63.0489 14.8485 60.643C14.3118 57.8366 13.8303 55.0283 13.3944 52.2151C11.9821 55.1089 10.4792 57.9473 8.76763 60.6965C9.02962 62.2328 9.29298 63.749 9.53137 65.1959L9.53123 65.1959ZM12.2911 47.9708C12.3967 47.7375 12.5449 47.5673 12.7139 47.4342C12.5469 46.1591 12.3918 44.8838 12.2525 43.608C10.7069 46.4333 9.25288 49.3112 7.57529 52.0587C7.70051 53.4489 7.8727 54.8344 8.0676 56.2115C9.5841 53.5275 11.0023 50.7983 12.291 47.9708L12.2911 47.9708Z" fill="#BCC7BD"/>
</svg>
