<svg width="10" height="7" viewBox="0 0 10 7" fill="none" xmlns="http://www.w3.org/2000/svg">
<path d="M0.832928 1.14076C0.989064 0.985555 1.20027 0.898438 1.42043 0.898438C1.64058 0.898438 1.85179 0.985555 2.00793 1.14076L4.9996 4.09076L7.9496 1.14076C8.10573 0.985555 8.31694 0.898438 8.5371 0.898438C8.75725 0.898438 8.96846 0.985555 9.1246 1.14076C9.2027 1.21823 9.2647 1.3104 9.307 1.41195C9.34931 1.5135 9.37109 1.62242 9.37109 1.73243C9.37109 1.84244 9.34931 1.95136 9.307 2.05291C9.2647 2.15446 9.2027 2.24663 9.1246 2.3241L5.59126 5.85743C5.51379 5.93554 5.42163 5.99753 5.32008 6.03984C5.21853 6.08215 5.10961 6.10393 4.9996 6.10393C4.88959 6.10393 4.78066 6.08215 4.67911 6.03984C4.57757 5.99753 4.4854 5.93554 4.40793 5.85743L0.832928 2.3241C0.754821 2.24663 0.692826 2.15446 0.650519 2.05291C0.608212 1.95136 0.586429 1.84244 0.586429 1.73243C0.586429 1.62242 0.608212 1.5135 0.650519 1.41195C0.692826 1.3104 0.754821 1.21823 0.832928 1.14076Z" fill="#F7B103"/>
</svg>
