<svg width="180" height="189" viewBox="0 0 180 189" fill="none" xmlns="http://www.w3.org/2000/svg">
<path d="M103.107 144.654C82.2128 150.158 67.0937 138.236 59.4877 129.924C55.0402 135.554 50.9118 140.441 46.893 144.836C45.5697 146.284 44.1476 147.799 42.565 149.449C66.7416 174.187 99.7712 170.308 109.484 168.489L110.97 168.045C126.074 163.555 136.988 160.309 152.62 144.738C156.363 141.013 161.927 132.552 165.552 120.771C163.154 119.996 160.757 119.218 158.364 118.432L154.708 117.234C149.649 115.576 144.587 113.92 139.536 112.238C135.244 127.888 122.035 139.667 103.107 144.654ZM59.1638 127.246L59.4044 127.211C59.7212 127.203 60.0252 127.334 60.2344 127.572C67.2013 135.512 81.9675 148.025 102.566 142.598C121.163 137.699 133.992 126.041 137.76 110.617C137.831 110.329 138.019 110.084 138.278 109.94C138.537 109.794 138.847 109.768 139.128 109.862C144.537 111.666 149.954 113.439 155.37 115.213L159.026 116.413C161.746 117.304 164.47 118.188 167.196 119.069C167.745 119.246 168.051 119.827 167.888 120.38C164.167 133.048 158.338 142.047 154.121 146.246C138.107 162.193 126.979 165.502 111.576 170.084L110.037 170.541L109.93 170.567C99.9267 172.452 65.3389 176.552 40.3202 150.18C39.9273 149.768 39.9313 149.121 40.3255 148.711C42.1841 146.784 43.8177 145.05 45.3235 143.403C49.5412 138.79 53.8835 133.626 58.5977 127.617C58.743 127.432 58.9421 127.304 59.1638 127.246Z" fill="#BCC7BD"/>
<path d="M87.9035 28.375L87.8975 28.3766L87.9035 28.375ZM169.162 96.7917C169.216 79.8489 164.136 63.1852 154.059 47.2412C138.018 21.8661 109.932 18.6837 88.8111 20.6209C88.906 23.0916 88.9567 25.6234 88.966 28.3257C89.4838 34.144 89.8997 40.1076 90.2344 46.5151C95.6162 45.7395 99.97 45.6183 103.86 46.1323C108.046 46.6846 112.402 48.3149 116.808 50.9753C125.186 56.0352 131.856 63.7478 135.586 72.696C137.399 77.0482 138.357 81.6512 139.284 86.103C139.454 86.9183 139.624 87.7376 139.801 88.5552C140.386 91.2826 140.771 94.0519 140.95 96.8041C145.225 96.7274 149.55 96.78 153.742 96.8307C158.8 96.8902 164.024 96.9536 169.162 96.7917ZM87.4359 18.6319L87.6002 18.6016C109.425 16.4144 138.981 19.4099 155.857 46.1059C166.359 62.7204 171.547 80.1248 171.279 97.8332C171.271 98.3979 170.819 98.8575 170.255 98.8788C164.739 99.0864 159.135 99.0196 153.716 98.9561C149.205 98.9008 144.542 98.8449 139.968 98.9507C139.392 98.9625 138.909 98.5121 138.882 97.9352C138.747 94.962 138.356 91.9552 137.722 89.0015C137.547 88.1793 137.375 87.356 137.204 86.5367C136.254 81.9811 135.36 77.68 133.623 73.5149C130.066 64.98 123.703 57.622 115.71 52.7948C111.614 50.322 107.419 48.7463 103.578 48.2387C99.6219 47.7164 95.1166 47.8926 89.3967 48.7918C89.1011 48.8395 88.7972 48.7579 88.5618 48.5678C88.3284 48.3771 88.1858 48.0978 88.1709 47.7958C87.8262 40.9491 87.3936 34.6278 86.8442 28.4687L86.84 28.3793C86.8312 25.3192 86.7672 22.4826 86.6452 19.7045C86.6221 19.1998 86.9603 18.7572 87.4359 18.6319Z" fill="#BCC7BD"/>
<path d="M72.3908 51.2095L71.9923 50.1551C71.0748 47.7438 70.1597 45.334 69.2387 42.9258C67.0818 37.2829 64.8993 31.6489 62.7132 26.018L62.1963 26.1995C40.3791 34.0011 29.9509 51.55 25.0426 64.8969C18.4288 82.887 19.0148 100.401 21.525 109.929C23.2017 116.293 25.327 122.274 27.8509 127.723C35.1804 124.385 42.8865 120.807 50.2646 116.868C48.9665 114.428 47.9177 112.042 47.1399 109.769C46.3868 107.573 45.6721 103.968 45.4334 101.197C45.0207 96.3337 45.1716 91.0246 45.8874 85.4222C47.3476 73.9903 51.2576 65.387 57.5074 59.8482C61.2496 56.5305 65.6433 53.9182 71.334 51.6237C71.6851 51.4838 72.0387 51.3454 72.3908 51.2095ZM63.067 23.6554C63.587 23.5185 64.1314 23.7931 64.3293 24.2992C66.6367 30.2516 68.9441 36.204 71.2238 42.1658C72.1474 44.5755 73.063 46.9873 73.9785 49.399L74.7561 51.4506C74.858 51.7147 74.8496 52.01 74.7321 52.2673C74.615 52.5266 74.4001 52.7254 74.1334 52.8259C73.4617 53.0739 72.7917 53.3281 72.1293 53.5952C66.6705 55.7963 62.4735 58.2878 58.9161 61.4404C53.0648 66.6264 49.3892 74.7864 47.9967 85.6898C47.3002 91.1448 47.1504 96.3028 47.5516 101.016C47.7762 103.636 48.4479 107.028 49.1501 109.08C49.9899 111.531 51.162 114.123 52.6368 116.784C52.7754 117.032 52.8073 117.325 52.7284 117.598C52.6489 117.869 52.4617 118.099 52.2127 118.234C44.1726 122.581 35.731 126.475 27.7752 130.094C27.2429 130.332 26.6253 130.106 26.3756 129.584C23.6008 123.763 21.2772 117.332 19.4694 110.47C16.0598 97.5282 17.4631 79.3526 23.0477 64.1638C28.1108 50.3904 38.8904 32.2769 61.4791 24.1966C61.9541 24.0284 62.466 23.8526 63.0031 23.6744L63.067 23.6554Z" fill="#BCC7BD"/>
<mask id="path-4-outside-1_1410_9980" maskUnits="userSpaceOnUse" x="54.1598" y="29.9814" width="9.77411" height="9.77411" fill="black">
<rect fill="white" x="54.1598" y="29.9814" width="9.77411" height="9.77411"/>
<path d="M55.7585 32.6324L56.0218 32.6665L62.5357 36.3598L62.6697 36.8439L62.1871 36.9753L55.6732 33.282L55.5398 32.7999L55.7585 32.6324Z"/>
</mask>
<path d="M55.7585 32.6324L56.0218 32.6665L62.5357 36.3598L62.6697 36.8439L62.1871 36.9753L55.6732 33.282L55.5398 32.7999L55.7585 32.6324Z" fill="#BCC7BD"/>
<path d="M56.0218 32.6665L56.086 32.1706L56.1832 32.1832L56.2684 32.2315L56.0218 32.6665ZM62.5357 36.3598L62.7823 35.9248L62.9624 36.0269L63.0176 36.2264L62.5357 36.3598ZM62.6697 36.8439L63.1516 36.7105L63.2854 37.1944L62.8011 37.3263L62.6697 36.8439ZM62.1871 36.9753L62.3185 37.4578L62.1197 37.5119L61.9405 37.4103L62.1871 36.9753ZM55.6732 33.282L55.4266 33.717L55.2465 33.6149L55.1913 33.4154L55.6732 33.282ZM55.5398 32.7999L55.0579 32.9333L54.9679 32.6081L55.2357 32.403L55.5398 32.7999ZM55.8226 32.1365L56.086 32.1706L55.9576 33.1623L55.6943 33.1282L55.8226 32.1365ZM56.2684 32.2315L62.7823 35.9248L62.2891 36.7947L55.7752 33.1014L56.2684 32.2315ZM63.0176 36.2264L63.1516 36.7105L62.1878 36.9772L62.0538 36.4931L63.0176 36.2264ZM62.8011 37.3263L62.3185 37.4578L62.0557 36.4929L62.5383 36.3615L62.8011 37.3263ZM61.9405 37.4103L55.4266 33.717L55.9198 32.8471L62.4337 36.5404L61.9405 37.4103ZM55.1913 33.4154L55.0579 32.9333L56.0216 32.6666L56.1551 33.1486L55.1913 33.4154ZM55.2357 32.403L55.4544 32.2354L56.0625 33.0293L55.8438 33.1969L55.2357 32.403Z" fill="#BCC7BD" mask="url(#path-4-outside-1_1410_9980)"/>
<mask id="path-6-outside-2_1410_9980" maskUnits="userSpaceOnUse" x="47.4294" y="30.9345" width="20.2605" height="18.836" fill="black">
<rect fill="white" x="47.4294" y="30.9345" width="20.2605" height="18.836"/>
<path d="M49.2367 35.8234L49.4796 35.8456C55.2161 38.5843 60.9263 41.5583 66.4504 44.6848L66.5839 45.1669L66.1019 45.3004C60.5911 42.1833 54.8956 39.2161 49.1763 36.4858L49.0086 36.0128L49.2367 35.8234Z"/>
</mask>
<path d="M49.2367 35.8234L49.4796 35.8456C55.2161 38.5843 60.9263 41.5583 66.4504 44.6848L66.5839 45.1669L66.1019 45.3004C60.5911 42.1833 54.8956 39.2161 49.1763 36.4858L49.0086 36.0128L49.2367 35.8234Z" fill="#BCC7BD"/>
<path d="M49.4796 35.8456L49.5251 35.3477L49.6143 35.3558L49.695 35.3944L49.4796 35.8456ZM66.4504 44.6848L66.6967 44.2497L66.877 44.3517L66.9323 44.5514L66.4504 44.6848ZM66.5839 45.1669L67.0658 45.0334L67.1993 45.5153L66.7173 45.6488L66.5839 45.1669ZM66.1019 45.3004L66.2353 45.7822L66.0358 45.8375L65.8557 45.7356L66.1019 45.3004ZM49.1763 36.4858L48.9609 36.9371L48.7742 36.8479L48.7051 36.653L49.1763 36.4858ZM49.0086 36.0128L48.5373 36.1799L48.4207 35.8511L48.6891 35.6282L49.0086 36.0128ZM49.2822 35.3255L49.5251 35.3477L49.4341 36.3435L49.1912 36.3213L49.2822 35.3255ZM49.695 35.3944C55.442 38.138 61.1625 41.1174 66.6967 44.2497L66.2041 45.12C60.6902 41.9992 54.9903 39.0305 49.2642 36.2968L49.695 35.3944ZM66.9323 44.5514L67.0658 45.0334L66.1021 45.3004L65.9685 44.8183L66.9323 44.5514ZM66.7173 45.6488L66.2353 45.7822L65.9685 44.8185L66.4505 44.685L66.7173 45.6488ZM65.8557 45.7356C60.3549 42.6241 54.6697 39.6623 48.9609 36.9371L49.3917 36.0346C55.1215 38.7699 60.8272 41.7424 66.348 44.8652L65.8557 45.7356ZM48.7051 36.653L48.5373 36.1799L49.4798 35.8457L49.6476 36.3187L48.7051 36.653ZM48.6891 35.6282L48.9172 35.4387L49.5561 36.2081L49.328 36.3975L48.6891 35.6282Z" fill="#BCC7BD" mask="url(#path-6-outside-2_1410_9980)"/>
<mask id="path-8-outside-3_1410_9980" maskUnits="userSpaceOnUse" x="42.4698" y="34.2782" width="24.1805" height="23.4683" fill="black">
<rect fill="white" x="42.4698" y="34.2782" width="24.1805" height="23.4683"/>
<path d="M43.6998 40.0835L43.9529 40.1117L65.1591 51.0225L65.3127 51.4993L64.836 51.6529L43.6277 40.7426L43.4761 40.2653L43.6998 40.0835Z"/>
</mask>
<path d="M43.6998 40.0835L43.9529 40.1117L65.1591 51.0225L65.3127 51.4993L64.836 51.6529L43.6277 40.7426L43.4761 40.2653L43.6998 40.0835Z" fill="#BCC7BD"/>
<path d="M43.9529 40.1117L44.0082 39.6147L44.0997 39.6249L44.1816 39.6671L43.9529 40.1117ZM65.1591 51.0225L65.3879 50.5779L65.5716 50.6725L65.635 50.8692L65.1591 51.0225ZM65.3127 51.4993L65.7886 51.346L65.9419 51.8219L65.466 51.9752L65.3127 51.4993ZM64.836 51.6529L64.9893 52.1288L64.7918 52.1925L64.6072 52.0975L64.836 51.6529ZM43.6277 40.7426L43.3989 41.1872L43.214 41.0921L43.1511 40.8939L43.6277 40.7426ZM43.4761 40.2653L42.9996 40.4166L42.8966 40.0921L43.1608 39.8773L43.4761 40.2653ZM43.755 39.5866L44.0082 39.6147L43.8976 40.6086L43.6445 40.5804L43.755 39.5866ZM44.1816 39.6671L65.3879 50.5779L64.9303 51.4671L43.7241 40.5563L44.1816 39.6671ZM65.635 50.8692L65.7886 51.346L64.8368 51.6526L64.6832 51.1758L65.635 50.8692ZM65.466 51.9752L64.9893 52.1288L64.6826 51.177L65.1594 51.0234L65.466 51.9752ZM64.6072 52.0975L43.3989 41.1872L43.8564 40.298L65.0647 51.2083L64.6072 52.0975ZM43.1511 40.8939L42.9996 40.4166L43.9527 40.114L44.1042 40.5913L43.1511 40.8939ZM43.1608 39.8773L43.3844 39.6955L44.0151 40.4715L43.7915 40.6533L43.1608 39.8773Z" fill="#BCC7BD" mask="url(#path-8-outside-3_1410_9980)"/>
<mask id="path-10-outside-4_1410_9980" maskUnits="userSpaceOnUse" x="36.4329" y="40.8173" width="22.4492" height="20.3125" fill="black">
<rect fill="white" x="36.4329" y="40.8173" width="22.4492" height="20.3125"/>
<path d="M38.0964 46.2536L38.3251 46.2709C44.8497 49.0477 51.3388 52.1398 57.6105 55.4616L57.7561 55.9404L57.2777 56.0881C51.0253 52.7741 44.556 49.6918 38.0482 46.9215L37.8609 46.4557L38.0964 46.2536Z"/>
</mask>
<path d="M38.0964 46.2536L38.3251 46.2709C44.8497 49.0477 51.3388 52.1398 57.6105 55.4616L57.7561 55.9404L57.2777 56.0881C51.0253 52.7741 44.556 49.6918 38.0482 46.9215L37.8609 46.4557L38.0964 46.2536Z" fill="#BCC7BD"/>
<path d="M38.3251 46.2709L38.3629 45.7723L38.4451 45.7786L38.5209 45.8109L38.3251 46.2709ZM57.6105 55.4616L57.8445 55.0197L58.0283 55.1171L58.0888 55.3161L57.6105 55.4616ZM57.7561 55.9404L58.2345 55.795L58.3793 56.2714L57.9035 56.4182L57.7561 55.9404ZM57.2777 56.0881L57.4251 56.5658L57.2268 56.627L57.0435 56.5298L57.2777 56.0881ZM38.0482 46.9215L37.8524 47.3815L37.6617 47.3003L37.5843 47.108L38.0482 46.9215ZM37.8609 46.4557L37.397 46.6423L37.2633 46.3098L37.5353 46.0763L37.8609 46.4557ZM38.1342 45.755L38.3629 45.7723L38.2873 46.7695L38.0586 46.7522L38.1342 45.755ZM38.5209 45.8109C45.0585 48.5931 51.5604 51.6913 57.8445 55.0197L57.3764 55.9034C51.1173 52.5882 44.6409 49.5022 38.1293 46.731L38.5209 45.8109ZM58.0888 55.3161L58.2345 55.795L57.2777 56.0859L57.1321 55.6071L58.0888 55.3161ZM57.9035 56.4182L57.4251 56.5658L57.1302 55.6103L57.6087 55.4627L57.9035 56.4182ZM57.0435 56.5298C50.8038 53.2225 44.3473 50.1464 37.8524 47.3815L38.2441 46.4614C44.7648 49.2373 51.2469 52.3256 57.5118 55.6463L57.0435 56.5298ZM37.5843 47.108L37.397 46.6423L38.3248 46.2692L38.5121 46.7349L37.5843 47.108ZM37.5353 46.0763L37.7708 45.8742L38.4221 46.633L38.1866 46.8351L37.5353 46.0763Z" fill="#BCC7BD" mask="url(#path-10-outside-4_1410_9980)"/>
<path d="M33.7457 52.6573L33.8217 52.587L33.9251 52.591L34.1319 52.599L34.1693 52.6004L34.2047 52.6128C40.7423 54.8972 47.2442 57.5298 53.5276 60.438L53.6219 60.4816L53.6575 60.5792L53.8287 61.0492L53.914 61.2831L53.6804 61.3693L53.211 61.5426L53.1136 61.5785L53.0194 61.5349C46.7706 58.6434 40.307 56.0238 33.8067 53.754L33.709 53.7199L33.664 53.6267L33.446 53.1756L33.3655 53.0089L33.5013 52.8833L33.7457 52.6573Z" fill="#BCC7BD" stroke="#BCC7BD" stroke-width="0.5"/>
<path d="M30.105 59.0072L30.1821 58.9371L30.2862 58.9425L30.4982 58.9534L30.5357 58.9554L30.5711 58.9683C36.7041 61.2106 42.862 63.6382 48.8739 66.1819L48.969 66.2221L49.008 66.3177L49.1968 66.7809L49.2912 67.0125L49.0596 67.1069L48.5945 67.2962L48.4983 67.3354L48.4027 67.2949C42.4102 64.7578 36.27 62.3392 30.1564 60.1032L30.0595 60.0677L30.0158 59.9742L29.8034 59.5194L29.7255 59.3526L29.8616 59.2287L30.105 59.0072Z" fill="#BCC7BD" stroke="#BCC7BD" stroke-width="0.5"/>
<mask id="path-14-outside-5_1410_9980" maskUnits="userSpaceOnUse" x="25.8899" y="60.6689" width="21.685" height="17.4115" fill="black">
<rect fill="white" x="25.8899" y="60.6689" width="21.685" height="17.4115"/>
<path d="M27.614 66.0892L27.8091 66.0938C33.9083 68.0085 40.0725 70.0224 46.131 72.0771L46.353 72.5272L45.9029 72.7493C39.849 70.6955 33.6899 68.6846 27.5972 66.7703L27.3657 66.3249L27.614 66.0892Z"/>
</mask>
<path d="M27.614 66.0892L27.8091 66.0938C33.9083 68.0085 40.0725 70.0224 46.131 72.0771L46.353 72.5272L45.9029 72.7493C39.849 70.6955 33.6899 68.6846 27.5972 66.7703L27.3657 66.3249L27.614 66.0892Z" fill="#BCC7BD"/>
<path d="M27.8091 66.0938L27.8209 65.5939L27.8915 65.5956L27.9589 65.6168L27.8091 66.0938ZM46.131 72.0771L46.2916 71.6036L46.4878 71.6701L46.5794 71.8559L46.131 72.0771ZM46.353 72.5272L46.8014 72.3061L47.0226 72.7545L46.5742 72.9757L46.353 72.5272ZM45.9029 72.7493L46.1241 73.1977L45.9384 73.2893L45.7423 73.2228L45.9029 72.7493ZM27.5972 66.7703L27.4474 67.2473L27.2493 67.1851L27.1536 67.0009L27.5972 66.7703ZM27.3657 66.3249L26.9221 66.5554L26.7484 66.2214L27.0215 65.9622L27.3657 66.3249ZM27.6257 65.5893L27.8209 65.5939L27.7973 66.5937L27.6022 66.5891L27.6257 65.5893ZM27.9589 65.6168C34.0618 67.5326 40.2295 69.5477 46.2916 71.6036L45.9704 72.5506C39.9154 70.4971 33.7549 68.4844 27.6594 66.5709L27.9589 65.6168ZM46.5794 71.8559L46.8014 72.3061L45.9046 72.7484L45.6826 72.2983L46.5794 71.8559ZM46.5742 72.9757L46.1241 73.1977L45.6817 72.3008L46.1318 72.0788L46.5742 72.9757ZM45.7423 73.2228C39.692 71.1702 33.5364 69.1605 27.4474 67.2473L27.7471 66.2933C33.8433 68.2087 40.006 70.2208 46.0636 72.2758L45.7423 73.2228ZM27.1536 67.0009L26.9221 66.5554L27.8094 66.0943L28.0409 66.5397L27.1536 67.0009ZM27.0215 65.9622L27.2697 65.7266L27.9582 66.4519L27.7099 66.6875L27.0215 65.9622Z" fill="#BCC7BD" mask="url(#path-14-outside-5_1410_9980)"/>
<mask id="path-16-outside-6_1410_9980" maskUnits="userSpaceOnUse" x="23.2376" y="67.7548" width="21.685" height="17.4115" fill="black">
<rect fill="white" x="23.2376" y="67.7548" width="21.685" height="17.4115"/>
<path d="M24.9616 73.1751L25.1568 73.1797C31.256 75.0944 37.4201 77.1084 43.4786 79.1631L43.7007 79.6132L43.2506 79.8352C37.1966 77.7814 31.0375 75.7705 24.9449 73.8562L24.7134 73.4108L24.9616 73.1751Z"/>
</mask>
<path d="M24.9616 73.1751L25.1568 73.1797C31.256 75.0944 37.4201 77.1084 43.4786 79.1631L43.7007 79.6132L43.2506 79.8352C37.1966 77.7814 31.0375 75.7705 24.9449 73.8562L24.7134 73.4108L24.9616 73.1751Z" fill="#BCC7BD"/>
<path d="M25.1568 73.1797L25.1685 72.6799L25.2391 72.6815L25.3065 72.7027L25.1568 73.1797ZM43.4786 79.1631L43.6392 78.6895L43.8354 78.7561L43.9271 78.9419L43.4786 79.1631ZM43.7007 79.6132L44.1491 79.392L44.3703 79.8404L43.9219 80.0616L43.7007 79.6132ZM43.2506 79.8352L43.4718 80.2836L43.2861 80.3752L43.0899 80.3087L43.2506 79.8352ZM24.9449 73.8562L24.795 74.3333L24.597 74.271L24.5012 74.0868L24.9449 73.8562ZM24.7134 73.4108L24.2697 73.6414L24.0961 73.3073L24.3691 73.0481L24.7134 73.4108ZM24.9734 72.6753L25.1685 72.6799L25.145 73.6796L24.9498 73.675L24.9734 72.6753ZM25.3065 72.7027C31.4094 74.6185 37.5772 76.6336 43.6392 78.6895L43.3181 79.6366C37.2631 77.5831 31.1025 75.5703 25.007 73.6568L25.3065 72.7027ZM43.9271 78.9419L44.1491 79.392L43.2523 79.8344L43.0302 79.3842L43.9271 78.9419ZM43.9219 80.0616L43.4718 80.2836L43.0294 79.3868L43.4795 79.1648L43.9219 80.0616ZM43.0899 80.3087C37.0396 78.2562 30.8841 76.2464 24.795 74.3333L25.0948 73.3792C31.1909 75.2946 37.3536 77.3067 43.4112 79.3617L43.0899 80.3087ZM24.5012 74.0868L24.2697 73.6414L25.157 73.1802L25.3885 73.6257L24.5012 74.0868ZM24.3691 73.0481L24.6174 72.8125L25.3058 73.5378L25.0576 73.7734L24.3691 73.0481Z" fill="#BCC7BD" mask="url(#path-16-outside-6_1410_9980)"/>
<mask id="path-18-outside-7_1410_9980" maskUnits="userSpaceOnUse" x="21.8079" y="74.5985" width="21.685" height="17.4115" fill="black">
<rect fill="white" x="21.8079" y="74.5985" width="21.685" height="17.4115"/>
<path d="M23.5319 80.0189L23.7271 80.0235C29.8263 81.9382 35.9905 83.9521 42.049 86.0068L42.271 86.4569L41.8209 86.6789C35.767 84.6252 29.6078 82.6142 23.5152 80.7L23.2837 80.2545L23.5319 80.0189Z"/>
</mask>
<path d="M23.5319 80.0189L23.7271 80.0235C29.8263 81.9382 35.9905 83.9521 42.049 86.0068L42.271 86.4569L41.8209 86.6789C35.767 84.6252 29.6078 82.6142 23.5152 80.7L23.2837 80.2545L23.5319 80.0189Z" fill="#BCC7BD"/>
<path d="M23.7271 80.0235L23.7389 79.5236L23.8095 79.5253L23.8768 79.5464L23.7271 80.0235ZM42.049 86.0068L42.2095 85.5333L42.4057 85.5998L42.4974 85.7856L42.049 86.0068ZM42.271 86.4569L42.7194 86.2357L42.9406 86.6841L42.4922 86.9053L42.271 86.4569ZM41.8209 86.6789L42.0421 87.1274L41.8564 87.219L41.6603 87.1524L41.8209 86.6789ZM23.5152 80.7L23.3653 81.177L23.1673 81.1148L23.0716 80.9306L23.5152 80.7ZM23.2837 80.2545L22.84 80.4851L22.6664 80.1511L22.9395 79.8919L23.2837 80.2545ZM23.5437 79.519L23.7389 79.5236L23.7153 80.5234L23.5202 80.5188L23.5437 79.519ZM23.8768 79.5464C29.9797 81.4623 36.1475 83.4774 42.2095 85.5333L41.8884 86.4803C35.8334 84.4268 29.6728 82.4141 23.5773 80.5005L23.8768 79.5464ZM42.4974 85.7856L42.7194 86.2357L41.8226 86.6781L41.6005 86.228L42.4974 85.7856ZM42.4922 86.9053L42.0421 87.1274L41.5997 86.2305L42.0498 86.0085L42.4922 86.9053ZM41.6603 87.1524C35.6099 85.0999 29.4544 83.0901 23.3653 81.177L23.6651 80.223C29.7613 82.1384 35.924 84.1505 41.9815 86.2055L41.6603 87.1524ZM23.0716 80.9306L22.84 80.4851L23.7273 80.0239L23.9589 80.4694L23.0716 80.9306ZM22.9395 79.8919L23.1877 79.6563L23.8762 80.3815L23.6279 80.6172L22.9395 79.8919Z" fill="#BCC7BD" mask="url(#path-18-outside-7_1410_9980)"/>
<mask id="path-20-outside-8_1410_9980" maskUnits="userSpaceOnUse" x="20.3782" y="81.4423" width="21.685" height="17.4115" fill="black">
<rect fill="white" x="20.3782" y="81.4423" width="21.685" height="17.4115"/>
<path d="M22.1022 86.8626L22.2974 86.8672C28.3966 88.7819 34.5608 90.7959 40.6193 92.8506L40.8413 93.3007L40.3912 93.5227C34.3373 91.4689 28.1781 89.458 22.0855 87.5437L21.854 87.0983L22.1022 86.8626Z"/>
</mask>
<path d="M22.1022 86.8626L22.2974 86.8672C28.3966 88.7819 34.5608 90.7959 40.6193 92.8506L40.8413 93.3007L40.3912 93.5227C34.3373 91.4689 28.1781 89.458 22.0855 87.5437L21.854 87.0983L22.1022 86.8626Z" fill="#BCC7BD"/>
<path d="M22.2974 86.8672L22.3092 86.3674L22.3798 86.369L22.4471 86.3902L22.2974 86.8672ZM40.6193 92.8506L40.7799 92.377L40.976 92.4436L41.0677 92.6294L40.6193 92.8506ZM40.8413 93.3007L41.2897 93.0795L41.5109 93.5279L41.0625 93.7491L40.8413 93.3007ZM40.3912 93.5227L40.6124 93.9711L40.4267 94.0627L40.2306 93.9962L40.3912 93.5227ZM22.0855 87.5437L21.9357 88.0208L21.7376 87.9585L21.6419 87.7743L22.0855 87.5437ZM21.854 87.0983L21.4103 87.3289L21.2367 86.9948L21.5098 86.7356L21.854 87.0983ZM22.114 86.3628L22.3092 86.3674L22.2856 87.3671L22.0905 87.3625L22.114 86.3628ZM22.4471 86.3902C28.55 88.306 34.7178 90.3211 40.7799 92.377L40.4587 93.3241C34.4037 91.2706 28.2431 89.2578 22.1476 87.3443L22.4471 86.3902ZM41.0677 92.6294L41.2897 93.0795L40.3929 93.5219L40.1709 93.0717L41.0677 92.6294ZM41.0625 93.7491L40.6124 93.9711L40.17 93.0743L40.6201 92.8523L41.0625 93.7491ZM40.2306 93.9962C34.1803 91.9437 28.0247 89.9339 21.9357 88.0208L22.2354 87.0667C28.3316 88.9821 34.4943 90.9942 40.5518 93.0492L40.2306 93.9962ZM21.6419 87.7743L21.4103 87.3289L22.2976 86.8677L22.5292 87.3132L21.6419 87.7743ZM21.5098 86.7356L21.758 86.5L22.4465 87.2253L22.1982 87.4609L21.5098 86.7356Z" fill="#BCC7BD" mask="url(#path-20-outside-8_1410_9980)"/>
<mask id="path-22-outside-9_1410_9980" maskUnits="userSpaceOnUse" x="20.8587" y="89.3954" width="21.685" height="17.4115" fill="black">
<rect fill="white" x="20.8587" y="89.3954" width="21.685" height="17.4115"/>
<path d="M22.5827 94.8158L22.7779 94.8204C28.8771 96.735 35.0412 98.749 41.0997 100.804L41.3218 101.254L40.8717 101.476C34.8177 99.4221 28.6586 97.4111 22.566 95.4969L22.3345 95.0514L22.5827 94.8158Z"/>
</mask>
<path d="M22.5827 94.8158L22.7779 94.8204C28.8771 96.735 35.0412 98.749 41.0997 100.804L41.3218 101.254L40.8717 101.476C34.8177 99.4221 28.6586 97.4111 22.566 95.4969L22.3345 95.0514L22.5827 94.8158Z" fill="#BCC7BD"/>
<path d="M22.7779 94.8204L22.7896 94.3205L22.8602 94.3222L22.9276 94.3433L22.7779 94.8204ZM41.0997 100.804L41.2603 100.33L41.4565 100.397L41.5482 100.582L41.0997 100.804ZM41.3218 101.254L41.7702 101.033L41.9914 101.481L41.543 101.702L41.3218 101.254ZM40.8717 101.476L41.0929 101.924L40.9071 102.016L40.711 101.949L40.8717 101.476ZM22.566 95.4969L22.4161 95.9739L22.2181 95.9117L22.1223 95.7275L22.566 95.4969ZM22.3345 95.0514L21.8908 95.282L21.7172 94.948L21.9902 94.6888L22.3345 95.0514ZM22.5945 94.3159L22.7896 94.3205L22.7661 95.3202L22.5709 95.3156L22.5945 94.3159ZM22.9276 94.3433C29.0305 96.2592 35.1983 98.2743 41.2603 100.33L40.9392 101.277C34.8842 99.2237 28.7236 97.2109 22.6281 95.2974L22.9276 94.3433ZM41.5482 100.582L41.7702 101.033L40.8734 101.475L40.6513 101.025L41.5482 100.582ZM41.543 101.702L41.0929 101.924L40.6505 101.027L41.1006 100.805L41.543 101.702ZM40.711 101.949C34.6607 99.8968 28.5052 97.887 22.4161 95.9739L22.7159 95.0199C28.812 96.9352 34.9747 98.9473 41.0323 101.002L40.711 101.949ZM22.1223 95.7275L21.8908 95.282L22.7781 94.8208L23.0096 95.2663L22.1223 95.7275ZM21.9902 94.6888L22.2385 94.4531L22.9269 95.1784L22.6787 95.4141L21.9902 94.6888Z" fill="#BCC7BD" mask="url(#path-22-outside-9_1410_9980)"/>
<mask id="path-24-outside-10_1410_9980" maskUnits="userSpaceOnUse" x="21.3392" y="97.3564" width="21.685" height="17.4115" fill="black">
<rect fill="white" x="21.3392" y="97.3564" width="21.685" height="17.4115"/>
<path d="M23.0632 102.777L23.2583 102.781C29.3575 104.696 35.5217 106.71 41.5802 108.765L41.8022 109.215L41.3521 109.437C35.2982 107.383 29.1391 105.372 23.0465 103.458L22.8149 103.012L23.0632 102.777Z"/>
</mask>
<path d="M23.0632 102.777L23.2583 102.781C29.3575 104.696 35.5217 106.71 41.5802 108.765L41.8022 109.215L41.3521 109.437C35.2982 107.383 29.1391 105.372 23.0465 103.458L22.8149 103.012L23.0632 102.777Z" fill="#BCC7BD"/>
<path d="M23.2583 102.781L23.2701 102.281L23.3407 102.283L23.4081 102.304L23.2583 102.781ZM41.5802 108.765L41.7408 108.291L41.937 108.358L42.0286 108.543L41.5802 108.765ZM41.8022 109.215L42.2507 108.994L42.4718 109.442L42.0234 109.663L41.8022 109.215ZM41.3521 109.437L41.5733 109.885L41.3876 109.977L41.1915 109.91L41.3521 109.437ZM23.0465 103.458L22.8966 103.935L22.6985 103.873L22.6028 103.688L23.0465 103.458ZM22.8149 103.012L22.3713 103.243L22.1976 102.909L22.4707 102.65L22.8149 103.012ZM23.0749 102.277L23.2701 102.281L23.2466 103.281L23.0514 103.277L23.0749 102.277ZM23.4081 102.304C29.511 104.22 35.6788 106.235 41.7408 108.291L41.4196 109.238C35.3646 107.185 29.2041 105.172 23.1086 103.258L23.4081 102.304ZM42.0286 108.543L42.2507 108.994L41.3538 109.436L41.1318 108.986L42.0286 108.543ZM42.0234 109.663L41.5733 109.885L41.1309 108.988L41.581 108.766L42.0234 109.663ZM41.1915 109.91C35.1412 107.858 28.9857 105.848 22.8966 103.935L23.1963 102.981C29.2925 104.896 35.4552 106.908 41.5128 108.963L41.1915 109.91ZM22.6028 103.688L22.3713 103.243L23.2586 102.782L23.4901 103.227L22.6028 103.688ZM22.4707 102.65L22.719 102.414L23.4074 103.139L23.1592 103.375L22.4707 102.65Z" fill="#BCC7BD" mask="url(#path-24-outside-10_1410_9980)"/>
<mask id="path-26-outside-11_1410_9980" maskUnits="userSpaceOnUse" x="21.8157" y="105.309" width="21.685" height="17.4115" fill="black">
<rect fill="white" x="21.8157" y="105.309" width="21.685" height="17.4115"/>
<path d="M23.5397 110.73L23.7349 110.734C29.8341 112.649 35.9983 114.663 42.0568 116.718L42.2788 117.168L41.8287 117.39C35.7748 115.336 29.6156 113.325 23.523 111.411L23.2915 110.965L23.5397 110.73Z"/>
</mask>
<path d="M23.5397 110.73L23.7349 110.734C29.8341 112.649 35.9983 114.663 42.0568 116.718L42.2788 117.168L41.8287 117.39C35.7748 115.336 29.6156 113.325 23.523 111.411L23.2915 110.965L23.5397 110.73Z" fill="#BCC7BD"/>
<path d="M23.7349 110.734L23.7467 110.235L23.8173 110.236L23.8846 110.257L23.7349 110.734ZM42.0568 116.718L42.2174 116.244L42.4135 116.311L42.5052 116.497L42.0568 116.718ZM42.2788 117.168L42.7272 116.947L42.9484 117.395L42.5 117.616L42.2788 117.168ZM41.8287 117.39L42.0499 117.838L41.8642 117.93L41.6681 117.863L41.8287 117.39ZM23.523 111.411L23.3732 111.888L23.1751 111.826L23.0794 111.642L23.523 111.411ZM23.2915 110.965L22.8478 111.196L22.6742 110.862L22.9473 110.603L23.2915 110.965ZM23.5515 110.23L23.7467 110.235L23.7231 111.234L23.528 111.23L23.5515 110.23ZM23.8846 110.257C29.9875 112.173 36.1553 114.188 42.2174 116.244L41.8962 117.191C35.8412 115.138 29.6806 113.125 23.5851 111.211L23.8846 110.257ZM42.5052 116.497L42.7272 116.947L41.8304 117.389L41.6084 116.939L42.5052 116.497ZM42.5 117.616L42.0499 117.838L41.6075 116.941L42.0576 116.719L42.5 117.616ZM41.6681 117.863C35.6178 115.811 29.4622 113.801 23.3732 111.888L23.6729 110.934C29.7691 112.849 35.9318 114.861 41.9893 116.916L41.6681 117.863ZM23.0794 111.642L22.8478 111.196L23.7351 110.735L23.9667 111.18L23.0794 111.642ZM22.9473 110.603L23.1955 110.367L23.884 111.092L23.6357 111.328L22.9473 110.603Z" fill="#BCC7BD" mask="url(#path-26-outside-11_1410_9980)"/>
<path d="M61.7259 25.1422C63.6767 24.6283 65.8046 26.5289 65.2914 28.5973C65.6773 29.0969 65.8806 29.7459 65.7509 30.3577C65.7048 30.9517 65.3976 31.4464 64.9588 31.8098C64.2111 29.8797 63.4634 27.9495 62.7137 26.0199L62.1968 26.2014C59.4688 27.1765 56.9207 28.3026 54.5374 29.5554C55.1771 29.1369 55.8036 28.7003 56.4599 28.3119C57.4682 27.7381 58.5637 27.3158 59.524 26.6577C60.2338 26.1043 59.8896 26.1971 60.9935 25.4623C61.2297 25.3118 61.476 25.2081 61.7259 25.1422ZM52.2364 30.834C37.067 39.7205 29.1352 53.7712 25.0431 64.8988C24.875 65.3568 24.7123 65.8113 24.5543 66.2668C24.8335 65.2406 25.1401 64.2202 25.4908 63.2118C27.1342 58.5289 29.4898 54.1196 32.0059 49.8533C35.8295 43.0077 42.1497 36.0754 46.9065 33.083C48.5562 32.0558 50.4208 31.4848 52.2364 30.834ZM17.6733 97.3702C17.7604 97.4227 17.8451 97.4823 17.9308 97.5459C18.9448 98.2206 19.3005 99.5299 19.0264 100.682C18.9892 100.901 18.9388 101.119 18.8626 101.328C18.8758 103.178 20.1477 108.218 21.2111 111.772C21.8496 113.778 22.4132 115.427 23.0265 116.953L23.066 116.441C21.5815 112.123 20.5721 107.645 20.1937 103.101C20.1197 102.32 20.0654 101.542 20.0282 100.763C20.324 104.29 20.8571 107.393 21.5255 109.931C23.2022 116.295 25.3275 122.276 27.8514 127.725C29.3371 127.049 30.8373 126.363 32.3495 125.665C32.0056 126.413 31.3714 127.024 30.5632 127.237C30.5189 127.249 30.4741 127.258 30.4292 127.268C30.6276 128.323 29.8515 129.28 28.8943 129.532C28.4247 129.656 27.91 129.608 27.4473 129.316L27.2187 129.144C26.9674 129.344 26.6848 129.498 26.3796 129.591C26.3791 129.589 26.3766 129.588 26.3761 129.586C23.6013 123.765 21.2777 117.334 19.4699 110.472C18.4707 106.679 17.8848 102.435 17.6963 97.9482C17.6883 97.7542 17.6808 97.5622 17.6733 97.3702Z" fill="#BCC7BD"/>
<mask id="path-29-outside-12_1410_9980" maskUnits="userSpaceOnUse" x="53.9983" y="30.5391" width="6.82106" height="5.39657" fill="black">
<rect fill="white" x="53.9983" y="30.5391" width="6.82106" height="5.39657"/>
<path d="M55.7591 32.6379L56.0225 32.672L58.6929 34.1861C58.4548 34.3048 58.2016 34.4319 57.9339 34.5692L55.6738 33.2875L55.5404 32.8054L55.7591 32.6379Z"/>
</mask>
<path d="M55.7591 32.6379L56.0225 32.672L58.6929 34.1861C58.4548 34.3048 58.2016 34.4319 57.9339 34.5692L55.6738 33.2875L55.5404 32.8054L55.7591 32.6379Z" fill="#BCC7BD"/>
<path d="M56.0225 32.672L56.0866 32.1761L56.1838 32.1887L56.2691 32.237L56.0225 32.672ZM58.6929 34.1861L58.9395 33.7511L59.7565 34.2143L58.9161 34.6335L58.6929 34.1861ZM57.9339 34.5692L58.1621 35.0141L57.922 35.1373L57.6872 35.0042L57.9339 34.5692ZM55.6738 33.2875L55.4272 33.7224L55.2472 33.6203L55.192 33.4209L55.6738 33.2875ZM55.5404 32.8054L55.0585 32.9388L54.9685 32.6136L55.2364 32.4085L55.5404 32.8054ZM55.8233 32.142L56.0866 32.1761L55.9583 33.1678L55.695 33.1338L55.8233 32.142ZM56.2691 32.237L58.9395 33.7511L58.4463 34.621L55.7759 33.1069L56.2691 32.237ZM58.9161 34.6335C58.6787 34.7519 58.4274 34.878 58.1621 35.0141L57.7057 34.1244C57.9758 33.9858 58.2309 33.8578 58.4697 33.7387L58.9161 34.6335ZM57.6872 35.0042L55.4272 33.7224L55.9205 32.8526L58.1805 34.1343L57.6872 35.0042ZM55.192 33.4209L55.0585 32.9388L56.0223 32.6721L56.1557 33.1541L55.192 33.4209ZM55.2364 32.4085L55.4551 32.2409L56.0632 33.0348L55.8445 33.2024L55.2364 32.4085Z" fill="#BCC7BD" mask="url(#path-29-outside-12_1410_9980)"/>
<path d="M49.2362 35.8255L49.4792 35.8477C50.6601 36.4116 51.8371 36.9851 53.0136 37.5652C52.7942 37.7222 52.5767 37.8786 52.3613 38.0345C51.3013 37.512 50.2388 36.9967 49.1759 36.4879L49.0081 36.0149L49.2362 35.8255Z" fill="#BCC7BD"/>
<path d="M43.6985 40.0899L43.9516 40.1181L47.612 42.0029C47.4301 42.1715 47.2487 42.3421 47.0644 42.5178L43.6264 40.749L43.4749 40.2717L43.6985 40.0899Z" fill="#BCC7BD"/>
<path d="M38.0968 46.2542L38.3255 46.2716C39.5025 46.7718 40.6782 47.2832 41.852 47.8037C41.6835 47.9903 41.5185 48.1739 41.356 48.3589C40.2555 47.8708 39.153 47.3919 38.0486 46.9221L37.8613 46.4564L38.0968 46.2542Z" fill="#BCC7BD"/>
<path d="M33.9158 52.8361L34.1226 52.8441C35.1224 53.1949 36.1212 53.5503 37.1186 53.9168C36.9882 54.1171 36.8563 54.32 36.7254 54.5269C35.7808 54.1809 34.8344 53.8441 33.8895 53.5133L33.6715 53.0621L33.9158 52.8361Z" fill="#BCC7BD"/>
<path d="M30.2723 59.1956L30.4843 59.2066C31.4975 59.5754 32.5101 59.9509 33.5218 60.3309C33.4209 60.545 33.3206 60.761 33.2217 60.9746C32.2272 60.603 31.2337 60.2354 30.2414 59.8718L30.029 59.417L30.2723 59.1956Z" fill="#BCC7BD"/>
<path d="M27.6109 66.0907L27.8061 66.0953C28.8723 66.4286 29.9377 66.7665 31.0061 67.1079C30.9422 67.3316 30.8819 67.5608 30.8195 67.7906C29.7426 67.4493 28.6676 67.1076 27.5942 66.7718L27.3627 66.3263L27.6109 66.0907Z" fill="#BCC7BD"/>
<path d="M86.7305 21.9297C86.7609 22.8958 86.7858 23.8741 86.8045 24.8692C86.2688 23.9974 86.1505 22.8777 86.7305 21.9297Z" fill="#DEDEDE"/>
<path d="M91.1088 19.6024C91.5602 19.4834 92.0184 19.3821 92.4779 19.302C96.9879 18.5061 101.577 18.5513 106.112 19.0915C108.19 19.2746 110.296 19.1939 112.362 19.5181C114.845 19.8856 117.256 20.619 119.692 21.2034C120.657 21.4405 121.156 22.2273 121.223 23.0545C110.196 19.9337 98.737 19.7134 88.813 20.6231C88.8838 22.4708 88.9308 24.3507 88.9536 26.3102C88.0488 26.1972 87.2712 25.6263 86.8062 24.8673C86.7875 23.8722 86.7626 22.8939 86.7322 21.9278C86.8039 21.8076 86.8894 21.6902 86.9845 21.5768C87.3245 20.9937 87.9616 20.7289 88.5658 20.4943C89.3896 20.1285 90.2402 19.8312 91.1088 19.6024Z" fill="#BCC7BD"/>
</svg>
