<svg width="40" height="40" viewBox="0 0 40 40" fill="none" xmlns="http://www.w3.org/2000/svg">
<rect width="40" height="40" rx="4" fill="#FFFBF2"/>
<path d="M15.3125 13.3398V14.6875H20H24.6875V13.3398V11.9922H20H15.3125V13.3398Z" fill="#FBC116"/>
<path d="M15.1641 16.1992C14.1719 17.6602 13.5312 19.582 13.3633 21.5742C13.3359 21.875 13.3203 23.2617 13.3203 25.043V28.0078H18.0039H22.6914L22.707 24.7383C22.7227 21.2031 22.7227 21.2305 22.9492 20.0938C23.207 18.8164 23.793 17.3594 24.4336 16.3945C24.5742 16.1836 24.6875 16 24.6875 15.9922C24.6875 15.9844 22.5781 15.9766 20 15.9766H15.3164L15.1641 16.1992Z" fill="#FBC116"/>
<path d="M25.2617 17.5117C24.6914 18.5273 24.3086 19.6758 24.1016 20.9961C24.0156 21.5234 24.0117 21.6602 24 24.7734L23.9844 28.0078H25.3359H26.6875L26.6719 24.7383C26.6601 21.9062 26.6484 21.4023 26.5898 21.0156C26.3945 19.6875 26.0898 18.6172 25.625 17.6172C25.5351 17.4219 25.4453 17.2656 25.4297 17.2656C25.4141 17.2656 25.3359 17.375 25.2617 17.5117Z" fill="#FBC116"/>
</svg>
