<svg width="20" height="20" viewBox="0 0 20 20" fill="none" xmlns="http://www.w3.org/2000/svg">
<path d="M5.83293 12.3592C5.98906 12.5144 6.20027 12.6016 6.42043 12.6016C6.64058 12.6016 6.85179 12.5144 7.00793 12.3592L9.9996 9.40924L12.9496 12.3592C13.1057 12.5144 13.3169 12.6016 13.5371 12.6016C13.7572 12.6016 13.9685 12.5144 14.1246 12.3592C14.2027 12.2818 14.2647 12.1896 14.307 12.088C14.3493 11.9865 14.3711 11.8776 14.3711 11.7676C14.3711 11.6576 14.3493 11.5486 14.307 11.4471C14.2647 11.3455 14.2027 11.2534 14.1246 11.1759L10.5913 7.64257C10.5138 7.56446 10.4216 7.50247 10.3201 7.46016C10.2185 7.41785 10.1096 7.39607 9.9996 7.39607C9.88959 7.39607 9.78066 7.41785 9.67911 7.46016C9.57757 7.50247 9.4854 7.56446 9.40793 7.64257L5.83293 11.1759C5.75482 11.2534 5.69283 11.3455 5.65052 11.4471C5.60821 11.5486 5.58643 11.6576 5.58643 11.7676C5.58643 11.8776 5.60821 11.9865 5.65052 12.088C5.69283 12.1896 5.75482 12.2818 5.83293 12.3592Z" fill="#63605F"/>
</svg>
