<svg width="144" height="113" viewBox="0 0 144 113" fill="none" xmlns="http://www.w3.org/2000/svg">
<path d="M24.0852 109.374L52.2628 100.528L45.6257 79.3871L17.4482 88.2331L24.0852 109.374ZM53.9384 102.264L23.7021 111.756C23.1333 111.935 22.5284 111.619 22.3497 111.05L15.0664 87.8505C14.8878 87.2815 15.2034 86.6764 15.7725 86.4977L46.0088 77.0054C46.5779 76.8267 47.1828 77.1428 47.3614 77.7119L54.6447 100.912C54.8234 101.481 54.5072 102.085 53.9384 102.264Z" fill="#BCC7BD" stroke="#BCC7BD" stroke-width="0.6"/>
<mask id="path-2-outside-1_1732_6189" maskUnits="userSpaceOnUse" x="51.5521" y="39.807" width="48.6689" height="59.1419" fill="black">
<rect fill="white" x="51.5521" y="39.807" width="48.6689" height="59.1419"/>
<path d="M68.5021 95.7426L97.2536 86.7164L83.6608 43.4188L54.9093 52.445L68.5021 95.7426ZM98.4618 87.9697L68.2256 97.462C67.8161 97.5906 67.3783 97.3635 67.2492 96.9525L53.1898 52.1684C53.0613 51.7591 53.2903 51.3208 53.6997 51.1922L83.936 41.6999C84.3469 41.5709 84.7852 41.7997 84.9137 42.209L98.9732 86.9931C99.1022 87.4042 98.8727 87.8407 98.4618 87.9697Z"/>
</mask>
<path d="M68.5021 95.7426L97.2536 86.7164L83.6608 43.4188L54.9093 52.445L68.5021 95.7426ZM98.4618 87.9697L68.2256 97.462C67.8161 97.5906 67.3783 97.3635 67.2492 96.9525L53.1898 52.1684C53.0613 51.7591 53.2903 51.3208 53.6997 51.1922L83.936 41.6999C84.3469 41.5709 84.7852 41.7997 84.9137 42.209L98.9732 86.9931C99.1022 87.4042 98.8727 87.8407 98.4618 87.9697Z" fill="#BCC7BD"/>
<path d="M68.5021 95.7426L68.6818 96.3151L68.1094 96.4948L67.9297 95.9223L68.5021 95.7426ZM97.2536 86.7164L97.8261 86.5367L98.0058 87.1092L97.4333 87.2889L97.2536 86.7164ZM83.6608 43.4188L83.4811 42.8464L84.0536 42.6667L84.2333 43.2391L83.6608 43.4188ZM54.9093 52.445L54.3369 52.6248L54.1572 52.0523L54.7296 51.8726L54.9093 52.445ZM68.3224 95.1702L97.0739 86.144L97.4333 87.2889L68.6818 96.3151L68.3224 95.1702ZM96.6812 86.8961L83.0884 43.5986L84.2333 43.2391L97.8261 86.5367L96.6812 86.8961ZM83.8406 43.9913L55.0891 53.0175L54.7296 51.8726L83.4811 42.8464L83.8406 43.9913ZM55.4818 52.2653L69.0746 95.5629L67.9297 95.9223L54.3369 52.6248L55.4818 52.2653ZM98.6416 88.5421L68.4053 98.0345L68.0458 96.8896L98.2821 87.3972L98.6416 88.5421ZM68.4053 98.0345C67.6808 98.2619 66.9054 97.8605 66.6768 97.1322L67.8217 96.7728C67.8511 96.8665 67.9514 96.9192 68.0458 96.8896L68.4053 98.0345ZM66.6768 97.1322L52.6173 52.3481L53.7622 51.9887L67.8217 96.7728L66.6768 97.1322ZM52.6173 52.3481C52.3895 51.6224 52.7946 50.8475 53.52 50.6198L53.8794 51.7647C53.7859 51.7941 53.7331 51.8957 53.7622 51.9887L52.6173 52.3481ZM53.52 50.6198L83.7563 41.1275L84.1157 42.2724L53.8794 51.7647L53.52 50.6198ZM83.7563 41.1275C84.4824 40.8995 85.2582 41.3029 85.4862 42.0293L84.3413 42.3887C84.3123 42.2965 84.2114 42.2423 84.1157 42.2724L83.7563 41.1275ZM85.4862 42.0293L99.5457 86.8134L98.4007 87.1728L84.3413 42.3887L85.4862 42.0293ZM99.5457 86.8134C99.7745 87.5424 99.3668 88.3145 98.6416 88.5421L98.2821 87.3972C98.3787 87.3669 98.43 87.2659 98.4007 87.1728L99.5457 86.8134Z" fill="#BCC7BD" mask="url(#path-2-outside-1_1732_6189)"/>
<mask id="path-4-outside-2_1732_6189" maskUnits="userSpaceOnUse" x="87.7149" y="0.156026" width="56.756" height="84.9023" fill="black">
<rect fill="white" x="87.7149" y="0.156026" width="56.756" height="84.9023"/>
<path d="M112.752 81.852L141.502 72.8263L119.567 2.95541L90.817 11.9812L112.752 81.852ZM142.712 74.0791L112.476 83.5714C112.065 83.7004 111.628 83.4729 111.499 83.0619L89.0976 11.7051C88.9689 11.2952 89.1964 10.8573 89.6073 10.7283L119.844 1.23601C120.255 1.10701 120.691 1.33626 120.82 1.74614L143.222 73.1029C143.351 73.514 143.123 73.9501 142.712 74.0791Z"/>
</mask>
<path d="M112.752 81.852L141.502 72.8263L119.567 2.95541L90.817 11.9812L112.752 81.852ZM142.712 74.0791L112.476 83.5714C112.065 83.7004 111.628 83.4729 111.499 83.0619L89.0976 11.7051C88.9689 11.2952 89.1964 10.8573 89.6073 10.7283L119.844 1.23601C120.255 1.10701 120.691 1.33626 120.82 1.74614L143.222 73.1029C143.351 73.514 143.123 73.9501 142.712 74.0791Z" fill="#BCC7BD"/>
<path d="M141.502 72.8263L142.075 72.6465L142.254 73.219L141.682 73.3987L141.502 72.8263ZM119.567 2.95541L119.387 2.38296L119.96 2.20325L120.139 2.7757L119.567 2.95541ZM90.817 11.9812L90.2445 12.1609L90.0648 11.5884L90.6373 11.4087L90.817 11.9812ZM112.572 81.2796L141.322 72.2538L141.682 73.3987L112.932 82.4245L112.572 81.2796ZM140.93 73.006L118.995 3.13513L120.139 2.7757L142.075 72.6465L140.93 73.006ZM119.747 3.52786L90.9967 12.5536L90.6373 11.4087L119.387 2.38296L119.747 3.52786ZM91.3894 11.8014L113.325 81.6723L112.18 82.0317L90.2445 12.1609L91.3894 11.8014ZM142.892 74.6515L112.655 84.1438L112.296 82.9989L142.532 73.5066L142.892 74.6515ZM112.655 84.1438C111.929 84.372 111.155 83.9692 110.927 83.2416L112.072 82.8821C112.101 82.9767 112.201 83.0288 112.296 82.9989L112.655 84.1438ZM110.927 83.2416L88.5251 11.8848L89.67 11.5253L112.072 82.8821L110.927 83.2416ZM88.5251 11.8848C88.2974 11.1595 88.6998 10.3844 89.4276 10.1559L89.787 11.3008C89.6931 11.3303 89.6404 11.4308 89.67 11.5253L88.5251 11.8848ZM89.4276 10.1559L119.664 0.663556L120.023 1.80846L89.787 11.3008L89.4276 10.1559ZM119.664 0.663556C120.392 0.435044 121.165 0.841218 121.393 1.56643L120.248 1.92586C120.218 1.8313 120.117 1.77898 120.023 1.80846L119.664 0.663556ZM121.393 1.56643L143.794 72.9232L142.649 73.2827L120.248 1.92586L121.393 1.56643ZM143.794 72.9232C144.023 73.6508 143.618 74.4234 142.892 74.6515L142.532 73.5066C142.627 73.4768 142.679 73.3772 142.649 73.2827L143.794 72.9232Z" fill="#BCC7BD" mask="url(#path-4-outside-2_1732_6189)"/>
<mask id="path-6-outside-3_1732_6189" maskUnits="userSpaceOnUse" x="22.6452" y="99.8846" width="8.77529" height="8.77529" fill="black">
<rect fill="white" x="22.6452" y="99.8846" width="8.77529" height="8.77529"/>
<path d="M30.3244 105.859L30.164 105.858C27.9911 105.127 25.911 104.13 23.9793 102.892L23.9002 102.533L24.2599 102.455C26.1553 103.669 28.1966 104.65 30.3296 105.366L30.492 105.695L30.3244 105.859Z"/>
</mask>
<path d="M30.3244 105.859L30.164 105.858C27.9911 105.127 25.911 104.13 23.9793 102.892L23.9002 102.533L24.2599 102.455C26.1553 103.669 28.1966 104.65 30.3296 105.366L30.492 105.695L30.3244 105.859Z" fill="#BCC7BD"/>
<path d="M30.164 105.858L30.1613 106.358L30.0808 106.358L30.0045 106.332L30.164 105.858ZM23.9793 102.892L23.7096 103.313L23.5355 103.202L23.491 103L23.9793 102.892ZM23.9002 102.533L23.4119 102.641L23.304 102.151L23.7942 102.045L23.9002 102.533ZM24.2599 102.455L24.1539 101.966L24.3557 101.923L24.5296 102.034L24.2599 102.455ZM30.3296 105.366L30.4889 104.892L30.6858 104.958L30.7779 105.145L30.3296 105.366ZM30.492 105.695L30.9403 105.473L31.1008 105.798L30.8422 106.052L30.492 105.695ZM30.3216 106.359L30.1613 106.358L30.1668 105.358L30.3271 105.359L30.3216 106.359ZM30.0045 106.332C27.7929 105.588 25.6757 104.573 23.7096 103.313L24.2491 102.471C26.1462 103.687 28.1893 104.666 30.3236 105.384L30.0045 106.332ZM23.491 103L23.4119 102.641L24.3885 102.426L24.4676 102.785L23.491 103ZM23.7942 102.045L24.1539 101.966L24.3659 102.944L24.0062 103.022L23.7942 102.045ZM24.5296 102.034C26.3907 103.226 28.395 104.189 30.4889 104.892L30.1704 105.84C27.9983 105.11 25.9198 104.112 23.9902 102.876L24.5296 102.034ZM30.7779 105.145L30.9403 105.473L30.0438 105.916L29.8814 105.588L30.7779 105.145ZM30.8422 106.052L30.6746 106.216L29.9742 105.502L30.1418 105.338L30.8422 106.052Z" fill="#BCC7BD" mask="url(#path-6-outside-3_1732_6189)"/>
<mask id="path-8-outside-4_1732_6189" maskUnits="userSpaceOnUse" x="97.196" y="24.9002" width="8.77529" height="8.77529" fill="black">
<rect fill="white" x="97.196" y="24.9002" width="8.77529" height="8.77529"/>
<path d="M104.875 30.8748L104.715 30.8739C102.542 30.1424 100.462 29.1454 98.5301 27.9078L98.451 27.5488L98.8107 27.4707C100.706 28.6847 102.747 29.6652 104.88 30.3817L105.043 30.7103L104.875 30.8748Z"/>
</mask>
<path d="M104.875 30.8748L104.715 30.8739C102.542 30.1424 100.462 29.1454 98.5301 27.9078L98.451 27.5488L98.8107 27.4707C100.706 28.6847 102.747 29.6652 104.88 30.3817L105.043 30.7103L104.875 30.8748Z" fill="#BCC7BD"/>
<path d="M104.715 30.8739L104.712 31.3739L104.632 31.3735L104.555 31.3478L104.715 30.8739ZM98.5301 27.9078L98.2604 28.3288L98.0863 28.2173L98.0418 28.0154L98.5301 27.9078ZM98.451 27.5488L97.9627 27.6563L97.8548 27.1665L98.345 27.0601L98.451 27.5488ZM98.8107 27.4707L98.7047 26.9821L98.9065 26.9383L99.0803 27.0497L98.8107 27.4707ZM104.88 30.3817L105.04 29.9078L105.237 29.9739L105.329 30.1602L104.88 30.3817ZM105.043 30.7103L105.491 30.4888L105.652 30.8135L105.393 31.0672L105.043 30.7103ZM104.872 31.3748L104.712 31.3739L104.718 30.3739L104.878 30.3748L104.872 31.3748ZM104.555 31.3478C102.344 30.6032 100.227 29.5885 98.2604 28.3288L98.7999 27.4868C100.697 28.7023 102.74 29.6815 104.874 30.4001L104.555 31.3478ZM98.0418 28.0154L97.9627 27.6563L98.9393 27.4412L99.0184 27.8002L98.0418 28.0154ZM98.345 27.0601L98.7047 26.9821L98.9167 27.9594L98.557 28.0374L98.345 27.0601ZM99.0803 27.0497C100.941 28.2417 102.946 29.2043 105.04 29.9078L104.721 30.8557C102.549 30.126 100.471 29.1277 98.541 27.8918L99.0803 27.0497ZM105.329 30.1602L105.491 30.4888L104.595 30.9318L104.432 30.6033L105.329 30.1602ZM105.393 31.0672L105.225 31.2317L104.525 30.5179L104.693 30.3534L105.393 31.0672Z" fill="#BCC7BD" mask="url(#path-8-outside-4_1732_6189)"/>
<mask id="path-10-outside-5_1732_6189" maskUnits="userSpaceOnUse" x="20.3415" y="91.1561" width="17.5506" height="17.5506" fill="black">
<rect fill="white" x="20.3415" y="91.1561" width="17.5506" height="17.5506"/>
<path d="M36.7268 103.831L36.5495 103.822C31.5149 101.71 26.5463 99.2781 21.781 96.596L21.683 96.2429L22.0358 96.1433C26.7838 98.8159 31.7353 101.239 36.7498 103.344L36.8883 103.683L36.7268 103.831Z"/>
</mask>
<path d="M36.7268 103.831L36.5495 103.822C31.5149 101.71 26.5463 99.2781 21.781 96.596L21.683 96.2429L22.0358 96.1433C26.7838 98.8159 31.7353 101.239 36.7498 103.344L36.8883 103.683L36.7268 103.831Z" fill="#BCC7BD"/>
<path d="M36.5495 103.822L36.5246 104.322L36.437 104.317L36.3561 104.283L36.5495 103.822ZM21.781 96.596L21.5357 97.0317L21.3548 96.9298L21.2992 96.7297L21.781 96.596ZM21.683 96.2429L21.2012 96.3767L21.068 95.8969L21.5472 95.7617L21.683 96.2429ZM22.0358 96.1433L21.9001 95.6621L22.1 95.6057L22.2811 95.7076L22.0358 96.1433ZM36.7498 103.344L36.9433 102.883L37.1344 102.963L37.2127 103.155L36.7498 103.344ZM36.8883 103.683L37.3512 103.494L37.4827 103.816L37.2265 104.051L36.8883 103.683ZM36.7018 104.33L36.5246 104.322L36.5745 103.323L36.7517 103.332L36.7018 104.33ZM36.3561 104.283C31.3036 102.164 26.3178 99.7232 21.5357 97.0317L22.0262 96.1603C26.7749 98.833 31.7261 101.256 36.743 103.361L36.3561 104.283ZM21.2992 96.7297L21.2012 96.3767L22.1647 96.1091L22.2628 96.4622L21.2992 96.7297ZM21.5472 95.7617L21.9001 95.6621L22.1716 96.6245L21.8187 96.7241L21.5472 95.7617ZM22.2811 95.7076C27.0124 98.3708 31.9465 100.786 36.9433 102.883L36.5563 103.805C31.524 101.693 26.5552 99.261 21.7906 96.579L22.2811 95.7076ZM37.2127 103.155L37.3512 103.494L36.4254 103.872L36.2869 103.533L37.2127 103.155ZM37.2265 104.051L37.065 104.199L36.3886 103.463L36.55 103.315L37.2265 104.051Z" fill="#BCC7BD" mask="url(#path-10-outside-5_1732_6189)"/>
<mask id="path-12-outside-6_1732_6189" maskUnits="userSpaceOnUse" x="94.8884" y="16.164" width="17.5506" height="17.5506" fill="black">
<rect fill="white" x="94.8884" y="16.164" width="17.5506" height="17.5506"/>
<path d="M111.274 28.8389L111.096 28.8301C106.062 26.7178 101.093 24.2859 96.3279 21.6038L96.2298 21.2507L96.5827 21.1511C101.331 23.8237 106.282 26.2472 111.297 28.3515L111.435 28.6906L111.274 28.8389Z"/>
</mask>
<path d="M111.274 28.8389L111.096 28.8301C106.062 26.7178 101.093 24.2859 96.3279 21.6038L96.2298 21.2507L96.5827 21.1511C101.331 23.8237 106.282 26.2472 111.297 28.3515L111.435 28.6906L111.274 28.8389Z" fill="#BCC7BD"/>
<path d="M111.096 28.8301L111.071 29.3294L110.984 29.3251L110.903 29.2911L111.096 28.8301ZM96.3279 21.6038L96.0826 22.0395L95.9016 21.9377L95.8461 21.7376L96.3279 21.6038ZM96.2298 21.2507L95.7481 21.3845L95.6149 20.9047L96.094 20.7695L96.2298 21.2507ZM96.5827 21.1511L96.4469 20.6699L96.6469 20.6135L96.828 20.7154L96.5827 21.1511ZM111.297 28.3515L111.49 27.8904L111.681 27.9706L111.76 28.1625L111.297 28.3515ZM111.435 28.6906L111.898 28.5016L112.03 28.8235L111.773 29.0588L111.435 28.6906ZM111.249 29.3383L111.071 29.3294L111.121 28.3307L111.299 28.3395L111.249 29.3383ZM110.903 29.2911C105.85 27.1714 100.865 24.731 96.0826 22.0395L96.5731 21.1681C101.322 23.8408 106.273 26.2642 111.29 28.369L110.903 29.2911ZM95.8461 21.7376L95.7481 21.3845L96.7116 21.117L96.8096 21.47L95.8461 21.7376ZM96.094 20.7695L96.4469 20.6699L96.7185 21.6323L96.3656 21.7319L96.094 20.7695ZM96.828 20.7154C101.559 23.3786 106.493 25.7936 111.49 27.8904L111.103 28.8125C106.071 26.7007 101.102 24.2688 96.3375 21.5869L96.828 20.7154ZM111.76 28.1625L111.898 28.5016L110.972 28.8796L110.834 28.5405L111.76 28.1625ZM111.773 29.0588L111.612 29.2071L110.935 28.4707L111.097 28.3224L111.773 29.0588Z" fill="#BCC7BD" mask="url(#path-12-outside-6_1732_6189)"/>
<mask id="path-14-outside-7_1732_6189" maskUnits="userSpaceOnUse" x="20.5705" y="84.4037" width="23.8187" height="23.8187" fill="black">
<rect fill="white" x="20.5705" y="84.4037" width="23.8187" height="23.8187"/>
<path d="M42.7809 101.988L42.5888 101.973C35.7135 98.5913 28.7964 95.036 22.0291 91.4023L21.9223 91.0518L22.2744 90.9444C29.0376 94.5756 35.9491 98.1283 42.8183 101.506L42.9359 101.855L42.7809 101.988Z"/>
</mask>
<path d="M42.7809 101.988L42.5888 101.973C35.7135 98.5913 28.7964 95.036 22.0291 91.4023L21.9223 91.0518L22.2744 90.9444C29.0376 94.5756 35.9491 98.1283 42.8183 101.506L42.9359 101.855L42.7809 101.988Z" fill="#BCC7BD"/>
<path d="M42.5888 101.973L42.5489 102.471L42.4538 102.464L42.3682 102.421L42.5888 101.973ZM22.0291 91.4023L21.7926 91.8428L21.6109 91.7452L21.5508 91.548L22.0291 91.4023ZM21.9223 91.0518L21.444 91.1976L21.2982 90.7193L21.7765 90.5735L21.9223 91.0518ZM22.2744 90.9444L22.1286 90.4662L22.3276 90.4055L22.5109 90.5039L22.2744 90.9444ZM42.8183 101.506L43.0389 101.057L43.2257 101.149L43.2922 101.346L42.8183 101.506ZM42.9359 101.855L43.4097 101.695L43.517 102.014L43.2624 102.233L42.9359 101.855ZM42.741 102.487L42.5489 102.471L42.6288 101.474L42.8209 101.49L42.741 102.487ZM42.3682 102.421C35.4875 99.0373 28.5651 95.4793 21.7926 91.8428L22.2656 90.9617C29.0276 94.5926 35.9395 98.1452 42.8095 101.524L42.3682 102.421ZM21.5508 91.548L21.444 91.1976L22.4006 90.906L22.5074 91.2565L21.5508 91.548ZM21.7765 90.5735L22.1286 90.4662L22.4202 91.4227L22.0681 91.5301L21.7765 90.5735ZM22.5109 90.5039C29.2689 94.1322 36.1751 97.6823 43.0389 101.057L42.5977 101.954C35.7231 98.5744 28.8064 95.0189 22.0379 91.385L22.5109 90.5039ZM43.2922 101.346L43.4097 101.695L42.462 102.014L42.3445 101.665L43.2922 101.346ZM43.2624 102.233L43.1075 102.367L42.4544 101.61L42.6093 101.476L43.2624 102.233Z" fill="#BCC7BD" mask="url(#path-14-outside-7_1732_6189)"/>
<mask id="path-16-outside-8_1732_6189" maskUnits="userSpaceOnUse" x="95.1174" y="9.41933" width="23.8187" height="23.8187" fill="black">
<rect fill="white" x="95.1174" y="9.41933" width="23.8187" height="23.8187"/>
<path d="M117.328 27.0038L117.136 26.9884C110.26 23.6069 103.343 20.0516 96.576 16.4179L96.4691 16.0674L96.8212 15.9601C103.584 19.5912 110.496 23.144 117.365 26.5213L117.483 26.8701L117.328 27.0038Z"/>
</mask>
<path d="M117.328 27.0038L117.136 26.9884C110.26 23.6069 103.343 20.0516 96.576 16.4179L96.4691 16.0674L96.8212 15.9601C103.584 19.5912 110.496 23.144 117.365 26.5213L117.483 26.8701L117.328 27.0038Z" fill="#BCC7BD"/>
<path d="M117.136 26.9884L117.096 27.4868L117.001 27.4791L116.915 27.437L117.136 26.9884ZM96.576 16.4179L96.3394 16.8584L96.1578 16.7609L96.0977 16.5637L96.576 16.4179ZM96.4691 16.0674L95.9909 16.2132L95.8451 15.7349L96.3233 15.5891L96.4691 16.0674ZM96.8212 15.9601L96.6754 15.4818L96.8745 15.4211L97.0578 15.5196L96.8212 15.9601ZM117.365 26.5213L117.586 26.0726L117.773 26.1644L117.839 26.3616L117.365 26.5213ZM117.483 26.8701L117.957 26.7105L118.064 27.0291L117.809 27.2487L117.483 26.8701ZM117.288 27.5022L117.096 27.4868L117.176 26.49L117.368 26.5054L117.288 27.5022ZM116.915 27.437C110.034 24.053 103.112 20.495 96.3394 16.8584L96.8125 15.9774C103.574 19.6083 110.486 23.1608 117.356 26.5397L116.915 27.437ZM96.0977 16.5637L95.9909 16.2132L96.9474 15.9216L97.0542 16.2721L96.0977 16.5637ZM96.3233 15.5891L96.6754 15.4818L96.967 16.4383L96.615 16.5457L96.3233 15.5891ZM97.0578 15.5196C103.816 19.1479 110.722 22.6979 117.586 26.0726L117.145 26.97C110.27 23.59 103.353 20.0346 96.5847 16.4006L97.0578 15.5196ZM117.839 26.3616L117.957 26.7105L117.009 27.0298L116.891 26.6809L117.839 26.3616ZM117.809 27.2487L117.654 27.3824L117.001 26.6252L117.156 26.4915L117.809 27.2487Z" fill="#BCC7BD" mask="url(#path-16-outside-8_1732_6189)"/>
<mask id="path-18-outside-9_1732_6189" maskUnits="userSpaceOnUse" x="24.3725" y="81.124" width="26.0264" height="25.3718" fill="black">
<rect fill="white" x="24.3725" y="81.124" width="26.0264" height="25.3718"/>
<path d="M48.6485 99.7072L48.456 99.6906L25.7395 88.4041L25.6221 88.0558L25.9713 87.9393L48.6864 99.2263L48.8034 99.5735L48.6485 99.7072Z"/>
</mask>
<path d="M48.6485 99.7072L48.456 99.6906L25.7395 88.4041L25.6221 88.0558L25.9713 87.9393L48.6864 99.2263L48.8034 99.5735L48.6485 99.7072Z" fill="#BCC7BD"/>
<path d="M48.456 99.6906L48.4131 100.189L48.3185 100.181L48.2335 100.138L48.456 99.6906ZM25.7395 88.4041L25.517 88.8519L25.3317 88.7598L25.2656 88.5638L25.7395 88.4041ZM25.6221 88.0558L25.1483 88.2155L24.9882 87.7403L25.4639 87.5815L25.6221 88.0558ZM25.9713 87.9393L25.8131 87.465L26.0089 87.3997L26.1938 87.4916L25.9713 87.9393ZM48.6864 99.2263L48.9089 98.7785L49.0942 98.8706L49.1603 99.0666L48.6864 99.2263ZM48.8034 99.5735L49.2772 99.4139L49.3846 99.7325L49.13 99.9521L48.8034 99.5735ZM48.6056 100.205L48.4131 100.189L48.4989 99.1924L48.6914 99.209L48.6056 100.205ZM48.2335 100.138L25.517 88.8519L25.9619 87.9563L48.6785 99.2428L48.2335 100.138ZM25.2656 88.5638L25.1483 88.2155L26.0959 87.8962L26.2133 88.2445L25.2656 88.5638ZM25.4639 87.5815L25.8131 87.465L26.1296 88.4136L25.7804 88.5301L25.4639 87.5815ZM26.1938 87.4916L48.9089 98.7785L48.4639 99.674L25.7488 88.3871L26.1938 87.4916ZM49.1603 99.0666L49.2772 99.4139L48.3296 99.7332L48.2126 99.3859L49.1603 99.0666ZM49.13 99.9521L48.9751 100.086L48.3219 99.3286L48.4768 99.1949L49.13 99.9521Z" fill="#BCC7BD" mask="url(#path-18-outside-9_1732_6189)"/>
<mask id="path-20-outside-10_1732_6189" maskUnits="userSpaceOnUse" x="98.9194" y="6.13963" width="26.0264" height="25.3718" fill="black">
<rect fill="white" x="98.9194" y="6.13963" width="26.0264" height="25.3718"/>
<path d="M123.195 24.7228L123.003 24.7062L100.286 13.4198L100.169 13.0715L100.518 12.9549L123.233 24.2419L123.35 24.5892L123.195 24.7228Z"/>
</mask>
<path d="M123.195 24.7228L123.003 24.7062L100.286 13.4198L100.169 13.0715L100.518 12.9549L123.233 24.2419L123.35 24.5892L123.195 24.7228Z" fill="#BCC7BD"/>
<path d="M123.003 24.7062L122.96 25.2044L122.865 25.1962L122.78 25.154L123.003 24.7062ZM100.286 13.4198L100.064 13.8675L99.8786 13.7755L99.8125 13.5794L100.286 13.4198ZM100.169 13.0715L99.6952 13.2311L99.535 12.7559L100.011 12.5972L100.169 13.0715ZM100.518 12.9549L100.36 12.4807L100.556 12.4153L100.741 12.5072L100.518 12.9549ZM123.233 24.2419L123.456 23.7941L123.641 23.8862L123.707 24.0822L123.233 24.2419ZM123.35 24.5892L123.824 24.4295L123.931 24.7482L123.677 24.9678L123.35 24.5892ZM123.152 25.221L122.96 25.2044L123.046 24.2081L123.238 24.2246L123.152 25.221ZM122.78 25.154L100.064 13.8675L100.509 12.972L123.225 24.2584L122.78 25.154ZM99.8125 13.5794L99.6952 13.2311L100.643 12.9118L100.76 13.2601L99.8125 13.5794ZM100.011 12.5972L100.36 12.4807L100.676 13.4292L100.327 13.5458L100.011 12.5972ZM100.741 12.5072L123.456 23.7941L123.011 24.6896L100.296 13.4027L100.741 12.5072ZM123.707 24.0822L123.824 24.4295L122.876 24.7488L122.759 24.4015L123.707 24.0822ZM123.677 24.9678L123.522 25.1014L122.869 24.3442L123.024 24.2105L123.677 24.9678Z" fill="#BCC7BD" mask="url(#path-20-outside-10_1732_6189)"/>
<mask id="path-22-outside-11_1732_6189" maskUnits="userSpaceOnUse" x="30.4209" y="80.6916" width="18.8042" height="18.8042" fill="black">
<rect fill="white" x="30.4209" y="80.6916" width="18.8042" height="18.8042"/>
<path d="M48.2014 94.2762L47.9999 94.2562C42.7342 91.3774 37.2911 88.678 31.8213 86.2301L31.6898 85.8876L32.0325 85.7555C37.5153 88.2092 42.9718 90.9158 48.2489 93.8004L48.3517 94.1533L48.2014 94.2762Z"/>
</mask>
<path d="M48.2014 94.2762L47.9999 94.2562C42.7342 91.3774 37.2911 88.678 31.8213 86.2301L31.6898 85.8876L32.0325 85.7555C37.5153 88.2092 42.9718 90.9158 48.2489 93.8004L48.3517 94.1533L48.2014 94.2762Z" fill="#BCC7BD"/>
<path d="M47.9999 94.2562L47.9506 94.7538L47.8493 94.7438L47.76 94.6949L47.9999 94.2562ZM31.8213 86.2301L31.6171 86.6865L31.4286 86.6022L31.3545 86.4094L31.8213 86.2301ZM31.6898 85.8876L31.223 86.0668L31.044 85.6006L31.51 85.421L31.6898 85.8876ZM32.0325 85.7555L31.8527 85.289L32.0468 85.2141L32.2367 85.2991L32.0325 85.7555ZM48.2489 93.8004L48.4888 93.3617L48.6709 93.4613L48.729 93.6606L48.2489 93.8004ZM48.3517 94.1533L48.8318 94.0135L48.9242 94.331L48.6682 94.5404L48.3517 94.1533ZM48.1521 94.7738L47.9506 94.7538L48.0491 93.7587L48.2507 93.7786L48.1521 94.7738ZM47.76 94.6949C42.506 91.8225 37.0748 89.129 31.6171 86.6865L32.0256 85.7738C37.5074 88.227 42.9623 90.9323 48.2397 93.8175L47.76 94.6949ZM31.3545 86.4094L31.223 86.0668L32.1565 85.7083L32.2881 86.0509L31.3545 86.4094ZM31.51 85.421L31.8527 85.289L32.2123 86.2221L31.8696 86.3541L31.51 85.421ZM32.2367 85.2991C37.7316 87.7582 43.2 90.4707 48.4888 93.3617L48.0091 94.2392C42.7436 91.3608 37.2989 88.6602 31.8282 86.2119L32.2367 85.2991ZM48.729 93.6606L48.8318 94.0135L47.8716 94.2931L47.7689 93.9402L48.729 93.6606ZM48.6682 94.5404L48.5179 94.6633L47.8849 93.8891L48.0352 93.7662L48.6682 94.5404Z" fill="#BCC7BD" mask="url(#path-22-outside-11_1732_6189)"/>
<mask id="path-24-outside-12_1732_6189" maskUnits="userSpaceOnUse" x="104.972" y="5.69941" width="18.8042" height="18.8042" fill="black">
<rect fill="white" x="104.972" y="5.69941" width="18.8042" height="18.8042"/>
<path d="M122.752 19.284L122.551 19.264C117.285 16.3852 111.842 13.6858 106.372 11.238L106.241 10.8954L106.583 10.7633C112.066 13.217 117.523 15.9236 122.8 18.8082L122.902 19.1611L122.752 19.284Z"/>
</mask>
<path d="M122.752 19.284L122.551 19.264C117.285 16.3852 111.842 13.6858 106.372 11.238L106.241 10.8954L106.583 10.7633C112.066 13.217 117.523 15.9236 122.8 18.8082L122.902 19.1611L122.752 19.284Z" fill="#BCC7BD"/>
<path d="M122.551 19.264L122.501 19.7616L122.4 19.7516L122.311 19.7028L122.551 19.264ZM106.372 11.238L106.168 11.6943L105.979 11.61L105.905 11.4172L106.372 11.238ZM106.241 10.8954L105.774 11.0746L105.595 10.6084L106.061 10.4288L106.241 10.8954ZM106.583 10.7633L106.403 10.2968L106.598 10.2219L106.787 10.3069L106.583 10.7633ZM122.8 18.8082L123.04 18.3695L123.222 18.4691L123.28 18.6684L122.8 18.8082ZM122.902 19.1611L123.383 19.0213L123.475 19.3388L123.219 19.5482L122.902 19.1611ZM122.703 19.7816L122.501 19.7616L122.6 18.7665L122.801 18.7864L122.703 19.7816ZM122.311 19.7028C117.057 16.8303 111.626 14.1368 106.168 11.6943L106.576 10.7816C112.058 13.2348 117.513 15.9401 122.79 18.8253L122.311 19.7028ZM105.905 11.4172L105.774 11.0746L106.707 10.7162L106.839 11.0587L105.905 11.4172ZM106.061 10.4288L106.403 10.2968L106.763 11.2299L106.42 11.3619L106.061 10.4288ZM106.787 10.3069C112.282 12.766 117.751 15.4785 123.04 18.3695L122.56 19.247C117.294 16.3687 111.85 13.668 106.379 11.2197L106.787 10.3069ZM123.28 18.6684L123.383 19.0213L122.422 19.3009L122.32 18.948L123.28 18.6684ZM123.219 19.5482L123.069 19.6711L122.436 18.8969L122.586 18.774L123.219 19.5482Z" fill="#BCC7BD" mask="url(#path-24-outside-12_1732_6189)"/>
<mask id="path-26-outside-13_1732_6189" maskUnits="userSpaceOnUse" x="36.9863" y="80.6935" width="10.0289" height="10.0289" fill="black">
<rect fill="white" x="36.9863" y="80.6935" width="10.0289" height="10.0289"/>
<path d="M45.7227 87.6838L45.5154 87.6609C43.1781 86.3137 40.7542 85.0531 38.3122 83.9183L38.1863 83.5732L38.531 83.4475C40.9864 84.5893 43.4233 85.8559 45.7761 87.2113L45.8712 87.5653L45.7227 87.6838Z"/>
</mask>
<path d="M45.7227 87.6838L45.5154 87.6609C43.1781 86.3137 40.7542 85.0531 38.3122 83.9183L38.1863 83.5732L38.531 83.4475C40.9864 84.5893 43.4233 85.8559 45.7761 87.2113L45.8712 87.5653L45.7227 87.6838Z" fill="#BCC7BD"/>
<path d="M45.5154 87.6609L45.4604 88.1578L45.3564 88.1463L45.2657 88.0941L45.5154 87.6609ZM38.3122 83.9183L38.1015 84.3717L37.9136 84.2844L37.8425 84.0897L38.3122 83.9183ZM38.1863 83.5732L37.7166 83.7446L37.5451 83.2747L38.015 83.1034L38.1863 83.5732ZM38.531 83.4475L38.3597 82.9777L38.5542 82.9069L38.7418 82.9941L38.531 83.4475ZM45.7761 87.2113L46.0257 86.7781L46.2052 86.8815L46.2589 87.0816L45.7761 87.2113ZM45.8712 87.5653L46.3541 87.4355L46.4391 87.7519L46.1831 87.9562L45.8712 87.5653ZM45.6677 88.1808L45.4604 88.1578L45.5705 87.1639L45.7778 87.1869L45.6677 88.1808ZM45.2657 88.0941C42.9409 86.7541 40.53 85.5003 38.1015 84.3717L38.5229 83.4649C40.9784 84.606 43.4152 85.8733 45.7651 87.2277L45.2657 88.0941ZM37.8425 84.0897L37.7166 83.7446L38.656 83.4017L38.7819 83.7468L37.8425 84.0897ZM38.015 83.1034L38.3597 82.9777L38.7023 83.9173L38.3575 84.0429L38.015 83.1034ZM38.7418 82.9941C41.2106 84.1422 43.6604 85.4155 46.0257 86.7781L45.5265 87.6446C43.1862 86.2964 40.7622 85.0365 38.3202 83.9009L38.7418 82.9941ZM46.2589 87.0816L46.3541 87.4355L45.3884 87.6951L45.2932 87.3411L46.2589 87.0816ZM46.1831 87.9562L46.0346 88.0747L45.4109 87.293L45.5594 87.1745L46.1831 87.9562Z" fill="#BCC7BD" mask="url(#path-26-outside-13_1732_6189)"/>
<mask id="path-28-outside-14_1732_6189" maskUnits="userSpaceOnUse" x="60.5398" y="64.9861" width="8.77529" height="8.77529" fill="black">
<rect fill="white" x="60.5398" y="64.9861" width="8.77529" height="8.77529"/>
<path d="M68.2189 70.9608L68.0586 70.9599C65.8856 70.2283 63.8055 69.2313 61.8739 67.9937L61.7948 67.6347L62.1544 67.5567C64.0498 68.7706 66.0912 69.7511 68.2242 70.4677L68.3866 70.7962L68.2189 70.9608Z"/>
</mask>
<path d="M68.2189 70.9608L68.0586 70.9599C65.8856 70.2283 63.8055 69.2313 61.8739 67.9937L61.7948 67.6347L62.1544 67.5567C64.0498 68.7706 66.0912 69.7511 68.2242 70.4677L68.3866 70.7962L68.2189 70.9608Z" fill="#BCC7BD"/>
<path d="M68.0586 70.9599L68.0558 71.4599L67.9753 71.4594L67.899 71.4337L68.0586 70.9599ZM61.8739 67.9937L61.6041 68.4147L61.4301 68.3032L61.3856 68.1013L61.8739 67.9937ZM61.7948 67.6347L61.3065 67.7423L61.1985 67.2524L61.6888 67.1461L61.7948 67.6347ZM62.1544 67.5567L62.0484 67.068L62.2502 67.0243L62.4241 67.1356L62.1544 67.5567ZM68.2242 70.4677L68.3834 69.9937L68.5804 70.0599L68.6724 70.2461L68.2242 70.4677ZM68.3866 70.7962L68.8348 70.5747L68.9953 70.8994L68.7368 71.1531L68.3866 70.7962ZM68.2162 71.4608L68.0558 71.4599L68.0613 70.4599L68.2217 70.4608L68.2162 71.4608ZM67.899 71.4337C65.6874 70.6891 63.5703 69.6744 61.6041 68.4147L62.1436 67.5727C64.0407 68.7882 66.0838 69.7674 68.2181 70.486L67.899 71.4337ZM61.3856 68.1013L61.3065 67.7423L62.2831 67.5271L62.3622 67.8861L61.3856 68.1013ZM61.6888 67.1461L62.0484 67.068L62.2604 68.0453L61.9008 68.1233L61.6888 67.1461ZM62.4241 67.1356C64.2852 68.3276 66.2895 69.2903 68.3834 69.9937L68.0649 70.9417C65.8928 70.2119 63.8144 69.2136 61.8848 67.9777L62.4241 67.1356ZM68.6724 70.2461L68.8348 70.5747L67.9383 71.0178L67.7759 70.6892L68.6724 70.2461ZM68.7368 71.1531L68.5691 71.3176L67.8687 70.6039L68.0364 70.4394L68.7368 71.1531Z" fill="#BCC7BD" mask="url(#path-28-outside-14_1732_6189)"/>
<mask id="path-30-outside-15_1732_6189" maskUnits="userSpaceOnUse" x="58.2322" y="56.2499" width="17.5506" height="17.5506" fill="black">
<rect fill="white" x="58.2322" y="56.2499" width="17.5506" height="17.5506"/>
<path d="M74.6174 68.9249L74.4402 68.916C69.4055 66.8037 64.437 64.3719 59.6716 61.6897L59.5736 61.3367L59.9265 61.2371C64.6744 63.9096 69.6259 66.3331 74.6404 68.4374L74.7789 68.7765L74.6174 68.9249Z"/>
</mask>
<path d="M74.6174 68.9249L74.4402 68.916C69.4055 66.8037 64.437 64.3719 59.6716 61.6897L59.5736 61.3367L59.9265 61.2371C64.6744 63.9096 69.6259 66.3331 74.6404 68.4374L74.7789 68.7765L74.6174 68.9249Z" fill="#BCC7BD"/>
<path d="M74.4402 68.916L74.4152 69.4154L74.3276 69.411L74.2467 69.3771L74.4402 68.916ZM59.6716 61.6897L59.4264 62.1255L59.2454 62.0236L59.1898 61.8235L59.6716 61.6897ZM59.5736 61.3367L59.0918 61.4704L58.9586 60.9907L59.4378 60.8554L59.5736 61.3367ZM59.9265 61.2371L59.7907 60.7559L59.9907 60.6994L60.1717 60.8014L59.9265 61.2371ZM74.6404 68.4374L74.8339 67.9764L75.025 68.0566L75.1033 68.2484L74.6404 68.4374ZM74.7789 68.7765L75.2418 68.5875L75.3733 68.9095L75.1172 69.1447L74.7789 68.7765ZM74.5925 69.4242L74.4152 69.4154L74.4651 68.4166L74.6424 68.4255L74.5925 69.4242ZM74.2467 69.3771C69.1942 67.2573 64.2084 64.817 59.4264 62.1255L59.9168 61.254C64.6655 63.9268 69.6168 66.3502 74.6336 68.4549L74.2467 69.3771ZM59.1898 61.8235L59.0918 61.4704L60.0554 61.2029L60.1534 61.556L59.1898 61.8235ZM59.4378 60.8554L59.7907 60.7559L60.0623 61.7183L59.7094 61.8179L59.4378 60.8554ZM60.1717 60.8014C64.903 63.4645 69.8372 65.8795 74.8339 67.9764L74.447 68.8985C69.4146 66.7867 64.4459 64.3547 59.6812 61.6728L60.1717 60.8014ZM75.1033 68.2484L75.2418 68.5875L74.316 68.9655L74.1776 68.6264L75.1033 68.2484ZM75.1172 69.1447L74.9557 69.2931L74.2792 68.5566L74.4407 68.4083L75.1172 69.1447Z" fill="#BCC7BD" mask="url(#path-30-outside-15_1732_6189)"/>
<mask id="path-32-outside-16_1732_6189" maskUnits="userSpaceOnUse" x="58.4611" y="49.5053" width="23.8187" height="23.8187" fill="black">
<rect fill="white" x="58.4611" y="49.5053" width="23.8187" height="23.8187"/>
<path d="M80.6716 67.0897L80.4795 67.0743C73.6041 63.6928 66.687 60.1375 59.9197 56.5038L59.8129 56.1534L60.165 56.046C66.9282 59.6772 73.8397 63.2299 80.709 66.6072L80.8265 66.9561L80.6716 67.0897Z"/>
</mask>
<path d="M80.6716 67.0897L80.4795 67.0743C73.6041 63.6928 66.687 60.1375 59.9197 56.5038L59.8129 56.1534L60.165 56.046C66.9282 59.6772 73.8397 63.2299 80.709 66.6072L80.8265 66.9561L80.6716 67.0897Z" fill="#BCC7BD"/>
<path d="M80.4795 67.0743L80.4395 67.5727L80.3444 67.5651L80.2588 67.523L80.4795 67.0743ZM59.9197 56.5038L59.6832 56.9443L59.5016 56.8468L59.4414 56.6496L59.9197 56.5038ZM59.8129 56.1534L59.3346 56.2991L59.1889 55.8209L59.6671 55.6751L59.8129 56.1534ZM60.165 56.046L60.0192 55.5677L60.2182 55.5071L60.4015 55.6055L60.165 56.046ZM80.709 66.6072L80.9296 66.1585L81.1163 66.2503L81.1828 66.4476L80.709 66.6072ZM80.8265 66.9561L81.3003 66.7964L81.4077 67.1151L81.1531 67.3347L80.8265 66.9561ZM80.6316 67.5881L80.4395 67.5727L80.5194 66.5759L80.7115 66.5913L80.6316 67.5881ZM80.2588 67.523C73.3782 64.1389 66.4557 60.5809 59.6832 56.9443L60.1563 56.0633C66.9182 59.6942 73.8301 63.2468 80.7001 66.6256L80.2588 67.523ZM59.4414 56.6496L59.3346 56.2991L60.2912 56.0076L60.398 56.358L59.4414 56.6496ZM59.6671 55.6751L60.0192 55.5677L60.3108 56.5243L59.9587 56.6316L59.6671 55.6751ZM60.4015 55.6055C67.1595 59.2338 74.0657 62.7838 80.9296 66.1585L80.4884 67.0559C73.6138 63.676 66.697 60.1205 59.9285 56.4865L60.4015 55.6055ZM81.1828 66.4476L81.3003 66.7964L80.3527 67.1157L80.2351 66.7668L81.1828 66.4476ZM81.1531 67.3347L80.9981 67.4683L80.345 66.7111L80.4999 66.5775L81.1531 67.3347Z" fill="#BCC7BD" mask="url(#path-32-outside-16_1732_6189)"/>
<mask id="path-34-outside-17_1732_6189" maskUnits="userSpaceOnUse" x="62.267" y="46.2256" width="26.0264" height="25.3718" fill="black">
<rect fill="white" x="62.267" y="46.2256" width="26.0264" height="25.3718"/>
<path d="M86.543 64.8087L86.3505 64.7922L63.634 53.5057L63.5167 53.1574L63.8659 53.0409L86.5809 64.3278L86.6979 64.6751L86.543 64.8087Z"/>
</mask>
<path d="M86.543 64.8087L86.3505 64.7922L63.634 53.5057L63.5167 53.1574L63.8659 53.0409L86.5809 64.3278L86.6979 64.6751L86.543 64.8087Z" fill="#BCC7BD"/>
<path d="M86.3505 64.7922L86.3077 65.2903L86.2131 65.2822L86.1281 65.2399L86.3505 64.7922ZM63.634 53.5057L63.4115 53.9535L63.2262 53.8614L63.1602 53.6653L63.634 53.5057ZM63.5167 53.1574L63.0428 53.3171L62.8827 52.8418L63.3584 52.6831L63.5167 53.1574ZM63.8659 53.0409L63.7076 52.5666L63.9035 52.5012L64.0884 52.5931L63.8659 53.0409ZM86.5809 64.3278L86.8034 63.88L86.9887 63.9721L87.0548 64.1682L86.5809 64.3278ZM86.6979 64.6751L87.1718 64.5155L87.2791 64.8341L87.0245 65.0537L86.6979 64.6751ZM86.5001 65.3069L86.3077 65.2903L86.3934 64.294L86.5859 64.3106L86.5001 65.3069ZM86.1281 65.2399L63.4115 53.9535L63.8565 53.0579L86.573 64.3444L86.1281 65.2399ZM63.1602 53.6653L63.0428 53.3171L63.9905 52.9977L64.1078 53.346L63.1602 53.6653ZM63.3584 52.6831L63.7076 52.5666L64.0241 53.5152L63.6749 53.6317L63.3584 52.6831ZM64.0884 52.5931L86.8034 63.88L86.3585 64.7756L63.6434 53.4887L64.0884 52.5931ZM87.0548 64.1682L87.1718 64.5155L86.2241 64.8347L86.1071 64.4874L87.0548 64.1682ZM87.0245 65.0537L86.8696 65.1873L86.2164 64.4301L86.3714 64.2965L87.0245 65.0537Z" fill="#BCC7BD" mask="url(#path-34-outside-17_1732_6189)"/>
<mask id="path-36-outside-18_1732_6189" maskUnits="userSpaceOnUse" x="68.3155" y="45.7932" width="18.8042" height="18.8042" fill="black">
<rect fill="white" x="68.3155" y="45.7932" width="18.8042" height="18.8042"/>
<path d="M86.0959 59.3778L85.8944 59.3578C80.6287 56.479 75.1856 53.7796 69.7158 51.3317L69.5843 50.9891L69.927 50.8571C75.4098 53.3108 80.8663 56.0173 86.1435 58.902L86.2462 59.2549L86.0959 59.3778Z"/>
</mask>
<path d="M86.0959 59.3778L85.8944 59.3578C80.6287 56.479 75.1856 53.7796 69.7158 51.3317L69.5843 50.9891L69.927 50.8571C75.4098 53.3108 80.8663 56.0173 86.1435 58.902L86.2462 59.2549L86.0959 59.3778Z" fill="#BCC7BD"/>
<path d="M85.8944 59.3578L85.8451 59.8554L85.7438 59.8453L85.6545 59.7965L85.8944 59.3578ZM69.7158 51.3317L69.5116 51.7881L69.3231 51.7037L69.2491 51.5109L69.7158 51.3317ZM69.5843 50.9891L69.1175 51.1684L68.9385 50.7022L69.4045 50.5226L69.5843 50.9891ZM69.927 50.8571L69.7472 50.3905L69.9413 50.3157L70.1312 50.4007L69.927 50.8571ZM86.1435 58.902L86.3833 58.4633L86.5655 58.5628L86.6235 58.7622L86.1435 58.902ZM86.2462 59.2549L86.7263 59.115L86.8188 59.4326L86.5627 59.6419L86.2462 59.2549ZM86.0467 59.8753L85.8451 59.8554L85.9437 58.8602L86.1452 58.8802L86.0467 59.8753ZM85.6545 59.7965C80.4005 56.9241 74.9693 54.2306 69.5116 51.7881L69.9201 50.8753C75.4019 53.3286 80.8569 56.0339 86.1342 58.9191L85.6545 59.7965ZM69.2491 51.5109L69.1175 51.1684L70.0511 50.8099L70.1826 51.1525L69.2491 51.5109ZM69.4045 50.5226L69.7472 50.3905L70.1068 51.3236L69.7641 51.4557L69.4045 50.5226ZM70.1312 50.4007C75.6261 52.8598 81.0945 55.5722 86.3833 58.4633L85.9036 59.3407C80.6381 56.4624 75.1935 53.7618 69.7228 51.3135L70.1312 50.4007ZM86.6235 58.7622L86.7263 59.115L85.7662 59.3947L85.6634 59.0418L86.6235 58.7622ZM86.5627 59.6419L86.4125 59.7648L85.7794 58.9907L85.9297 58.8678L86.5627 59.6419Z" fill="#BCC7BD" mask="url(#path-36-outside-18_1732_6189)"/>
<mask id="path-38-outside-19_1732_6189" maskUnits="userSpaceOnUse" x="74.877" y="45.795" width="10.0289" height="10.0289" fill="black">
<rect fill="white" x="74.877" y="45.795" width="10.0289" height="10.0289"/>
<path d="M83.6133 52.7854L83.406 52.7624C81.0687 51.4153 78.6448 50.1547 76.2029 49.0198L76.0769 48.6747L76.4216 48.5491C78.877 49.6909 81.3139 50.9575 83.6667 52.3129L83.7618 52.6669L83.6133 52.7854Z"/>
</mask>
<path d="M83.6133 52.7854L83.406 52.7624C81.0687 51.4153 78.6448 50.1547 76.2029 49.0198L76.0769 48.6747L76.4216 48.5491C78.877 49.6909 81.3139 50.9575 83.6667 52.3129L83.7618 52.6669L83.6133 52.7854Z" fill="#BCC7BD"/>
<path d="M83.406 52.7624L83.351 53.2594L83.247 53.2479L83.1564 53.1956L83.406 52.7624ZM76.2029 49.0198L75.9921 49.4733L75.8042 49.3859L75.7332 49.1913L76.2029 49.0198ZM76.0769 48.6747L75.6072 48.8462L75.4357 48.3763L75.9056 48.205L76.0769 48.6747ZM76.4216 48.5491L76.2504 48.0793L76.4448 48.0084L76.6325 48.0957L76.4216 48.5491ZM83.6667 52.3129L83.9163 51.8797L84.0958 51.9831L84.1496 52.1831L83.6667 52.3129ZM83.7618 52.6669L84.2447 52.5371L84.3297 52.8534L84.0737 53.0577L83.7618 52.6669ZM83.5583 53.2823L83.351 53.2594L83.4611 52.2655L83.6684 52.2884L83.5583 53.2823ZM83.1564 53.1956C80.8315 51.8557 78.4206 50.6019 75.9921 49.4733L76.4136 48.5664C78.869 49.7075 81.3059 50.9749 83.6557 52.3292L83.1564 53.1956ZM75.7332 49.1913L75.6072 48.8462L76.5466 48.5033L76.6725 48.8484L75.7332 49.1913ZM75.9056 48.205L76.2504 48.0793L76.5929 49.0188L76.2481 49.1445L75.9056 48.205ZM76.6325 48.0957C79.1012 49.2437 81.551 50.517 83.9163 51.8797L83.4171 52.7462C81.0768 51.3979 78.6529 50.1381 76.2108 49.0024L76.6325 48.0957ZM84.1496 52.1831L84.2447 52.5371L83.279 52.7967L83.1838 52.4427L84.1496 52.1831ZM84.0737 53.0577L83.9252 53.1762L83.3015 52.3945L83.45 52.2761L84.0737 53.0577Z" fill="#BCC7BD" mask="url(#path-38-outside-19_1732_6189)"/>
<mask id="path-40-outside-20_1732_6189" maskUnits="userSpaceOnUse" x="111.533" y="5.70908" width="10.0289" height="10.0289" fill="black">
<rect fill="white" x="111.533" y="5.70908" width="10.0289" height="10.0289"/>
<path d="M120.27 12.6994L120.062 12.6765C117.725 11.3293 115.301 10.0688 112.859 8.93391L112.733 8.5888L113.078 8.46313C115.533 9.60497 117.97 10.8715 120.323 12.227L120.418 12.581L120.27 12.6994Z"/>
</mask>
<path d="M120.27 12.6994L120.062 12.6765C117.725 11.3293 115.301 10.0688 112.859 8.93391L112.733 8.5888L113.078 8.46313C115.533 9.60497 117.97 10.8715 120.323 12.227L120.418 12.581L120.27 12.6994Z" fill="#BCC7BD"/>
<path d="M120.062 12.6765L120.007 13.1734L119.903 13.1619L119.813 13.1097L120.062 12.6765ZM112.859 8.93391L112.648 9.38733L112.46 9.30001L112.389 9.10535L112.859 8.93391ZM112.733 8.5888L112.263 8.76024L112.092 8.29037L112.562 8.11905L112.733 8.5888ZM113.078 8.46313L112.907 7.99337L113.101 7.92249L113.289 8.00975L113.078 8.46313ZM120.323 12.227L120.573 11.7937L120.752 11.8971L120.806 12.0972L120.323 12.227ZM120.418 12.581L120.901 12.4512L120.986 12.7675L120.73 12.9718L120.418 12.581ZM120.215 13.1964L120.007 13.1734L120.117 12.1795L120.325 12.2025L120.215 13.1964ZM119.813 13.1097C117.488 11.7697 115.077 10.5159 112.648 9.38733L113.07 8.48048C115.525 9.62159 117.962 10.889 120.312 12.2433L119.813 13.1097ZM112.389 9.10535L112.263 8.76024L113.203 8.41736L113.329 8.76246L112.389 9.10535ZM112.562 8.11905L112.907 7.99337L113.249 8.93289L112.904 9.05856L112.562 8.11905ZM113.289 8.00975C115.757 9.15779 118.207 10.4311 120.573 11.7937L120.073 12.6602C117.733 11.312 115.309 10.0521 112.867 8.9165L113.289 8.00975ZM120.806 12.0972L120.901 12.4512L119.935 12.7107L119.84 12.3568L120.806 12.0972ZM120.73 12.9718L120.581 13.0903L119.958 12.3086L120.106 12.1901L120.73 12.9718Z" fill="#BCC7BD" mask="url(#path-40-outside-20_1732_6189)"/>
<path d="M141.18 74.5715C141.123 74.5893 141.066 74.6042 141.007 74.6158L141.346 74.5092C141.292 74.5333 141.237 74.5536 141.18 74.5715Z" fill="#DEDEDE"/>
<path d="M141.347 74.5057L141.008 74.6122C140.344 74.7551 139.605 74.5549 139.192 73.993C139.076 73.8905 138.994 73.7657 138.931 73.6316L141.503 72.8242L128.385 31.038C129.343 33.7251 130.337 36.4002 131.331 39.073C132.324 42.3217 133.407 45.5431 134.739 48.6723C135.843 51.2582 136.537 53.9918 137.363 56.6732C138.571 59.916 139.411 63.2684 140.461 66.5629C140.893 67.8891 141.284 69.2307 141.794 70.5287C142.318 71.7504 143.021 73.4621 141.617 74.3653C141.531 74.4191 141.441 74.467 141.347 74.5057ZM124.242 17.8438L119.568 2.95339L116.948 3.77587C116.904 2.89004 117.399 2.33294 118.02 2.13807C118.955 1.84439 120.173 2.37646 120.242 3.85723C121.193 7.80263 122.523 11.6441 123.594 15.5582C123.815 16.318 124.03 17.0812 124.242 17.8438Z" fill="#BCC7BD"/>
<path d="M96.6848 88.53C96.6673 88.5354 96.6478 88.5396 96.6303 88.5451L96.7381 88.5113C96.7206 88.5168 96.7037 88.524 96.6848 88.53Z" fill="#DEDEDE"/>
<path d="M96.7374 88.5119L96.6296 88.5458C95.8001 88.7793 94.8029 88.4428 94.4233 87.6058L97.2486 86.7189L91.6048 68.7413C91.7112 69.0343 91.8234 69.3254 91.9372 69.6167C93.3636 74.7008 95.6157 81.1301 97.2546 84.5659C97.5597 85.5582 98.236 86.6264 97.7086 87.6537C97.4989 88.0872 97.1433 88.372 96.7374 88.5119ZM89.9721 63.5408L85.9861 50.844C86.6786 52.9683 87.3779 55.0885 88.1157 57.1992C88.8117 59.2886 89.3752 61.4203 89.9721 63.5408ZM83.497 43.4711L80.5012 44.4116C80.4101 43.6063 80.9883 42.9446 81.6877 42.725C82.2574 42.5461 82.9089 42.6585 83.3491 43.2243C83.4005 43.3065 83.4502 43.3884 83.497 43.4711Z" fill="#BCC7BD"/>
<path d="M51.5061 102.902C51.2336 102.987 50.9438 103.013 50.6653 102.972L52.236 102.479C52.0299 102.674 51.7771 102.817 51.5061 102.902ZM43.6819 78.0455L42.9898 78.2628C43.0981 78.2051 43.2095 78.157 43.326 78.1204C43.4426 78.0838 43.5615 78.0596 43.6819 78.0455Z" fill="#DEDEDE"/>
<path d="M52.2395 102.482L50.6688 102.975C50.268 102.917 49.8904 102.718 49.6218 102.357C49.4625 102.192 49.354 101.994 49.2697 101.781L52.6414 100.723L52.3163 99.687C52.5342 100.315 52.9089 100.927 52.7316 101.607C52.6614 101.959 52.4823 102.255 52.2395 102.482ZM51.153 95.9816L50.9275 95.2632C50.9729 95.4028 51.0186 95.5435 51.0644 95.6843C51.094 95.7836 51.1233 95.882 51.153 95.9816ZM45.4517 79.1262L42.1601 80.1596C41.9486 79.2769 42.3745 78.5991 42.9933 78.2654L43.6854 78.0482C44.3868 77.9674 45.1256 78.2813 45.4517 79.1262Z" fill="#BCC7BD"/>
<path d="M48.6502 99.7078L48.6106 99.7039C48.5466 99.5002 48.483 99.2975 48.4203 99.0928L48.6881 99.2269L48.8051 99.5741L48.6502 99.7078Z" fill="#BCC7BD"/>
<path d="M48.2027 94.2794L48.0011 94.2595C47.5278 94.001 47.0518 93.744 46.5757 93.4871C46.494 93.247 46.4102 93.0057 46.3266 92.7649C46.9707 93.1085 47.6108 93.4547 48.2502 93.8037L48.353 94.1565L48.2027 94.2794Z" fill="#BCC7BD"/>
<path d="M45.7203 87.6863L45.5131 87.6633C45.1257 87.439 44.7351 87.2198 44.3428 87.0002C44.2602 86.7572 44.1775 86.5144 44.0961 86.2704C44.6588 86.5789 45.2189 86.8947 45.7737 87.2138L45.8689 87.5678L45.7203 87.6863Z" fill="#BCC7BD"/>
</svg>
