<svg width="22" height="24" viewBox="0 0 22 24" fill="none" xmlns="http://www.w3.org/2000/svg">
<path d="M9.6164 0.0703125C8.91797 0.164062 8.1914 0.3375 8.03203 0.440624C7.84453 0.5625 7.71797 0.810937 7.71797 1.04531C7.71797 1.17188 8.05078 1.96406 8.98359 4.05C10.3242 7.04531 10.3477 7.11094 10.1742 7.39687C10.0383 7.62656 9.87422 7.71094 9.58359 7.71094C9.13359 7.71094 9.14765 7.72969 7.89609 4.92656C7.29609 3.57656 6.78047 2.46094 6.74765 2.45156C6.67734 2.42344 6.03515 2.80781 5.51484 3.19219C5.01797 3.5625 4.17422 4.40156 3.78516 4.9125C3.21797 5.6625 2.76328 6.48281 2.44922 7.32656C2.28047 7.77187 2.03672 8.6625 1.98516 9.00937L1.95703 9.1875H10.9992H20.0414L20.0133 9.00937C19.9617 8.6625 19.718 7.77187 19.5492 7.32656C18.9726 5.77969 17.9555 4.36875 16.6898 3.35625C16.1555 2.92969 15.3398 2.41875 15.2508 2.45156C15.2227 2.46094 14.6976 3.58125 14.093 4.94062C12.8461 7.74375 12.8648 7.71094 12.4148 7.71094C12.1242 7.71094 11.9555 7.62187 11.8242 7.39687C11.6555 7.11562 11.6789 7.04531 13.0148 4.05469C13.9477 1.96406 14.2805 1.17656 14.2805 1.04531C14.2805 0.810937 14.1539 0.567187 13.9664 0.440624C13.8023 0.332812 13.1039 0.16875 12.3586 0.0703125C11.7539 -0.0140629 10.207 -0.0140629 9.6164 0.0703125Z" fill="#F7B103"/>
<path d="M0.827842 10.6473C0.673155 10.727 0.58878 10.8114 0.509092 10.966C0.410655 11.1535 0.40128 11.2285 0.415342 11.6926C0.434092 12.2832 0.518467 12.4895 0.799717 12.6254C1.00128 12.7192 2.60441 13.1129 3.68722 13.3285C8.52003 14.2989 12.4435 14.3598 17.1872 13.5395C18.6591 13.2864 20.8716 12.7801 21.2044 12.6207C21.481 12.4895 21.5654 12.2785 21.5841 11.6926C21.5982 11.2285 21.5888 11.1535 21.4904 10.966C21.4107 10.8114 21.3263 10.727 21.1716 10.6473L20.9654 10.5442H10.9997H1.03409L0.827842 10.6473Z" fill="#F7B103"/>
<path d="M1.81898 15.3844C1.83304 16.3734 1.83773 16.439 1.94085 16.5984C2.10492 16.8703 2.27367 16.9219 2.94398 16.9219H3.52054L3.65179 17.3109C3.72679 17.5219 3.87679 17.8922 3.99398 18.1359L4.20023 18.5766L3.78304 19.0031C3.33304 19.4625 3.26742 19.6031 3.33304 19.9547C3.35648 20.1094 3.52523 20.2969 4.51898 21.2906C5.51273 22.2844 5.70023 22.4531 5.85023 22.4766C6.20648 22.5422 6.34711 22.4766 6.80648 22.0266L7.23304 21.6047L7.62211 21.7922C7.83304 21.8953 8.19398 22.0453 8.41898 22.1297L8.83148 22.275L8.85023 22.8937C8.86429 23.4234 8.87836 23.5312 8.96742 23.6719C9.17367 24.0047 9.15492 24 10.9971 24C12.5487 24 12.6612 23.9953 12.7971 23.9109C13.069 23.7422 13.1252 23.5781 13.144 22.8891L13.1627 22.275L13.5752 22.1297C13.8002 22.0453 14.1612 21.8953 14.3721 21.7922L14.7612 21.6094L15.1924 22.0266C15.6565 22.4766 15.7924 22.5422 16.144 22.4766C16.294 22.4531 16.4815 22.2844 17.4752 21.2906C18.469 20.2969 18.6377 20.1094 18.6612 19.9547C18.7268 19.6031 18.6612 19.4625 18.2112 19.0031L17.7893 18.5766L18.0002 18.1406C18.1174 17.9015 18.2721 17.5265 18.3424 17.3109L18.469 16.9219H19.0502C19.7205 16.9219 19.8893 16.8703 20.0534 16.5984C20.1565 16.439 20.1612 16.3734 20.1752 15.3844C20.194 14.1844 20.2502 14.2875 19.6455 14.4328C18.8252 14.6297 16.8659 14.9906 16.1862 15.0703C15.8768 15.1078 15.858 15.1312 15.8065 15.5719C15.7643 15.9469 15.5674 16.5469 15.333 17.0156C14.719 18.239 13.6737 19.1016 12.2815 19.5328C11.8924 19.65 11.808 19.6594 10.9971 19.6594C10.1862 19.6594 10.1018 19.65 9.71273 19.5328C8.32054 19.1016 7.27523 18.239 6.66117 17.0156C6.41273 16.5234 6.23929 15.9797 6.17367 15.4922C6.14554 15.2906 6.11742 15.1219 6.10804 15.1172C6.10335 15.1125 5.84554 15.075 5.53617 15.0281C4.81898 14.925 3.37054 14.6578 2.57367 14.4797C2.23148 14.4047 1.91742 14.3437 1.87523 14.3437C1.8096 14.3437 1.80492 14.4609 1.81898 15.3844Z" fill="#F7B103"/>
</svg>
