<svg width="234" height="7" viewBox="0 0 234 7" fill="none" xmlns="http://www.w3.org/2000/svg">
<path fill-rule="evenodd" clip-rule="evenodd" d="M40.0083 4.77673C34.2699 4.99564 28.3369 5.22187 22.4979 5.39495C20.383 5.45736 10.6105 5.67384 9.2494 5.6831C8.45926 5.68895 7.42 5.76647 6.32085 5.84887C4.95869 5.95077 2.42573 6.14042 2.05579 5.94393C2.04788 5.93955 2.03013 5.90395 2.09214 5.81814C2.35837 5.45052 5.75631 5.1424 12.1919 4.90252C13.1659 4.86595 13.8684 4.83961 14.2405 4.81231C15.9351 4.68652 17.6437 4.57437 19.3598 4.47344C33.9812 4.2321 48.6667 3.56807 62.9823 2.91961C65.9793 2.78407 69.0009 2.64753 72.0385 2.51345C111.038 1.26237 147.925 1.28677 181.91 2.58807C182.026 2.59294 182.14 2.59683 182.254 2.60171C145.566 2.6373 103.235 2.89521 59.4967 4.10143C52.9928 4.28086 46.3915 4.53295 40.0083 4.77673ZM204.427 2.21752C205.923 2.29407 207.43 2.3594 208.94 2.42474C211.155 2.5203 213.445 2.61879 215.668 2.7553C216.383 2.79918 218.112 2.87573 220.113 2.96349C220.384 2.97568 220.671 2.98836 220.969 3.00152C220.214 2.98982 219.456 2.96981 218.713 2.9508C217.913 2.92983 217.114 2.90937 216.318 2.89767C206.21 2.75091 195.891 2.29601 185.911 1.85671C183.331 1.74262 180.754 1.6295 178.183 1.52078C175.046 1.38914 171.903 1.27212 168.752 1.16973C173.812 1.25408 178.777 1.38769 183.749 1.57247C186.56 1.67681 189.447 1.74652 192.238 1.81429C196.255 1.91181 200.408 2.01226 204.427 2.21752ZM224.21 2.11416C221.8 1.8972 218.936 1.64999 215.973 1.46325C213.56 1.31162 211.074 1.21314 208.67 1.11855C207.327 1.0659 205.988 1.01324 204.66 0.951318C200.452 0.755319 196.14 0.652922 191.969 0.55346C189.326 0.491052 186.593 0.425737 183.928 0.337976C176.031 0.0776188 167.89 -0.0272095 158.299 0.00594453L152.667 0.024957C135.268 0.081514 117.278 0.14049 99.5738 0.611474C94.7859 0.738727 89.9702 0.899644 85.1577 1.08004C74.7254 1.31797 64.5872 1.61538 54.8959 1.92693C51.823 2.02591 48.7245 2.11221 45.6152 2.199C35.1124 2.49153 24.2536 2.7948 13.8673 3.60317C13.4888 3.63243 12.7564 3.66216 11.8283 3.70019C10.9088 3.73773 9.99251 3.77722 9.09865 3.82208C7.7568 3.8367 6.41601 3.84839 5.0763 3.85571C4.74591 3.85766 4.47967 3.98151 4.48395 4.13265C4.48395 4.13753 4.48503 4.1424 4.48503 4.14678C2.06541 4.39446 0.332231 4.75917 0.0488911 5.34911C-0.0879672 5.63434 0.0638591 5.90199 0.487264 6.12286C1.82056 6.81909 6.08349 6.99999 10.1572 6.99999C12.7126 6.99999 15.1942 6.9288 16.8301 6.86932C31.7434 6.72354 46.9186 6.2116 61.5934 5.71673C68.3701 5.48806 75.3776 5.25208 82.2537 5.0556C88.5257 4.87617 95.035 4.65483 101.332 4.44079C125.179 3.62998 149.84 2.79187 173.206 3.72457C191.18 4.44226 211.932 4.72699 233.218 4.54757C233.415 4.54611 233.598 4.50028 233.707 4.4252L233.9 4.29159C234.052 4.18676 234.029 4.04829 233.844 3.95565C233.078 3.57487 231.966 3.37256 230.688 3.2731C230.729 2.94887 230.168 2.65145 224.21 2.11416Z" fill="url(#paint0_linear_1485_15766)"/>
<defs>
<linearGradient id="paint0_linear_1485_15766" x1="87.8459" y1="1.7619" x2="160.731" y2="1.7619" gradientUnits="userSpaceOnUse">
<stop stop-color="#FFCB4A"/>
<stop offset="1" stop-color="#F7B103"/>
</linearGradient>
</defs>
</svg>
