<svg width="217" height="7" viewBox="0 0 217 7" fill="none" xmlns="http://www.w3.org/2000/svg">
<path fill-rule="evenodd" clip-rule="evenodd" d="M37.1017 4.77673C31.7802 4.99564 26.2782 5.22187 20.8635 5.39495C18.9022 5.45736 9.83965 5.67384 8.57744 5.6831C7.8447 5.68895 6.88094 5.76647 5.86165 5.84887C4.59844 5.95077 2.24951 6.14042 1.90644 5.94393C1.8991 5.93955 1.88264 5.90395 1.94015 5.81814C2.18704 5.45052 5.33811 5.1424 11.3061 4.90252C12.2094 4.86595 12.8608 4.83961 13.2059 4.81231C14.7775 4.68652 16.3619 4.57437 17.9533 4.47344C31.5125 4.2321 45.1311 3.56807 58.4067 2.91961C61.186 2.78407 63.988 2.64753 66.8049 2.51345C102.971 1.26237 137.179 1.28677 168.694 2.58807C168.801 2.59294 168.908 2.59683 169.014 2.60171C134.99 2.6373 95.7348 2.89521 55.1743 4.10143C49.1429 4.28086 43.0212 4.53295 37.1017 4.77673ZM189.575 2.21752C190.963 2.29407 192.36 2.3594 193.76 2.42474C195.815 2.5203 197.939 2.61879 200 2.7553C200.663 2.79918 202.267 2.87573 204.122 2.96349C204.374 2.97568 204.639 2.98836 204.916 3.00152C204.216 2.98982 203.513 2.96981 202.824 2.9508C202.082 2.92983 201.34 2.90937 200.603 2.89767C191.229 2.75091 181.66 2.29601 172.405 1.85671C170.012 1.74262 167.623 1.6295 165.238 1.52078C162.329 1.38914 159.415 1.27212 156.493 1.16973C161.185 1.25408 165.789 1.38769 170.4 1.57247C173.007 1.67681 175.684 1.74652 178.272 1.81429C181.997 1.91181 185.849 2.01226 189.575 2.21752ZM207.921 2.11416C205.686 1.8972 203.03 1.64999 200.283 1.46325C198.045 1.31162 195.739 1.21314 193.51 1.11855C192.265 1.0659 191.023 1.01324 189.791 0.951318C185.889 0.755319 181.891 0.652922 178.023 0.55346C175.572 0.491052 173.037 0.425737 170.565 0.337976C163.242 0.0776188 155.693 -0.0272095 146.798 0.00594453L141.576 0.024957C125.441 0.081514 108.758 0.14049 92.3398 0.611474C87.8997 0.738727 83.4339 0.899644 78.971 1.08004C69.2967 1.31797 59.895 1.61538 50.9078 1.92693C48.0581 2.02591 45.1847 2.11221 42.3013 2.199C32.5615 2.49153 22.4916 2.7948 12.8599 3.60317C12.5088 3.63243 11.8297 3.66216 10.969 3.70019C10.1163 3.73773 9.26656 3.77722 8.43764 3.82208C7.19327 3.8367 5.94989 3.84839 4.70751 3.85571C4.40112 3.85766 4.15423 3.98151 4.15819 4.13265C4.15819 4.13753 4.15919 4.1424 4.15919 4.14678C1.91536 4.39446 0.308094 4.75917 0.0453392 5.34911C-0.0815764 5.63434 0.0592198 5.90199 0.451865 6.12286C1.6883 6.81909 5.64153 6.99999 9.41925 6.99999C11.789 6.99999 14.0903 6.9288 15.6074 6.86932C29.4372 6.72354 43.51 6.2116 57.1187 5.71673C63.403 5.48806 69.9015 5.25208 76.278 5.0556C82.0943 4.87617 88.1308 4.65483 93.9699 4.44079C116.085 3.62998 138.955 2.79187 160.622 3.72457C177.291 4.44226 196.536 4.72699 216.275 4.54757C216.457 4.54611 216.627 4.50028 216.728 4.4252L216.907 4.29159C217.048 4.18676 217.026 4.04829 216.855 3.95565C216.145 3.57487 215.114 3.37256 213.929 3.2731C213.967 2.94887 213.446 2.65145 207.921 2.11416Z" fill="url(#paint0_linear_1410_10117)"/>
<defs>
<linearGradient id="paint0_linear_1410_10117" x1="81.4639" y1="1.7619" x2="149.054" y2="1.7619" gradientUnits="userSpaceOnUse">
<stop stop-color="#FFCB4A"/>
<stop offset="1" stop-color="#F7B103"/>
</linearGradient>
</defs>
</svg>
