<svg width="134" height="50" viewBox="0 0 134 50" fill="none" xmlns="http://www.w3.org/2000/svg">
<g clip-path="url(#clip0_1410_9838)">
<path d="M73.8867 50.0017V45.1406H74.9717C75.55 45.1406 75.9788 45.2631 76.2544 45.5053C76.5312 45.7489 76.6696 46.1245 76.6696 46.6349C76.6696 47.1057 76.53 47.4759 76.252 47.744C75.9739 48.0121 75.5883 48.1454 75.0953 48.1454H74.8358V50.0017H73.8867ZM74.837 47.3357H74.9729C75.23 47.3357 75.4178 47.2772 75.534 47.1602C75.6501 47.0431 75.7082 46.854 75.7082 46.5954C75.7082 46.3559 75.6501 46.1817 75.534 46.0728C75.4178 45.964 75.23 45.9082 74.9729 45.9082H74.837V47.3357Z" fill="#585655"/>
<path d="M78.0586 50.0017V45.1406H79.1302V49.1185H80.8415V50.0017H78.0586Z" fill="#585655"/>
<path d="M80.8438 50.0017L82.4148 45.1406H83.424L85.0181 50.0017H84.0136L83.6783 48.9688H82.0784L81.7905 50.0017H80.8438ZM83.4725 48.1522L83.0101 46.5818C82.9974 46.5355 82.9801 46.4552 82.9593 46.3423C82.9385 46.2293 82.9165 46.0905 82.8945 45.9272C82.8703 46.0851 82.846 46.2252 82.824 46.3504C82.8009 46.4756 82.7847 46.5587 82.7732 46.6008L82.3269 48.1509H83.4725V48.1522Z" fill="#585655"/>
<path d="M86.4102 50.0017V45.1406H87.3916L89.3482 47.9699C89.4051 48.0502 89.4658 48.1618 89.5338 48.3074C89.6019 48.453 89.6712 48.6231 89.7442 48.8204C89.722 48.6762 89.7059 48.5333 89.696 48.3918C89.6861 48.2502 89.6811 48.0733 89.6811 47.861V45.1406H90.5845V50.0017H89.6576L87.6465 47.1193C87.5896 47.039 87.5289 46.9275 87.4621 46.7818C87.3953 46.6376 87.3247 46.4634 87.2505 46.262C87.2728 46.4022 87.2889 46.5423 87.2988 46.6852C87.3087 46.8281 87.3136 47.0077 87.3136 47.2255V50.0017H86.4102Z" fill="#585655"/>
<path d="M95.6489 50.0017V47.7841L94.0625 45.142H95.2359L95.9308 46.4726C95.9648 46.5392 96.0002 46.6236 96.0356 46.7242C96.0724 46.8263 96.1091 46.9433 96.1471 47.0766C96.1772 46.9637 96.21 46.8576 96.248 46.7583C96.2847 46.6589 96.328 46.561 96.3752 46.4657L97.0648 45.1406H98.2369L96.6505 47.7827V50.0003H95.6489V50.0017Z" fill="#585655"/>
<path d="M103.108 47.5724C103.108 47.9032 103.047 48.217 102.926 48.5127C102.805 48.8085 102.63 49.0678 102.401 49.2909C102.163 49.5205 101.898 49.6969 101.6 49.8188C101.303 49.9407 100.996 50.0017 100.678 50.0017C100.4 50.0017 100.128 49.9537 99.8599 49.8577C99.5931 49.7617 99.3492 49.6242 99.1257 49.444C98.8384 49.2118 98.6201 48.9342 98.4668 48.6126C98.3136 48.2897 98.2383 47.9421 98.2383 47.5711C98.2383 47.2378 98.2983 46.9252 98.4183 46.6334C98.5383 46.3416 98.7158 46.0809 98.9482 45.8527C99.1768 45.627 99.4424 45.4519 99.7437 45.3274C100.046 45.2029 100.357 45.1406 100.677 45.1406C100.995 45.1406 101.304 45.2029 101.604 45.3274C101.904 45.4519 102.17 45.627 102.4 45.8527C102.631 46.0809 102.806 46.3416 102.926 46.6347C103.048 46.9291 103.108 47.2417 103.108 47.5724ZM100.678 49.121C101.092 49.121 101.433 48.9732 101.703 48.6787C101.972 48.3843 102.106 48.016 102.106 47.5724C102.106 47.1341 101.969 46.7644 101.697 46.4648C101.425 46.1652 101.086 46.0148 100.678 46.0148C100.265 46.0148 99.9225 46.1639 99.6505 46.4622C99.3786 46.7605 99.2419 47.1302 99.2419 47.5711C99.2419 48.0186 99.376 48.3882 99.6442 48.68C99.911 48.9745 100.256 49.121 100.678 49.121Z" fill="#585655"/>
<path d="M108.67 45.1406V48.0867C108.67 48.7294 108.497 49.2091 108.152 49.5259C107.807 49.8426 107.287 50.0017 106.591 50.0017C105.885 50.0017 105.359 49.8426 105.014 49.5259C104.668 49.2091 104.496 48.7294 104.496 48.0867V45.1406H105.523V47.9276C105.523 48.3173 105.611 48.6115 105.787 48.8089C105.962 49.0064 106.226 49.1045 106.575 49.1045C106.927 49.1045 107.193 49.0051 107.373 48.8076C107.553 48.6088 107.644 48.3159 107.644 47.9276V45.1406H108.67Z" fill="#585655"/>
<path d="M112.85 50.0017H111.664L110.4 47.7304V50.0017H109.371V45.1406H110.843C111.427 45.1406 111.866 45.2549 112.156 45.4849C112.447 45.7149 112.593 46.0592 112.593 46.5192C112.593 46.854 112.493 47.1384 112.294 47.3765C112.095 47.6133 111.837 47.7521 111.522 47.7916L112.85 50.0017ZM110.4 47.2132H110.554C110.97 47.2132 111.245 47.167 111.378 47.0758C111.512 46.9846 111.579 46.824 111.579 46.5954C111.579 46.3559 111.508 46.1871 111.364 46.0864C111.219 45.9857 110.95 45.9354 110.553 45.9354H110.398V47.2132H110.4Z" fill="#585655"/>
<path d="M115.629 50.0003L116.341 45.1406H117.388L118.289 48.0017C118.308 48.0616 118.328 48.1487 118.35 48.2643C118.373 48.3786 118.394 48.5106 118.413 48.6589C118.43 48.5078 118.45 48.3745 118.471 48.2562C118.492 48.1378 118.513 48.0507 118.531 47.9949L119.447 45.1406H120.479L121.195 50.0003H120.246L119.904 47.0698C119.879 46.8535 119.862 46.6889 119.853 46.5787C119.845 46.4685 119.84 46.3651 119.84 46.2698C119.84 46.2195 119.84 46.1814 119.841 46.1555C119.843 46.1297 119.844 46.1079 119.846 46.0875C119.815 46.278 119.784 46.4426 119.755 46.58C119.726 46.7188 119.7 46.8236 119.676 46.8943L118.687 50.0017H118.124L117.15 46.8943C117.141 46.8657 117.122 46.7855 117.094 46.6549C117.065 46.5242 117.026 46.3338 116.973 46.0835V46.2263C116.973 46.4521 116.954 46.7283 116.916 47.0562L116.913 47.0698L116.574 50.0003H115.629Z" fill="#585655"/>
<path d="M122.586 50.0017V45.1406H125.369V46.017H123.596V47.0159H125.369V47.8991H123.596V49.1171H125.369V50.0003H122.586V50.0017Z" fill="#585655"/>
<path d="M126.066 50.0017L127.637 45.1406H128.647L130.241 50.0017H129.236L128.901 48.9688H127.301L127.013 50.0017H126.066ZM128.695 48.1522L128.233 46.5818C128.22 46.5355 128.203 46.4552 128.182 46.3423C128.161 46.2293 128.139 46.0905 128.117 45.9272C128.093 46.0851 128.069 46.2252 128.047 46.3504C128.024 46.4756 128.007 46.5587 127.996 46.6008L127.55 48.1509H128.695V48.1522Z" fill="#585655"/>
<path d="M130.938 50.0017V45.1406H132.009V49.1185H133.72V50.0017H130.938Z" fill="#585655"/>
<path d="M68.3961 0L58.762 4.9566L62.0901 5.6767L59.9597 15.5577C58.3657 14.4578 56.3003 13.8354 55.4339 13.6523C51.9596 12.9186 48.7441 13.5545 45.7873 15.5577C44.3708 16.5203 43.1669 17.7453 42.168 19.2312C41.1628 20.7172 40.4802 22.3022 40.1239 23.9725C39.3625 27.4766 39.9313 30.7566 41.8241 33.8214C43.8095 37.0631 46.8062 39.0997 50.8032 39.9448C54.7601 40.7824 58.3732 40.0363 61.635 37.7114C64.3742 35.7726 66.147 32.9244 66.9546 29.1729L71.5729 7.75287L74.5834 8.43339L68.3961 0ZM53.7524 30.9373C51.5058 30.9373 49.6842 29.1345 49.6842 26.9111C49.6842 24.6877 51.5058 22.885 53.7524 22.885C55.999 22.885 57.8206 24.6877 57.8206 26.9111C57.8206 29.1345 55.999 30.9373 53.7524 30.9373Z" fill="#585655"/>
<path d="M9.63175 16.6641C10.7644 16.6641 11.8684 16.8834 12.9413 17.3221C14.0141 17.7608 14.9546 18.382 15.7605 19.1847C17.4059 20.8009 18.2292 22.7334 18.2292 24.9807C18.2292 26.0627 18.0084 27.119 17.5668 28.152C17.1252 29.185 16.5015 30.093 15.6956 30.8736C14.0178 32.5119 11.9745 33.3305 9.56564 33.3305C7.10316 33.3305 5.02115 32.496 3.32087 30.8258C1.66425 29.1874 0.835938 27.2501 0.835938 25.0126C0.835938 23.8987 1.06173 22.8204 1.51455 21.7764C1.96738 20.7323 2.60234 19.8317 3.41942 19.0707C5.14216 17.4667 7.21294 16.6641 9.63175 16.6641ZM9.50077 22.6696C8.86831 22.6696 8.32941 22.889 7.88282 23.3277C7.41378 23.7884 7.1805 24.3398 7.1805 24.9819C7.1805 25.624 7.41502 26.1755 7.88282 26.6362C8.34064 27.0969 8.897 27.3261 9.55067 27.3261C10.2156 27.3261 10.7707 27.0957 11.2185 26.6362C11.6651 26.1755 11.8884 25.6302 11.8884 24.9979C11.8884 24.3447 11.6539 23.7933 11.1861 23.3436C10.7158 22.8939 10.1544 22.6696 9.50077 22.6696Z" fill="#585655"/>
<path d="M35.6225 33.3305H29.4203V24.4679C29.4203 23.7291 29.3153 23.2255 29.1052 22.9584C28.8509 22.6263 28.475 22.4609 27.9777 22.4609C27.4247 22.4609 27.0273 22.6533 26.7843 23.0392C26.6072 23.2966 26.5186 23.772 26.5186 24.4679V33.3305H20.3164V23.9692C20.3164 21.711 20.8973 19.9773 22.0577 18.7667C23.4067 17.3649 25.3796 16.6641 27.9777 16.6641C30.8073 16.6641 32.8865 17.4887 34.2127 19.1367C35.1517 20.3142 35.6225 21.9255 35.6225 23.9692V33.3305Z" fill="#585655"/>
<path d="M90.8066 17.3594H96.8458V26.3838C96.8458 27.7258 96.6733 28.8069 96.3295 29.626C95.78 30.946 94.8817 31.9309 93.6322 32.5805C92.6747 33.0803 91.5595 33.3313 90.2903 33.3313C88.9127 33.3313 87.7494 33.0437 86.8031 32.4684C86.4482 32.2453 86.028 31.8992 85.5437 31.4299C84.9732 31.8882 84.4889 32.2283 84.0909 32.4525C83.0583 33.0376 81.9012 33.3313 80.6197 33.3313C78.531 33.3313 76.8416 32.6658 75.549 31.3348C74.44 30.1952 73.8867 28.6838 73.8867 26.7982V17.3594H79.9259V25.8561C79.9259 26.9957 80.335 27.5649 81.1532 27.5649C81.6585 27.5649 82.0146 27.3516 82.2191 26.9262C82.3054 26.7349 82.3485 26.346 82.3485 25.761V17.3594H88.3877V25.761C88.3877 26.964 88.8018 27.5661 89.6311 27.5661C90.1363 27.5661 90.4924 27.3321 90.697 26.8628C90.7721 26.6922 90.8103 26.2827 90.8103 25.633V17.3594H90.8066Z" fill="#585655"/>
<path d="M116.327 33.4793H110.149V26.5111C110.149 25.5161 109.989 24.7883 109.67 24.3276C109.23 23.6855 108.57 23.3645 107.689 23.3645C107.072 23.3645 106.538 23.563 106.087 23.9588C105.591 24.3864 105.343 24.9378 105.343 25.6117C105.343 26.2758 105.569 26.8272 106.02 27.2658C106.46 27.6837 106.989 27.892 107.606 27.892C108.135 27.892 108.647 27.7854 109.142 27.5709V33.4793C108.58 33.8432 107.843 34.0258 106.929 34.0258C104.56 34.0258 102.574 33.0946 100.965 31.2321C99.6117 29.6699 98.9336 27.8503 98.9336 25.7734C98.9336 23.28 99.8411 21.2239 101.659 19.6078C103.344 18.1092 105.363 17.3594 107.72 17.3594C110.473 17.3594 112.692 18.3494 114.377 20.3295C115.676 21.8599 116.326 23.7762 116.326 26.0773V33.4793H116.327Z" fill="#585655"/>
<path d="M121.432 40.3296V35.1234C122.261 35.4656 122.986 35.6355 123.608 35.6355C125.593 35.6355 126.88 34.5403 127.47 32.3522C126.401 32.9719 125.353 33.2812 124.328 33.2812C122.811 33.2812 121.563 32.7287 120.581 31.6236C119.6 30.5186 119.109 29.1116 119.109 27.4026V17.3594H125.228V25.9455C125.228 26.8966 125.632 27.3709 126.44 27.3709C127.214 27.3709 127.602 26.8477 127.602 25.8013V17.3594H133.72V31.615C133.72 34.2738 132.956 36.4203 131.429 38.0547C129.607 39.9983 127.403 40.9701 124.819 40.9701C123.683 40.9701 122.555 40.7562 121.432 40.3296Z" fill="#585655"/>
<path d="M59.2743 20.2026C58.9691 19.9341 58.6435 19.6796 58.3077 19.4453L57.8828 20.1312C58.1953 20.3485 58.4975 20.5859 58.7808 20.8342L59.2743 20.2026Z" fill="white"/>
<path d="M56.4934 18.6817C55.847 18.3806 55.1725 18.1727 54.4869 18.0625L54.4062 18.8772C55.0417 18.9781 55.6686 19.172 56.2698 19.4514L56.4934 18.6817Z" fill="white"/>
<path d="M48.845 20.1008L48.4789 19.4453C47.8574 19.8818 47.279 20.3986 46.7578 20.9811L47.2451 21.5286C47.7298 20.9855 48.2691 20.5052 48.845 20.1008Z" fill="white"/>
<path d="M46.7578 34.5912C47.2841 35.1719 47.8675 35.6846 48.4911 36.1146L48.845 35.4452C48.2655 35.0463 47.7236 34.5705 47.2349 34.0312L46.7578 34.5912Z" fill="white"/>
<path d="M50.2344 36.2525C50.8905 36.5399 51.5735 36.7282 52.2639 36.8107L52.3216 35.9404C51.6802 35.8644 51.0462 35.6911 50.4367 35.4219L50.2344 36.2525Z" fill="white"/>
<path d="M52.2518 18.9169L52.3216 18.9088L52.2885 18.4816L52.1894 18.0625C51.5246 18.1551 50.8673 18.35 50.2344 18.6375L50.4449 19.4514C51.0313 19.1817 51.6409 19.003 52.2518 18.9169Z" fill="white"/>
<path d="M44.668 30.7852C44.8912 31.4374 45.1853 32.0625 45.5433 32.6458L46.0594 32.2914C45.727 31.75 45.4538 31.1679 45.2469 30.5625L44.668 30.7852Z" fill="white"/>
<path d="M46.0594 22.5744L45.5325 22.2266C45.1773 22.8141 44.8867 23.4421 44.668 24.0948L45.2549 24.3099C45.4596 23.7052 45.7301 23.1213 46.0594 22.5744Z" fill="white"/>
<path d="M44.6095 27.3693C44.6095 27.2188 44.6131 27.067 44.6203 26.9152C44.6287 26.7621 44.6407 26.6103 44.6552 26.4597L44.0231 26.3906C44.0063 26.5523 43.9931 26.7152 43.9847 26.8794C43.9763 27.0435 43.9727 27.2064 43.9727 27.3681C43.9727 27.7359 43.9943 28.1086 44.0363 28.4739L44.6684 28.3974C44.6287 28.058 44.6095 27.7112 44.6095 27.3693Z" fill="white"/>
<path d="M62.5126 25.747L62.0625 27.7812L62.7415 27.9325L63.1917 25.8982L62.5126 25.747Z" fill="white"/>
<path d="M64.5986 13.9423L64.1484 15.9766L64.8275 16.1278L65.2776 14.0935L64.5986 13.9423Z" fill="white"/>
<path d="M63.2079 21.5829L62.7578 23.6172L63.4368 23.7684L63.887 21.7341L63.2079 21.5829Z" fill="white"/>
<path d="M63.9033 18.1064L63.4531 20.1406L64.1322 20.2918L64.5823 18.2576L63.9033 18.1064Z" fill="white"/>
<path d="M54.4062 36.0324L54.4979 36.8107C55.181 36.6904 55.8531 36.4676 56.4934 36.1482L56.2478 35.4219C55.6564 35.716 55.0368 35.9225 54.4062 36.0324Z" fill="white"/>
<path d="M60.668 31.6443L61.2596 31.9505C61.5973 31.3455 61.8665 30.7027 62.0594 30.0416L61.4119 29.8672C61.2329 30.4832 60.9828 31.0808 60.668 31.6443Z" fill="white"/>
<path d="M57.8828 34.8278L58.3 35.4271C58.909 34.9664 59.471 34.4288 59.97 33.8296L59.4335 33.3438C58.9707 33.901 58.4489 34.3994 57.8828 34.8278Z" fill="white"/>
<path d="M65.9942 9.77152L65.5391 11.8047L66.2185 11.9541L66.6736 9.92092L65.9942 9.77152Z" fill="white"/>
<path d="M66.6895 6.29495L66.2344 8.32812L66.9138 8.47753L67.3689 6.44436L66.6895 6.29495Z" fill="white"/>
<path d="M67.3846 2.82616L66.9297 4.85938L67.6091 5.00871L68.0641 2.9755L67.3846 2.82616Z" fill="white"/>
</g>
<defs>
<clipPath id="clip0_1410_9838">
<rect width="134" height="50" fill="white"/>
</clipPath>
</defs>
</svg>
