<svg width="132" height="29" viewBox="0 0 132 29" fill="none" xmlns="http://www.w3.org/2000/svg">
<path fill-rule="evenodd" clip-rule="evenodd" d="M103.733 11.3229C106.008 9.40626 107.142 7.50534 106.544 6.2042C106.325 5.72692 105.893 5.3669 105.26 5.13311C105.015 5.04583 104.763 4.97961 104.507 4.93518C104.51 4.91203 104.515 4.89036 104.515 4.86646C104.508 4.66894 104.427 4.48131 104.288 4.34203C104.148 4.20275 103.96 4.12239 103.763 4.11742C103.567 4.11246 103.375 4.18326 103.229 4.31531C103.082 4.44737 102.992 4.63067 102.976 4.82762C102.738 4.83136 102.493 4.84256 102.239 4.86198C102.362 3.5952 102.295 2.51291 102.013 1.72042C101.788 1.0833 101.435 0.646347 100.963 0.420777C100.49 0.195206 99.9288 0.195952 99.294 0.42227C98.2216 0.805441 96.9839 1.83097 95.7515 3.29419C94.5057 1.82499 93.2584 0.796476 92.1785 0.416292C91.5429 0.192962 90.9825 0.194458 90.5114 0.421523C90.0388 0.648588 89.6876 1.08778 89.465 1.72565C89.1934 2.49947 89.1264 3.54516 89.2425 4.76936C88.8749 4.73351 88.5258 4.71708 88.1932 4.71559C88.1303 4.56436 88.0211 4.43713 87.8815 4.35228C87.7418 4.26743 87.5788 4.22936 87.4162 4.24358C87.2535 4.2578 87.0996 4.32357 86.9767 4.43138C86.8537 4.53919 86.7681 4.68345 86.7322 4.84331C86.5431 4.8813 86.3566 4.9317 86.1741 4.99419C85.5385 5.21901 85.1031 5.57305 84.8776 6.0466C84.6507 6.52015 84.6507 7.08333 84.8747 7.72046C85.2453 8.77287 86.2247 9.98364 87.6246 11.1959C85.4328 13.0766 84.35 14.9305 84.9372 16.2085C85.4514 17.3274 87.1349 17.7561 89.4591 17.5403C89.442 17.7195 89.4301 17.895 89.4196 18.0668C89.1145 18.1707 88.892 18.456 88.892 18.7981C88.892 19.1499 89.1272 19.4427 89.4472 19.5375C89.5797 20.767 90.0053 21.6379 90.7451 21.9897C91.2177 22.216 91.7788 22.2145 92.4122 21.9882C93.434 21.6237 94.6024 20.6781 95.7761 19.3276C97.6843 21.4997 99.5508 22.5588 100.814 21.9493C101.531 21.605 101.949 20.7722 102.089 19.5995C102.202 19.6329 102.321 19.6398 102.437 19.6197C102.553 19.5995 102.663 19.5529 102.758 19.4835C102.853 19.414 102.931 19.3235 102.986 19.2189C103.041 19.1144 103.071 18.9986 103.074 18.8806C103.077 18.7625 103.053 18.6453 103.004 18.538C102.955 18.4307 102.882 18.3362 102.79 18.2617C102.699 18.1873 102.592 18.1349 102.477 18.1086C102.362 18.0823 102.243 18.0829 102.129 18.1102C102.12 17.9529 102.109 17.7957 102.095 17.6389C103.28 17.7427 104.294 17.671 105.048 17.4043C105.683 17.1795 106.119 16.8255 106.344 16.3512C106.57 15.8784 106.571 15.3152 106.347 14.678C105.988 13.6592 105.06 12.4948 103.733 11.3229Z" fill="#585655"/>
<path fill-rule="evenodd" clip-rule="evenodd" d="M93.1191 14.7985C93.7721 15.1276 94.4353 15.4359 95.1076 15.7232C94.708 15.8718 94.3113 16.0107 93.9213 16.1377C93.642 15.6986 93.3745 15.252 93.1191 14.7985ZM93.9139 14.7477C93.5314 14.5642 93.1525 14.3732 92.7775 14.1748C92.3014 13.2855 91.8673 12.3742 91.4766 11.444C91.9181 10.3292 92.4212 9.24001 92.9836 8.18147C93.8714 7.72698 94.7798 7.31448 95.706 6.94531C96.692 7.35553 97.6574 7.81394 98.5988 8.3189C99.1322 9.32903 99.6126 10.3664 100.038 11.4269C99.6635 12.3279 99.2493 13.2119 98.7968 14.0762C97.7739 14.615 96.7219 15.0962 95.6457 15.5177C95.061 15.2783 94.4835 15.0215 93.9139 14.7477Z" fill="white"/>
<path fill-rule="evenodd" clip-rule="evenodd" d="M4.44593 28.8448H0.28125V28.6447C0.923516 28.6051 1.38791 28.573 1.38791 28.08V24.2274C1.38791 23.7023 0.828999 23.6858 0.28125 23.6627V23.4625H4.44593V23.6627C3.88702 23.6784 3.31545 23.6858 3.31545 24.2274V28.08C3.31545 28.5894 3.79176 28.614 4.44593 28.6447V28.8448ZM7.95495 28.6447C8.66866 28.5894 9.00207 28.5341 9.00207 28.0083V24.2356C8.33525 23.6858 8.14547 23.6619 7.99067 23.6619V23.4618H10.5009L14.6299 26.861H14.6537V24.4492C14.6537 23.9719 14.5108 23.7097 13.547 23.6612V23.461H16.1057V23.6612C15.2491 23.7329 15.1776 23.9151 15.1776 24.2976V28.986H14.8442L9.54982 24.6725H9.526V27.8559C9.526 28.4296 9.77606 28.5812 10.6565 28.6439V28.8441H7.95569V28.6447H7.95495ZM27.6211 27.8335C26.7526 28.4945 25.8245 28.995 24.3018 28.995C21.5296 28.995 20.03 27.6908 20.03 26.2015C20.03 24.5866 21.7439 23.3438 24.2423 23.3438C25.3132 23.3438 26.2294 23.7344 26.5382 23.7344C26.8597 23.7344 26.9669 23.5663 27.0852 23.3684H27.4067V25.2312H27.1098C26.693 24.5381 25.6943 23.6074 24.3376 23.6074C22.6005 23.6074 22.1361 24.8241 22.1361 26.1694C22.1361 26.6481 22.2076 27.4122 22.6482 27.9216C23.1475 28.4953 24.0882 28.6148 24.4566 28.6148C25.3847 28.6148 26.277 28.3758 27.2646 27.6348L27.6211 27.8335ZM39.9707 26.1694C39.9707 27.841 38.198 28.995 35.7592 28.995C33.3203 28.995 31.5469 27.841 31.5469 26.1694C31.5469 24.435 33.4625 23.3438 35.7592 23.3438C38.0551 23.3438 39.9707 24.435 39.9707 26.1694Z" fill="#585655"/>
<path fill-rule="evenodd" clip-rule="evenodd" d="M33.6562 26.1713C33.6562 26.8645 33.7277 28.7348 35.7624 28.7348C37.7964 28.7348 37.8678 26.8645 37.8678 26.1713C37.8678 25.0099 37.428 23.6094 35.7624 23.6094C34.0968 23.6094 33.6562 25.0099 33.6562 26.1713Z" fill="white"/>
<path fill-rule="evenodd" clip-rule="evenodd" d="M51.9867 28.8504H49.5479L47.0845 26.3586H46.763V27.9182C46.763 28.5561 47.025 28.5792 47.8101 28.6502V28.8504H43.7891V28.6502C44.598 28.5874 44.8354 28.5628 44.8354 27.9182V24.4009C44.8354 23.7167 44.4663 23.7003 43.7891 23.6689V23.4688H47.6196C48.4524 23.4688 50.9746 23.533 50.9746 24.8707C50.9746 25.85 49.7496 26.0964 49.1066 26.2316L51.4985 28.5C51.6652 28.6427 51.8431 28.6502 51.986 28.6502V28.8504H51.9867Z" fill="#585655"/>
<path fill-rule="evenodd" clip-rule="evenodd" d="M46.7656 26.0976C48.3248 26.0902 48.9432 25.9154 48.9432 24.8809C48.9432 24.0757 48.4558 23.7344 47.5032 23.7344C46.849 23.7344 46.8252 23.8218 46.7656 24.0682V26.0976Z" fill="white"/>
<path fill-rule="evenodd" clip-rule="evenodd" d="M55.3523 28.6502C55.935 28.5874 55.9588 28.5785 56.0422 28.5396C56.1851 28.4679 56.3518 28.3648 56.3518 27.9182V24.4009C56.3518 23.7317 55.9834 23.7078 55.3523 23.6689V23.4688H59.1836C60.1354 23.4688 62.3004 23.5883 62.3004 24.9335C62.3004 25.2121 62.1694 25.7782 61.2175 26.1353C60.4562 26.4228 59.8489 26.4303 58.2786 26.437V27.9174C58.2786 28.562 58.5048 28.5785 59.3257 28.6494V28.8496H55.3516V28.6502H55.3523Z" fill="#585655"/>
<path fill-rule="evenodd" clip-rule="evenodd" d="M58.2773 26.1626C59.7174 26.1775 60.2525 25.9467 60.2525 24.9608C60.2525 24.0533 59.8246 23.75 58.8489 23.75C58.4448 23.75 58.29 23.8538 58.2773 24.0286V26.1626Z" fill="white"/>
<path fill-rule="evenodd" clip-rule="evenodd" d="M74.3606 26.1694C74.3606 27.841 72.5886 28.995 70.1498 28.995C67.711 28.995 65.9375 27.841 65.9375 26.1694C65.9375 24.435 67.8531 23.3438 70.1498 23.3438C72.4443 23.3438 74.3606 24.435 74.3606 26.1694Z" fill="#585655"/>
<path fill-rule="evenodd" clip-rule="evenodd" d="M68.0469 26.1713C68.0469 26.8645 68.1183 28.7348 70.153 28.7348C72.1863 28.7348 72.2577 26.8645 72.2577 26.1713C72.2577 25.0099 71.8186 23.6094 70.153 23.6094C68.4875 23.6094 68.0469 25.0099 68.0469 26.1713Z" fill="white"/>
<path fill-rule="evenodd" clip-rule="evenodd" d="M86.3805 28.8504H83.9417L81.479 26.3586H81.1575V27.9182C81.1575 28.5561 81.4195 28.5792 82.2039 28.6502V28.8504H78.1836V28.6502C78.9918 28.5874 79.23 28.5628 79.23 27.9182V24.4009C79.23 23.7167 78.8608 23.7003 78.1836 23.6689V23.4688H82.0134C82.8462 23.4688 85.3684 23.533 85.3684 24.8707C85.3684 25.85 84.1434 26.0964 83.5003 26.2316L85.893 28.5C86.059 28.6427 86.2376 28.6502 86.3798 28.6502V28.8504H86.3805Z" fill="#585655"/>
<path fill-rule="evenodd" clip-rule="evenodd" d="M81.1562 26.0976C82.7147 26.0902 83.3339 25.9154 83.3339 24.8809C83.3339 24.0757 82.8457 23.7344 81.893 23.7344C81.2389 23.7344 81.2158 23.8218 81.1562 24.0682V26.0976Z" fill="white"/>
<path fill-rule="evenodd" clip-rule="evenodd" d="M97.7545 28.8523H93.8994V28.6521C94.6377 28.6125 94.8513 28.6058 94.8513 28.3429C94.8513 28.127 94.4703 27.5377 94.3035 27.2837H91.6273C91.2932 27.8574 91.1041 28.1823 91.1041 28.3108C91.1041 28.6125 91.6742 28.6364 92.0798 28.6521V28.8523H89.6641V28.6521C90.3063 28.5894 90.4738 28.3182 90.8295 27.7214L93.4708 23.3594H93.8049L96.4573 27.5459C96.9924 28.3981 97.183 28.6678 97.7538 28.6514V28.8523H97.7545Z" fill="#585655"/>
<path fill-rule="evenodd" clip-rule="evenodd" d="M94.1259 26.9658L92.924 25.0312L91.8047 26.9658H94.1259Z" fill="white"/>
<path fill-rule="evenodd" clip-rule="evenodd" d="M107.008 28.8511H102.76V28.6509C103.63 28.6046 103.915 28.5882 103.915 27.919V23.7249C103.082 23.7571 101.856 23.7966 101.618 25.0702H101.273L101.31 23.4695H108.449L108.472 25.0702H108.127C107.889 23.7966 106.663 23.7571 105.842 23.7249V27.919C105.842 28.5957 106.129 28.6121 107.008 28.6509V28.8511ZM111.728 23.4695H118.593V25.0702H118.297C118.022 23.9393 117.178 23.7414 115.571 23.7414C114.917 23.7414 114.704 23.7735 114.704 24.1148V25.962C115.846 25.971 116.453 25.7633 116.631 24.7759H116.941V27.4663H116.631C116.488 26.4714 115.881 26.2339 114.704 26.2339V28.1595C114.704 28.5098 114.929 28.6061 115.702 28.6061C116.868 28.6061 118.082 28.3992 118.832 27.1967H119.165L118.689 28.8526H111.728V28.6524C112.406 28.6061 112.775 28.5807 112.775 28.0878V24.2351C112.775 23.71 112.275 23.6936 111.728 23.6704V23.4695ZM122.998 28.6509C123.748 28.6509 123.985 28.4201 123.985 28.1258V24.2015C123.985 23.7175 123.462 23.701 122.998 23.6689V23.4688H126.626C129.958 23.4688 131.041 24.8543 131.041 26.08C131.041 27.5447 129.756 28.7861 126.757 28.8504H122.998V28.6509Z" fill="#585655"/>
<path fill-rule="evenodd" clip-rule="evenodd" d="M125.909 28.1039C125.909 28.4236 126.017 28.5662 126.588 28.5662C127.921 28.5662 128.967 28.0568 128.967 26.1544C128.967 25.4292 128.694 23.7344 126.647 23.7344C125.886 23.7344 125.897 23.9331 125.909 24.1078V28.1039Z" fill="white"/>
<path fill-rule="evenodd" clip-rule="evenodd" d="M55.6352 1.96875V10.6264L51.6684 1.96875H43.2081V20.7838H49.8183V10.2178L55.205 20.7838H62.2446V1.96875H55.6352ZM34.0854 20.7838H41.3237L36.1677 1.96875H25.1621L19.957 20.7838H27.2973L27.9656 17.752H33.3873L34.0854 20.7838Z" fill="#585655"/>
<path fill-rule="evenodd" clip-rule="evenodd" d="M28.8984 13.3289L30.6131 5.21875L32.406 13.3289H28.8984Z" fill="white"/>
<path fill-rule="evenodd" clip-rule="evenodd" d="M19.3122 20.7851L14.0074 13.0769C19.56 12.7288 19.1634 7.45401 19.1634 7.45401C18.7808 1.7363 12.8672 1.97009 12.8672 1.97009H0.242188V20.7851H6.85239V14.0606L11.3802 20.7851H19.3122Z" fill="#585655"/>
<path fill-rule="evenodd" clip-rule="evenodd" d="M10.0912 11.0831H6.85156V6.95338H10.0912C12.2144 6.92798 12.1728 8.84384 12.1728 8.84384C12.3224 11.2557 10.0912 11.0831 10.0912 11.0831Z" fill="white"/>
<path fill-rule="evenodd" clip-rule="evenodd" d="M76.6237 1.97295H65.6836V20.788H76.1772C76.1772 20.788 84.5861 21.0389 84.3577 11.5866C84.3577 11.5866 84.7707 1.73618 76.6237 1.97295Z" fill="#585655"/>
<path fill-rule="evenodd" clip-rule="evenodd" d="M77.3639 13.6759C77.3639 13.6759 77.0662 16.081 74.5366 16.0317H72.2891V7.68853H74.4376C74.4376 7.68853 77.1153 7.55632 77.3639 10.293C77.3639 10.2923 77.512 12.5316 77.3639 13.6759Z" fill="white"/>
<path fill-rule="evenodd" clip-rule="evenodd" d="M95.7132 9.35938C95.3528 9.35938 95.0004 9.46666 94.7006 9.66766C94.4009 9.86866 94.1673 10.1543 94.0294 10.4886C93.8914 10.8228 93.8553 11.1906 93.9256 11.5455C93.996 11.9003 94.1696 12.2262 94.4245 12.4821C94.6794 12.7379 95.0041 12.9121 95.3577 12.9827C95.7112 13.0533 96.0777 13.017 96.4107 12.8786C96.7437 12.7401 97.0284 12.5057 97.2287 12.2049C97.4289 11.9041 97.5358 11.5504 97.5358 11.1886C97.5359 10.9484 97.4889 10.7104 97.3973 10.4885C97.3057 10.2665 97.1715 10.0648 97.0022 9.89492C96.833 9.72505 96.632 9.59031 96.4108 9.49842C96.1897 9.40653 95.9526 9.35928 95.7132 9.35938Z" fill="#585655"/>
<path fill-rule="evenodd" clip-rule="evenodd" d="M102.189 5.26387C102.49 5.23847 102.78 5.22428 103.054 5.22204C103.182 5.47301 103.44 5.6463 103.739 5.6463C103.999 5.6463 104.227 5.51633 104.368 5.31915C104.642 5.3662 104.895 5.42894 105.12 5.51185C105.649 5.70829 106.006 5.99809 106.18 6.37529C106.694 7.49568 105.558 9.25842 103.411 11.0533C102.71 10.4654 101.975 9.91874 101.211 9.41602C101.701 7.93114 102.032 6.51721 102.189 5.26387ZM92.696 7.88333C91.9788 8.25079 91.2758 8.64545 90.5884 9.06646C90.1382 7.68689 89.8293 6.37903 89.6797 5.2198C90.8816 5.37666 92.2421 5.70381 93.6755 6.18408C93.3406 6.72485 93.0131 7.29401 92.696 7.88333ZM94.0595 6.31479C94.4286 6.44401 94.8037 6.58443 95.1803 6.73307C94.5512 6.99384 93.9303 7.27382 93.3182 7.57261C93.5601 7.13865 93.8072 6.71963 94.0595 6.31479ZM91.2619 10.9173C91.0682 10.4374 90.8878 9.95226 90.7209 9.46233C91.2601 9.12637 91.8099 8.80777 92.3693 8.50701C91.9685 9.29541 91.5991 10.0995 91.2619 10.9173ZM91.2731 11.9765C91.5447 12.5994 91.8447 13.2313 92.1528 13.8363C91.7231 13.597 91.299 13.3478 90.8809 13.0886C91.0015 12.7219 91.1339 12.3507 91.2731 11.9765ZM91.0483 11.4454C90.8638 11.9145 90.6904 12.388 90.5281 12.8653C89.7366 12.3603 88.9747 11.8099 88.2463 11.2168C88.9285 10.6659 89.6403 10.153 90.3785 9.68043C90.5772 10.2608 90.802 10.8501 91.0483 11.4454ZM90.7573 13.4763C91.3081 13.8176 91.8856 14.15 92.484 14.4704C92.8211 15.0994 93.1671 15.6999 93.5221 16.2661C92.2346 16.6627 91.0148 16.9368 89.926 17.0787C90.0712 15.9882 90.3517 14.7677 90.7573 13.4763ZM99.5466 9.31742C99.441 9.09854 99.3334 8.88068 99.2236 8.66387C99.7381 8.95443 100.244 9.2598 100.741 9.57959C100.592 10.0143 100.429 10.4542 100.254 10.8987C100.032 10.3656 99.796 9.83831 99.5466 9.31742ZM100.631 13.0364C100.239 13.2776 99.8332 13.5166 99.4127 13.7489C99.7066 13.1626 99.988 12.5568 100.245 11.9593C100.382 12.3223 100.512 12.6808 100.631 13.0364ZM98.8939 8.02898C98.5605 7.40338 98.2061 6.7893 97.8312 6.18781C99.2542 5.73891 100.602 5.4394 101.79 5.3042C101.636 6.47837 101.325 7.80042 100.871 9.19418C100.226 8.78107 99.5671 8.3924 98.8939 8.02898ZM98.2606 7.69361C97.5979 7.35364 96.924 7.03602 96.24 6.74129C96.6387 6.59018 97.0405 6.44724 97.4449 6.31255C97.7225 6.75473 97.9949 7.21707 98.2606 7.69361ZM97.5424 15.1419C97.8565 14.9963 98.1646 14.8469 98.4668 14.696C98.1795 15.2169 97.8774 15.7295 97.561 16.2332C97.0982 16.0779 96.6392 15.9115 96.1842 15.7342C96.6415 15.5475 97.0944 15.35 97.5424 15.1419ZM99.0889 14.3778C99.6554 14.08 100.213 13.7652 100.76 13.4337C101.192 14.7901 101.486 16.0711 101.628 17.2019C100.518 17.063 99.2675 16.7777 97.948 16.3587C98.3523 15.7126 98.7329 15.0519 99.0889 14.3778ZM100.47 11.426C100.693 10.8792 100.897 10.337 101.08 9.80218C101.82 10.2951 102.499 10.8001 103.103 11.305C102.424 11.8463 101.716 12.3502 100.983 12.8145C100.827 12.3589 100.656 11.8958 100.47 11.426ZM99.4216 0.803991C100.486 0.424554 101.258 0.792041 101.636 1.86014C101.906 2.62275 101.965 3.67143 101.839 4.9061C100.57 5.04204 99.1291 5.36097 97.6131 5.84274C97.1167 5.06787 96.578 4.32105 95.9997 3.6057C97.1979 2.1731 98.3931 1.17148 99.4216 0.803991ZM95.7474 3.91493C96.246 4.53338 96.7431 5.22204 97.2254 5.96897C96.7268 6.13553 96.2207 6.31927 95.7124 6.51945C95.2383 6.32512 94.7593 6.14282 94.276 5.9727C94.7306 5.26164 95.2217 4.57479 95.7474 3.91493ZM89.8345 1.86388C90.2081 0.794286 90.9784 0.423063 92.0441 0.798765C93.0808 1.16401 94.2857 2.16788 95.4951 3.6072C94.92 4.32096 94.3853 5.06656 93.8935 5.8405C92.3671 5.32587 90.9151 4.97929 89.6343 4.8202C89.513 3.62512 89.574 2.60856 89.8345 1.86388ZM85.2441 7.59427C84.8691 6.52543 85.2382 5.75236 86.3024 5.37516C86.4478 5.32566 86.5959 5.28451 86.746 5.25192C86.845 5.56637 87.1337 5.79643 87.4783 5.79643C87.8735 5.79643 88.195 5.49841 88.2411 5.11449C88.5693 5.11748 88.9169 5.1354 89.2816 5.17274C89.4326 6.4104 89.7601 7.80939 90.2423 9.28157C89.4367 9.78921 88.6626 10.3454 87.9241 10.9472C86.5532 9.7723 85.5999 8.60337 85.2441 7.59427ZM85.2933 16.0479C84.7872 14.9477 85.8715 13.2313 87.9405 11.4716C88.7233 12.1147 89.5448 12.7092 90.4001 13.2515C89.9506 14.649 89.6485 15.9606 89.5018 17.1265C87.3228 17.3483 85.7338 17.0085 85.2933 16.0479ZM92.2763 21.6192C91.7442 21.809 91.285 21.8149 90.9114 21.6364C90.3108 21.3504 89.964 20.6064 89.8487 19.5518C90.1828 19.4659 90.4314 19.1649 90.4314 18.8033C90.4307 18.6278 90.3708 18.4577 90.2615 18.3207C90.1522 18.1837 89.9998 18.0879 89.8293 18.049C89.8397 17.8712 89.8539 17.6889 89.8747 17.5007C91.0416 17.3581 92.353 17.0645 93.7484 16.6223C94.2861 17.4627 94.8759 18.2682 95.5144 19.0341C94.3795 20.3517 93.2542 21.2712 92.2763 21.6192ZM94.1503 16.4931C94.6415 16.3295 95.1431 16.1488 95.6506 15.9486C96.2207 16.1794 96.7856 16.3893 97.3422 16.576C96.8629 17.3166 96.3432 18.03 95.7853 18.713C95.198 18.0054 94.652 17.2642 94.1503 16.4931ZM100.638 21.5961C99.5526 22.1197 97.826 21.0606 96.0421 19.0155C96.6495 18.279 97.2126 17.5068 97.7285 16.703C99.1425 17.1549 100.486 17.4619 101.675 17.6016C101.691 17.7733 101.704 17.9414 101.713 18.1065C101.548 18.1491 101.401 18.2456 101.297 18.3808C101.192 18.516 101.135 18.6822 101.135 18.8534C101.135 19.2037 101.367 19.495 101.684 19.5914C101.564 20.6027 101.221 21.316 100.638 21.5961ZM104.91 17.0331C104.186 17.2901 103.204 17.3558 102.049 17.2475C101.907 16.0427 101.595 14.6751 101.118 13.2134C101.918 12.7149 102.687 12.1695 103.423 11.5799C104.72 12.7152 105.624 13.8393 105.967 14.8148C106.344 15.8836 105.974 16.6567 104.91 17.0331Z" fill="white"/>
<path fill-rule="evenodd" clip-rule="evenodd" d="M121.638 1.96875L118.862 10.9356L115.987 1.96875H107.062V20.7838H113.673V10.3575C114.57 13.0188 117.078 20.7838 117.078 20.7838H120.549L124.117 10.3575V20.7838H130.728V1.96875H121.638Z" fill="#585655"/>
</svg>
