<svg width="24" height="24" viewBox="0 0 24 24" fill="none" xmlns="http://www.w3.org/2000/svg">
<path d="M12.7738 0.0885334C10.3973 0.566658 8.5457 2.45103 8.1332 4.81822C8.04414 5.32916 8.04414 6.37447 8.1332 6.89478C8.49883 8.98072 10.0363 10.762 12.0473 11.4323C12.8723 11.7088 14.1098 11.7979 14.9582 11.6432C16.8004 11.301 18.352 10.1432 19.1676 8.50728C19.6129 7.61197 19.7816 6.88072 19.7816 5.85416C19.7816 4.8276 19.6129 4.09635 19.1676 3.20103C18.352 1.5651 16.8004 0.407284 14.9582 0.0650959C14.4145 -0.0333414 13.3223 -0.0239668 12.7738 0.0885334ZM14.1145 2.19791C14.2363 2.26822 14.3441 2.48853 14.3441 2.6901C14.3441 2.81666 14.3629 2.85416 14.4285 2.85416C14.5879 2.85416 15.0754 3.12135 15.2254 3.29478C15.4223 3.51978 15.427 3.7026 15.2395 3.8901C15.0754 4.04947 14.841 4.07291 14.6676 3.93697C14.6066 3.8901 14.5082 3.82916 14.452 3.79635L14.3441 3.7401V4.53228V5.32447L14.541 5.3901C15.2113 5.61041 15.6707 6.17291 15.7363 6.8526C15.7832 7.37291 15.577 7.88853 15.1551 8.30103C14.9488 8.5026 14.5223 8.76041 14.3957 8.76041C14.3676 8.76041 14.3441 8.84947 14.3441 8.97135C14.3441 9.35572 14.1754 9.55728 13.8613 9.55728C13.6223 9.55728 13.4535 9.34635 13.4535 9.04635V8.82135L13.2238 8.78853C12.9285 8.75103 12.3707 8.46978 12.216 8.28697C12.0754 8.12291 12.066 8.0151 12.1645 7.82291C12.3098 7.54166 12.516 7.52291 12.9566 7.7526C13.4863 8.02447 13.4535 8.08072 13.4535 6.91353V5.90572L13.1723 5.75572C12.5395 5.41822 12.2676 5.02447 12.2629 4.44791C12.2582 4.0776 12.3707 3.73072 12.5863 3.44947C12.7551 3.22916 13.1113 2.97603 13.327 2.92447C13.4441 2.89166 13.4535 2.87291 13.4535 2.66666C13.4535 2.36197 13.6223 2.15103 13.8613 2.15103C13.9504 2.15103 14.0629 2.17447 14.1145 2.19791Z" fill="#F7B103"/>
<path d="M14.3438 7.05339C14.3438 7.7987 14.3484 7.82682 14.4328 7.78463C14.7656 7.60182 14.9484 7.05339 14.7937 6.68776C14.7328 6.53776 14.475 6.27995 14.3859 6.27995C14.3625 6.27995 14.3438 6.61276 14.3438 7.05339Z" fill="#F7B103"/>
<path d="M0.309375 13.3078C0.239063 13.3547 0.135938 13.4578 0.0890625 13.5281C0.0046875 13.6594 0 13.8422 0 18.6094C0 23.3766 0.0046875 23.5594 0.0890625 23.6906C0.295313 24 0.290625 24 1.92188 24C3.55313 24 3.54844 24 3.75469 23.6906C3.83906 23.5594 3.84375 23.3766 3.84375 18.6094C3.84375 13.8422 3.83906 13.6594 3.75469 13.5281C3.54844 13.2188 3.55313 13.2188 1.92188 13.2188C0.553125 13.2188 0.435938 13.2281 0.309375 13.3078Z" fill="#F7B103"/>
<path d="M7.54688 13.5047C7.16719 13.5656 6.46406 13.7953 6.1875 13.9547C6.07031 14.0203 5.8125 14.1891 5.61563 14.3297L5.25 14.5828V18.5906V22.5938L11.7797 22.5844L18.3047 22.5703L18.6469 22.4625C19.5703 22.1766 20.3906 21.5953 20.9203 20.85C21.4219 20.1469 23.8781 16.2703 23.9438 16.0875C24.0422 15.7969 24 15.1828 23.8688 14.925C23.7328 14.6625 23.3625 14.3391 23.0813 14.2359C22.6172 14.0719 22.0594 14.1469 21.6562 14.4375C21.5813 14.4891 20.8828 15.3703 20.1 16.3969C19.3172 17.4187 18.5578 18.375 18.4078 18.5203C18.1125 18.8156 17.55 19.1203 17.1094 19.2281C16.9078 19.275 16.2516 19.2891 14.1328 19.2891C11.4984 19.2891 11.4094 19.2844 11.2594 19.1953C11.0484 19.0687 10.9219 18.8531 10.9219 18.6141C10.9219 18.3562 11.0203 18.1734 11.2359 18.0375L11.4141 17.9297L13.875 17.9062L16.3359 17.8828L16.5938 17.7609C16.9078 17.6156 17.2125 17.3156 17.3813 16.9922C17.4938 16.7812 17.5078 16.7062 17.5078 16.2656C17.5078 15.8391 17.4938 15.7453 17.3906 15.5391C17.2453 15.2391 16.9172 14.9109 16.6172 14.7656L16.3828 14.6484L13.6922 14.6344L11.0016 14.625L10.8328 14.4703C10.4016 14.0812 9.76875 13.7484 9.17344 13.5938C8.73281 13.4859 7.96406 13.4391 7.54688 13.5047Z" fill="#F7B103"/>
</svg>
