<svg width="20" height="15" viewBox="0 0 20 15" fill="none" xmlns="http://www.w3.org/2000/svg">
<path d="M0.527344 0.0625C0.199219 0.183594 0 0.484375 0 0.859375C0 1.25 0.226562 1.56641 0.582031 1.67578C0.796875 1.73828 19.2031 1.73828 19.418 1.67578C19.7734 1.56641 20 1.25 20 0.859375C20 0.476562 19.8008 0.179688 19.457 0.0585938C19.3047 0.0078125 18.2617 0 9.98438 0.00390625C1.95312 0.00390625 0.664062 0.0117188 0.527344 0.0625Z" fill="#101118"/>
<path d="M0.425781 6.49609C0.332031 6.54688 0.203125 6.66406 0.136719 6.75391C0.0273438 6.90625 0.0195312 6.94922 0.0195312 7.24609C0.0195312 7.54297 0.0273438 7.58594 0.136719 7.73828C0.203125 7.82812 0.332031 7.94531 0.425781 7.99609L0.597656 8.08594H10H19.4023L19.5742 7.99609C19.668 7.94531 19.8008 7.82812 19.8633 7.73828C19.9727 7.58594 19.9805 7.54297 19.9805 7.24609C19.9805 6.94922 19.9727 6.90625 19.8633 6.75391C19.8008 6.66406 19.668 6.54688 19.5742 6.49609L19.4023 6.40625H10H0.597656L0.425781 6.49609Z" fill="#101118"/>
<path d="M0.574219 12.8232C0.21875 12.9365 0 13.2412 0 13.6318C0 14.0186 0.238281 14.3545 0.574219 14.4482C0.78125 14.5068 19.2188 14.5068 19.4258 14.4482C19.7617 14.3545 20 14.0186 20 13.6318C20 13.2295 19.7617 12.9092 19.3906 12.8154C19.1406 12.7529 0.777344 12.7607 0.574219 12.8232Z" fill="#101118"/>
</svg>
