<svg width="212" height="4" viewBox="0 0 212 4" fill="none" xmlns="http://www.w3.org/2000/svg">
<path fill-rule="evenodd" clip-rule="evenodd" d="M36.2469 2.72956C31.0479 2.85466 25.6727 2.98393 20.3827 3.08283C18.4667 3.11849 9.61293 3.24219 8.3798 3.24749C7.66394 3.25083 6.72239 3.29513 5.72659 3.34221C4.49248 3.40044 2.19767 3.50881 1.86251 3.39654C1.85534 3.39403 1.83926 3.37369 1.89544 3.32465C2.13665 3.11459 5.21512 2.93852 11.0456 2.80144C11.9281 2.78055 12.5645 2.7655 12.9016 2.74989C14.437 2.67801 15.9849 2.61393 17.5397 2.55626C30.7864 2.41835 44.0912 2.0389 57.0609 1.66835C59.7761 1.5909 62.5136 1.51288 65.2657 1.43626C100.598 0.721356 134.018 0.735297 164.807 1.4789C164.912 1.48168 165.016 1.48391 165.119 1.48669C131.88 1.50703 93.5289 1.65441 53.903 2.34368C48.0105 2.44621 42.0299 2.59026 36.2469 2.72956ZM185.207 1.26716C186.563 1.3109 187.928 1.34823 189.296 1.38557C191.303 1.44017 193.378 1.49645 195.392 1.57446C196.04 1.59954 197.606 1.64328 199.418 1.69343C199.665 1.70039 199.924 1.70763 200.194 1.71516C199.511 1.70847 198.824 1.69704 198.15 1.68617C197.426 1.67419 196.701 1.6625 195.981 1.65581C186.823 1.57195 177.474 1.312 168.432 1.06098C166.095 0.995786 163.76 0.931145 161.431 0.869016C158.589 0.793792 155.742 0.726926 152.887 0.668419C157.471 0.716618 161.969 0.792965 166.474 0.898557C169.02 0.958178 171.636 0.998014 174.164 1.03674C177.803 1.09246 181.567 1.14986 185.207 1.26716ZM203.13 1.20809C200.947 1.08411 198.352 0.94285 195.668 0.836144C193.481 0.749497 191.229 0.693224 189.052 0.639174C187.835 0.609085 186.621 0.578994 185.418 0.543611C181.606 0.431611 177.7 0.373099 173.921 0.316263C171.526 0.280602 169.05 0.243278 166.635 0.193129C159.481 0.0443536 152.105 -0.0155483 143.416 0.00339688L138.314 0.0142611C122.551 0.0465795 106.252 0.0802803 90.2121 0.349414C85.8744 0.42213 81.5114 0.514083 77.1514 0.617167C67.7 0.753127 58.5149 0.923077 49.7348 1.10111C46.9508 1.15766 44.1435 1.20698 41.3266 1.25657C31.8113 1.42374 21.9733 1.59703 12.5635 2.05896C12.2206 2.07567 11.5571 2.09266 10.7163 2.1144C9.8832 2.13585 9.05304 2.15841 8.24322 2.18405C7.02753 2.1924 5.8128 2.19908 4.59904 2.20326C4.29971 2.20438 4.05851 2.27515 4.06238 2.36152C4.06238 2.3643 4.06336 2.36709 4.06336 2.36959C1.87123 2.51112 0.300995 2.71953 0.0442945 3.05664C-0.0796968 3.21962 0.0578553 3.37257 0.441453 3.49878C1.6494 3.89663 5.51154 4 9.20222 4C11.5174 4 13.7657 3.95932 15.2478 3.92533C28.7589 3.84202 42.5074 3.54949 55.8026 3.26671C61.9421 3.13604 68.2909 3.00119 74.5205 2.88892C80.2027 2.78639 86.1001 2.6599 91.8047 2.5376C113.41 2.07427 135.753 1.59535 156.921 2.12833C173.206 2.53844 192.007 2.70114 211.292 2.59861C211.47 2.59778 211.635 2.57159 211.734 2.52869L211.91 2.45234C212.047 2.39244 212.026 2.31331 211.858 2.26037C211.165 2.04278 210.157 1.92718 209 1.87034C209.036 1.68507 208.528 1.51512 203.13 1.20809Z" fill="url(#paint0_linear_1410_12224)"/>
<defs>
<linearGradient id="paint0_linear_1410_12224" x1="79.5869" y1="1.0068" x2="145.62" y2="1.0068" gradientUnits="userSpaceOnUse">
<stop stop-color="#FFCB4A"/>
<stop offset="1" stop-color="#F7B103"/>
</linearGradient>
</defs>
</svg>
