<svg width="24" height="24" viewBox="0 0 24 24" fill="none" xmlns="http://www.w3.org/2000/svg">
<path d="M9.90938 1.75312L9.75 1.9125V4.8V7.6875H11.9766H14.2031V4.8V1.9125L14.0438 1.75312L13.8844 1.59375H11.9766H10.0688L9.90938 1.75312Z" fill="#F7B103"/>
<path d="M0.764447 5.87812C0.47851 5.97187 0.295698 6.11719 0.14101 6.38906L0.000385232 6.63281V14.1C0.000385232 22.3453 -0.0230523 21.7359 0.295698 22.0734C0.380073 22.1578 0.530073 22.2703 0.633197 22.3172C0.81601 22.4016 1.20976 22.4062 12.0004 22.4062C22.716 22.4062 23.1894 22.4016 23.3676 22.3172C23.6066 22.2094 23.8879 21.9 23.9535 21.6703C23.991 21.5437 24.0004 19.3641 23.991 14.0156L23.9769 6.53437L23.8129 6.30469C23.7051 6.15937 23.5598 6.03281 23.4144 5.95312L23.1848 5.83594L19.2332 5.82187L15.2816 5.8125V6.75V7.6875H15.6144C15.9285 7.6875 15.9566 7.69687 16.1066 7.84687C16.3504 8.09062 16.3129 8.44687 16.0223 8.625C15.8723 8.71406 15.7832 8.71875 12.0098 8.71875C7.77695 8.71875 7.95507 8.73281 7.80507 8.4375C7.68788 8.20781 7.71601 8.025 7.89413 7.84687C8.04413 7.69687 8.07226 7.6875 8.38632 7.6875H8.71913V6.75V5.8125L4.84257 5.81719C1.7957 5.81719 0.919135 5.83125 0.764447 5.87812ZM7.41601 11.5453C8.04882 11.8547 8.47069 12.4219 8.58788 13.1109C8.76601 14.1656 8.09569 15.2109 7.05976 15.4922C5.8457 15.8203 4.62226 15.0281 4.40663 13.7672C4.2707 12.9891 4.66445 12.1078 5.34413 11.6719C5.7332 11.4234 6.04726 11.3438 6.59101 11.3578C7.03163 11.3672 7.08788 11.3812 7.41601 11.5453ZM16.7769 13.0594C17.0441 13.2797 17.0113 13.7016 16.716 13.8797C16.5801 13.9641 16.4488 13.9688 14.6816 13.9688C12.6098 13.9688 12.591 13.9641 12.4457 13.6875C12.3566 13.5141 12.3566 13.3922 12.4457 13.2188C12.5957 12.9281 12.5394 12.9375 14.6769 12.9375H16.6316L16.7769 13.0594ZM7.52382 16.3594C8.47538 16.6031 9.38007 17.2172 9.97538 18.0234C10.3644 18.5484 10.6504 19.2469 10.6504 19.6547C10.6457 20.0953 10.2988 20.5547 9.87694 20.6672C9.73632 20.7094 8.77069 20.7187 6.3707 20.7094L3.06132 20.6953L2.83163 20.5547C2.6582 20.4469 2.56913 20.3484 2.4707 20.1562C2.35351 19.9266 2.33945 19.8609 2.3582 19.5703C2.38632 19.0406 2.81288 18.2156 3.36601 17.6156C3.98476 16.95 4.86601 16.4625 5.78945 16.2844C6.23007 16.2 7.04101 16.2328 7.52382 16.3594ZM21.4879 17.4C21.8582 17.5641 21.8394 18.1219 21.4644 18.3141C21.3754 18.3609 20.3769 18.375 17.0723 18.375C12.3754 18.375 12.6004 18.3891 12.4457 18.0938C12.3566 17.9203 12.3566 17.7984 12.4457 17.625C12.6004 17.325 12.2957 17.3438 17.0488 17.3438C20.2129 17.3438 21.4035 17.3578 21.4879 17.4Z" fill="#F7B103"/>
<path d="M6.18775 12.414C5.52213 12.6156 5.23619 13.3375 5.569 13.9703C5.76119 14.3406 6.03775 14.5 6.48775 14.5C7.15807 14.5046 7.55651 14.1015 7.55651 13.4265C7.56119 13.0843 7.43932 12.8218 7.19557 12.6156C6.92838 12.4 6.51588 12.3156 6.18775 12.414Z" fill="#F7B103"/>
<path d="M5.6264 17.4022C4.68422 17.6928 4.00453 18.2506 3.58265 19.0897C3.24984 19.76 2.8889 19.685 6.47484 19.685H9.57797L9.54516 19.5303C9.52641 19.4506 9.42797 19.2022 9.32016 18.9912C8.97797 18.2975 8.27484 17.6975 7.50141 17.4303C7.26703 17.3506 7.06078 17.3225 6.58734 17.3131C6.05297 17.2944 5.93578 17.3084 5.6264 17.4022Z" fill="#F7B103"/>
</svg>
