<svg width="116" height="34" viewBox="0 0 116 34" fill="none" xmlns="http://www.w3.org/2000/svg">
<path fill-rule="evenodd" clip-rule="evenodd" d="M2.69252 0H31.6842L31.6931 3.1144H15.4585L7.85835 27.2986H0L7.60013 3.1144H1.29477L2.69252 0Z" fill="#585655"/>
<path fill-rule="evenodd" clip-rule="evenodd" d="M23.7446 24.9214C22.7713 24.9214 22.7242 23.5887 23.6034 20.9217C24.289 18.8418 25.4815 17.362 27.1816 16.4818C27.8682 16.1279 28.5084 15.6913 29.0877 15.182L27.1823 20.9612C26.3128 23.6018 25.1666 24.9214 23.7446 24.9214ZM33.7695 25.1612C33.0088 25.1612 32.8344 24.5347 33.2479 23.2816L37.2815 11.0426C38.2658 8.0561 36.1626 6.5625 30.9747 6.5625C25.5109 6.5625 22.2527 8.16284 21.1977 11.3628C21.0175 11.9096 20.8667 12.4967 20.7482 13.1225L23.9042 13.8229C23.8925 12.7964 23.9918 11.9696 24.1985 11.3423C24.8577 9.34207 26.2966 8.34196 28.5176 8.34196C30.4384 8.34196 31.0586 9.37644 30.3773 11.4425C29.8587 13.0158 27.7429 14.3617 24.0308 15.4817C19.9876 16.696 17.4731 18.8015 16.4851 21.8026C15.1837 25.7483 16.5219 27.7215 20.5025 27.7215C22.6352 27.7215 24.5369 26.9092 26.2091 25.2818C26.2429 26.842 27.4332 27.622 29.7792 27.622C31.3631 27.622 33.1044 27.2762 35.0054 26.5824L34.9568 24.7416C34.4007 25.0216 34.0063 25.1612 33.7695 25.1612ZM60.7617 6.62245L53.9457 27.3018H47.1159L48.1767 24.0821C45.8145 26.4823 43.3978 27.6813 40.9275 27.6813C37.5971 27.6813 36.5032 25.9479 37.6457 22.4818L42.7026 7.14298C45.0325 7.03625 47.366 6.86298 49.7032 6.62245L44.5351 22.302C44.0864 23.661 44.2482 24.3424 45.0229 24.3424C47.0673 24.3424 48.8645 21.9964 50.4116 17.3028L53.7611 7.14371C56.0784 7.03625 58.4119 6.86298 60.7617 6.62245ZM75.5786 14.4618H70.902C71.3228 13.6759 71.6575 13.0962 71.9047 12.7226C72.2593 12.1757 72.5094 11.6815 72.6551 11.2429C72.9369 10.3897 72.7905 9.96276 72.2166 9.96276C71.7797 9.96276 71.1749 10.5264 70.4047 11.653C69.6345 12.7796 69.0423 13.9691 68.6303 15.2229L64.6489 27.3018H57.8183L64.465 7.14298L65.7855 7.16272C67.3576 7.16272 69.2512 6.98214 71.4655 6.62245L70.3709 9.94229C72.21 7.72931 73.9359 6.62245 75.5448 6.62245C77.7385 6.62245 78.4109 7.91573 77.559 10.5023C77.3332 11.1822 76.9698 11.9615 76.4688 12.8425C76.1756 13.3842 75.8789 13.924 75.5786 14.4618ZM98.9131 6.62245L92.0964 27.3018H85.2688L86.3288 24.0821C83.9652 26.4823 81.55 27.6813 79.0796 27.6813C75.7493 27.6813 74.6554 25.9479 75.7979 22.4818L80.854 7.14298C83.1832 7.03625 85.5182 6.86298 87.8561 6.62245L82.6866 22.302C82.2386 23.661 82.4019 24.3424 83.1751 24.3424C85.2195 24.3424 87.016 21.9964 88.5631 17.3028L91.9125 7.14371C94.2306 7.03625 96.5641 6.86298 98.9131 6.62245ZM115.596 12.322L112.081 12.9427C113.074 9.92987 112.26 8.42238 109.641 8.42238C108.032 8.42238 106.994 9.12933 106.529 10.5425C106.186 11.5821 107.203 12.7021 109.576 13.9026C113.207 15.7566 114.552 18.1099 113.61 20.9619C112.112 25.5092 108.661 27.7821 103.261 27.7821C97.5477 27.7821 95.44 25.5099 96.9386 20.9619L100.707 20.2023C100.526 20.6077 100.364 21.0218 100.223 21.4429C99.8371 22.6163 99.9592 23.6362 100.59 24.5032C101.222 25.3696 102.16 25.8031 103.409 25.8031C105.055 25.8031 106.124 25.0567 106.617 23.5623C106.946 22.563 105.982 21.4568 103.724 20.2432C100.326 18.4031 99.1036 16.0424 100.052 13.1627C100.681 11.2568 101.963 9.69226 103.899 8.47282C105.836 7.25338 108.007 6.64365 110.414 6.64365C114.694 6.64219 116.42 8.53569 115.596 12.322ZM57.4239 28.2457H64.2266V32.0824L63.3659 33.0021H58.3288L57.4674 31.9391L57.4239 28.2457Z" fill="#585655"/>
</svg>
