<svg width="22" height="12" viewBox="0 0 22 12" fill="none" xmlns="http://www.w3.org/2000/svg">
<path d="M11.102 7.76487C11.102 7.7652 11.1021 7.7655 11.1024 7.76573L11.8069 8.47027C12.1974 8.86079 12.8306 8.86079 13.2211 8.47027L20.273 1.41838C20.6635 1.02791 21.2965 1.02791 21.687 1.41837C22.0775 1.80884 22.0775 2.44191 21.687 2.83237L13.2211 11.2983C12.8306 11.6888 12.1974 11.6888 11.8069 11.2983L6.857 6.34837C6.46653 5.95791 6.46653 5.32484 6.857 4.93437C7.24747 4.54391 7.88053 4.54391 8.271 4.93438L9.689 6.35238L11.1016 7.76402C11.1019 7.76425 11.102 7.76455 11.102 7.76487ZM11.8089 5.6423C11.4196 5.25297 11.4196 4.62175 11.8089 4.23238L15.3511 0.689446C15.7404 0.300058 16.3717 0.300026 16.761 0.689375C17.1504 1.07875 17.1504 1.71003 16.7611 2.09945L13.219 5.64223C12.8297 6.03166 12.1983 6.03169 11.8089 5.6423ZM7.5705 9.88587C7.96069 10.2761 7.96069 10.9087 7.5705 11.2989C7.18031 11.6891 6.54769 11.6891 6.1575 11.2989L1.207 6.34837C0.816534 5.95791 0.816827 5.32455 1.20729 4.93408C1.59744 4.54394 2.23027 4.54365 2.62042 4.93379L3.3265 5.63988C3.32678 5.64015 3.32678 5.6406 3.3265 5.64087C3.32622 5.64115 3.32622 5.6416 3.3265 5.64187L7.5705 9.88587Z" fill="#63605F"/>
</svg>
