<svg width="20" height="20" viewBox="0 0 20 20" fill="none" xmlns="http://www.w3.org/2000/svg">
<path d="M5.83293 7.64076C5.98906 7.48556 6.20027 7.39844 6.42043 7.39844C6.64058 7.39844 6.85179 7.48556 7.00793 7.64076L9.9996 10.5908L12.9496 7.64076C13.1057 7.48556 13.3169 7.39844 13.5371 7.39844C13.7572 7.39844 13.9685 7.48556 14.1246 7.64076C14.2027 7.71823 14.2647 7.8104 14.307 7.91195C14.3493 8.0135 14.3711 8.12242 14.3711 8.23243C14.3711 8.34244 14.3493 8.45136 14.307 8.55291C14.2647 8.65446 14.2027 8.74663 14.1246 8.8241L10.5913 12.3574C10.5138 12.4355 10.4216 12.4975 10.3201 12.5398C10.2185 12.5821 10.1096 12.6039 9.9996 12.6039C9.88959 12.6039 9.78066 12.5821 9.67911 12.5398C9.57757 12.4975 9.4854 12.4355 9.40793 12.3574L5.83293 8.8241C5.75482 8.74663 5.69283 8.65446 5.65052 8.55291C5.60821 8.45136 5.58643 8.34244 5.58643 8.23243C5.58643 8.12242 5.60821 8.0135 5.65052 7.91195C5.69283 7.8104 5.75482 7.71823 5.83293 7.64076Z" fill="#63605F"/>
</svg>
